<mxfile host="app.diagrams.net" modified="2023-11-11T19:16:34.262Z" agent="Mozilla/5.0 (Macintosh; Intel Mac OS X 10_15_7) AppleWebKit/605.1.15 (KHTML, like Gecko) Version/16.3 Safari/605.1.15" etag="wLdChEhscj3LpCfmI4lJ" version="22.1.0" type="github">
  <diagram name="第 1 页" id="wZ13EeWJKWFvQt3x4rx6">
    <mxGraphModel dx="1701" dy="1831" grid="1" gridSize="10" guides="1" tooltips="1" connect="1" arrows="1" fold="1" page="1" pageScale="1" pageWidth="827" pageHeight="1169" math="0" shadow="0">
      <root>
        <mxCell id="0" />
        <mxCell id="1" parent="0" />
        <mxCell id="IT8IMpOZwN_9MQMlR_QI-182" value="" style="rounded=0;whiteSpace=wrap;html=1;align=center;verticalAlign=middle;fontFamily=Helvetica;fontSize=12;dashed=1;" vertex="1" parent="1">
          <mxGeometry x="300" y="-20" width="1430" height="720" as="geometry" />
        </mxCell>
        <mxCell id="IT8IMpOZwN_9MQMlR_QI-181" value="" style="rounded=0;whiteSpace=wrap;html=1;align=center;verticalAlign=middle;fontFamily=Helvetica;fontSize=12;dashed=1;" vertex="1" parent="1">
          <mxGeometry x="260.18" y="11.5" width="1430" height="720" as="geometry" />
        </mxCell>
        <mxCell id="IT8IMpOZwN_9MQMlR_QI-180" value="" style="rounded=0;whiteSpace=wrap;html=1;align=center;verticalAlign=middle;fontFamily=Helvetica;fontSize=12;dashed=1;" vertex="1" parent="1">
          <mxGeometry x="220" y="40" width="1430" height="720" as="geometry" />
        </mxCell>
        <mxCell id="IT8IMpOZwN_9MQMlR_QI-125" value="" style="rounded=0;whiteSpace=wrap;html=1;strokeColor=default;align=center;verticalAlign=middle;fontFamily=Helvetica;fontSize=12;fontColor=default;fillColor=none;dashed=1;" vertex="1" parent="1">
          <mxGeometry x="1240" y="130" width="330" height="310" as="geometry" />
        </mxCell>
        <mxCell id="IT8IMpOZwN_9MQMlR_QI-112" value="" style="rounded=0;whiteSpace=wrap;html=1;strokeColor=default;align=center;verticalAlign=middle;fontFamily=Helvetica;fontSize=12;fontColor=default;fillColor=none;dashed=1;" vertex="1" parent="1">
          <mxGeometry x="650" y="80" width="460" height="360" as="geometry" />
        </mxCell>
        <mxCell id="IT8IMpOZwN_9MQMlR_QI-48" value="" style="rounded=0;whiteSpace=wrap;html=1;strokeColor=#6c8ebf;align=center;verticalAlign=middle;fontFamily=Helvetica;fontSize=12;fillColor=#dae8fc;opacity=60;" vertex="1" parent="1">
          <mxGeometry x="499.82" y="285" width="40.18" height="35" as="geometry" />
        </mxCell>
        <mxCell id="IT8IMpOZwN_9MQMlR_QI-49" value="" style="shape=parallelogram;perimeter=parallelogramPerimeter;whiteSpace=wrap;html=1;fixedSize=1;points=[[0,0,0,0,0],[0,0.25,0,0,0],[0,0.5,0,0,0],[0,0.75,0,0,0],[0.12,1,0,0,2],[0.25,0,0,0,0],[0.25,1,0,0,0],[0.5,0,0,0,0],[0.5,1,0,0,0],[0.75,0,0,0,0],[0.75,1,0,0,0],[1,0,0,0,0],[1,0.25,0,0,0],[1,0.5,0,0,0],[1,0.75,0,0,0],[1,1,0,0,0]];direction=south;flipH=0;container=1;movable=1;resizable=1;rotatable=1;deletable=1;editable=1;locked=0;connectable=1;size=30;fillColor=#dae8fc;strokeColor=#6c8ebf;" vertex="1" parent="1">
          <mxGeometry x="470" y="255" width="29.82" height="65" as="geometry">
            <mxRectangle x="280" y="200" width="50" height="40" as="alternateBounds" />
          </mxGeometry>
        </mxCell>
        <mxCell id="IT8IMpOZwN_9MQMlR_QI-47" value="" style="shape=parallelogram;perimeter=parallelogramPerimeter;whiteSpace=wrap;html=1;fixedSize=1;points=[[0,0,0,0,0],[0,0.25,0,0,0],[0,0.5,0,0,0],[0,0.75,0,0,0],[0.12,1,0,0,2],[0.25,0,0,0,0],[0.25,1,0,0,0],[0.5,0,0,0,0],[0.5,1,0,0,0],[0.75,0,0,0,0],[0.75,1,0,0,0],[1,0,0,0,0],[1,0.25,0,0,0],[1,0.5,0,0,0],[1,0.75,0,0,0],[1,1,0,0,0]];direction=south;flipH=0;container=1;movable=1;resizable=1;rotatable=1;deletable=1;editable=1;locked=0;connectable=1;size=30;fillColor=#fff2cc;strokeColor=#d6b656;" vertex="1" parent="1">
          <mxGeometry x="470" y="220" width="29.82" height="65" as="geometry">
            <mxRectangle x="280" y="200" width="50" height="40" as="alternateBounds" />
          </mxGeometry>
        </mxCell>
        <mxCell id="dKwMKBpl6AtvwzmfxyNu-1" value="" style="rounded=0;whiteSpace=wrap;html=1;" parent="1" vertex="1">
          <mxGeometry x="20" y="155" width="120" height="30" as="geometry" />
        </mxCell>
        <mxCell id="IT8IMpOZwN_9MQMlR_QI-46" value="" style="rounded=0;whiteSpace=wrap;html=1;strokeColor=#d6b656;align=center;verticalAlign=middle;fontFamily=Helvetica;fontSize=12;fillColor=#fff2cc;opacity=60;" vertex="1" parent="1">
          <mxGeometry x="499.82" y="250" width="40.18" height="35" as="geometry" />
        </mxCell>
        <mxCell id="dKwMKBpl6AtvwzmfxyNu-2" value="" style="rounded=0;whiteSpace=wrap;html=1;" parent="1" vertex="1">
          <mxGeometry x="40" y="250" width="120" height="30" as="geometry" />
        </mxCell>
        <mxCell id="dKwMKBpl6AtvwzmfxyNu-3" value="" style="rounded=0;whiteSpace=wrap;html=1;" parent="1" vertex="1">
          <mxGeometry x="40" y="210" width="120" height="30" as="geometry" />
        </mxCell>
        <mxCell id="Rn8pzBqu3v2TeswD3Hwm-75" value="" style="group" parent="1" vertex="1" connectable="0">
          <mxGeometry x="-25" y="430" width="209.82" height="65" as="geometry" />
        </mxCell>
        <mxCell id="Rn8pzBqu3v2TeswD3Hwm-76" value="" style="endArrow=none;html=1;rounded=0;fontFamily=Helvetica;fontSize=12;fontColor=default;exitX=0.153;exitY=0;exitDx=0;exitDy=0;exitPerimeter=0;entryX=1;entryY=0;entryDx=0;entryDy=0;dashed=1;" parent="Rn8pzBqu3v2TeswD3Hwm-75" edge="1">
          <mxGeometry width="50" height="50" relative="1" as="geometry">
            <mxPoint x="89.71754000000016" y="1" as="sourcePoint" />
            <mxPoint x="121.82" y="31" as="targetPoint" />
          </mxGeometry>
        </mxCell>
        <mxCell id="Rn8pzBqu3v2TeswD3Hwm-77" value="" style="endArrow=none;html=1;rounded=0;fontFamily=Helvetica;fontSize=12;fontColor=default;exitX=0.153;exitY=0;exitDx=0;exitDy=0;exitPerimeter=0;entryX=1;entryY=0;entryDx=0;entryDy=0;dashed=1;" parent="Rn8pzBqu3v2TeswD3Hwm-75" edge="1">
          <mxGeometry width="50" height="50" relative="1" as="geometry">
            <mxPoint x="43.717540000000156" as="sourcePoint" />
            <mxPoint x="75.82" y="30" as="targetPoint" />
          </mxGeometry>
        </mxCell>
        <mxCell id="Rn8pzBqu3v2TeswD3Hwm-78" value="" style="shape=parallelogram;perimeter=parallelogramPerimeter;whiteSpace=wrap;html=1;fixedSize=1;points=[[0,0,0,0,0],[0,0.25,0,0,0],[0,0.5,0,0,0],[0,0.75,0,0,0],[0.12,1,0,0,2],[0.25,0,0,0,0],[0.25,1,0,0,0],[0.5,0,0,0,0],[0.5,1,0,0,0],[0.75,0,0,0,0],[0.75,1,0,0,0],[1,0,0,0,0],[1,0.25,0,0,0],[1,0.5,0,0,0],[1,0.75,0,0,0],[1,1,0,0,0]];direction=south;flipH=0;container=1;movable=1;resizable=1;rotatable=1;deletable=1;editable=1;locked=0;connectable=1;size=30;fillColor=#e1d5e7;strokeColor=#9673a6;" parent="Rn8pzBqu3v2TeswD3Hwm-75" vertex="1">
          <mxGeometry width="29.82" height="65" as="geometry">
            <mxRectangle x="280" y="200" width="50" height="40" as="alternateBounds" />
          </mxGeometry>
        </mxCell>
        <mxCell id="Rn8pzBqu3v2TeswD3Hwm-79" value="" style="shape=parallelogram;perimeter=parallelogramPerimeter;whiteSpace=wrap;html=1;fixedSize=1;points=[[0,0,0,0,0],[0,0.25,0,0,0],[0,0.5,0,0,0],[0,0.75,0,0,0],[0.12,1,0,0,2],[0.25,0,0,0,0],[0.25,1,0,0,0],[0.5,0,0,0,0],[0.5,1,0,0,0],[0.75,0,0,0,0],[0.75,1,0,0,0],[1,0,0,0,0],[1,0.25,0,0,0],[1,0.5,0,0,0],[1,0.75,0,0,0],[1,1,0,0,0]];direction=west;flipH=0;container=1;movable=1;resizable=1;rotatable=1;deletable=1;editable=1;locked=0;connectable=1;size=30;flipV=1;fillColor=#e1d5e7;strokeColor=#9673a6;" parent="Rn8pzBqu3v2TeswD3Hwm-75" vertex="1">
          <mxGeometry width="209.82" height="29.82" as="geometry">
            <mxRectangle x="280" y="200" width="50" height="40" as="alternateBounds" />
          </mxGeometry>
        </mxCell>
        <mxCell id="Rn8pzBqu3v2TeswD3Hwm-80" value="" style="rounded=0;whiteSpace=wrap;html=1;strokeColor=#9673a6;align=center;verticalAlign=middle;fontFamily=Helvetica;fontSize=12;fillColor=#e1d5e7;opacity=60;" parent="Rn8pzBqu3v2TeswD3Hwm-75" vertex="1">
          <mxGeometry x="29.819999999999993" y="30" width="180" height="35" as="geometry" />
        </mxCell>
        <mxCell id="Rn8pzBqu3v2TeswD3Hwm-81" value="" style="endArrow=none;html=1;rounded=0;fontFamily=Helvetica;fontSize=12;fontColor=default;exitX=0.25;exitY=0;exitDx=0;exitDy=0;" parent="Rn8pzBqu3v2TeswD3Hwm-75" source="Rn8pzBqu3v2TeswD3Hwm-80" target="Rn8pzBqu3v2TeswD3Hwm-79" edge="1">
          <mxGeometry width="50" height="50" relative="1" as="geometry">
            <mxPoint x="-130.18" y="295" as="sourcePoint" />
            <mxPoint x="-80.18" y="105" as="targetPoint" />
          </mxGeometry>
        </mxCell>
        <mxCell id="Rn8pzBqu3v2TeswD3Hwm-82" style="edgeStyle=orthogonalEdgeStyle;rounded=0;orthogonalLoop=1;jettySize=auto;html=1;exitX=0.5;exitY=1;exitDx=0;exitDy=0;fontFamily=Helvetica;fontSize=12;fontColor=default;" parent="Rn8pzBqu3v2TeswD3Hwm-75" source="Rn8pzBqu3v2TeswD3Hwm-80" target="Rn8pzBqu3v2TeswD3Hwm-80" edge="1">
          <mxGeometry relative="1" as="geometry" />
        </mxCell>
        <mxCell id="Rn8pzBqu3v2TeswD3Hwm-83" value="" style="endArrow=none;html=1;rounded=0;fontFamily=Helvetica;fontSize=12;fontColor=default;entryX=0.25;entryY=0;entryDx=0;entryDy=0;exitX=0.25;exitY=1;exitDx=0;exitDy=0;dashed=1;" parent="Rn8pzBqu3v2TeswD3Hwm-75" source="Rn8pzBqu3v2TeswD3Hwm-80" target="Rn8pzBqu3v2TeswD3Hwm-80" edge="1">
          <mxGeometry width="50" height="50" relative="1" as="geometry">
            <mxPoint x="-20.180000000000007" y="235" as="sourcePoint" />
            <mxPoint x="29.819999999999993" y="185" as="targetPoint" />
          </mxGeometry>
        </mxCell>
        <mxCell id="Rn8pzBqu3v2TeswD3Hwm-84" value="" style="endArrow=none;html=1;rounded=0;fontFamily=Helvetica;fontSize=12;fontColor=default;entryX=0.5;entryY=0;entryDx=0;entryDy=0;exitX=0.5;exitY=1;exitDx=0;exitDy=0;dashed=1;" parent="Rn8pzBqu3v2TeswD3Hwm-75" source="Rn8pzBqu3v2TeswD3Hwm-80" target="Rn8pzBqu3v2TeswD3Hwm-80" edge="1">
          <mxGeometry width="50" height="50" relative="1" as="geometry">
            <mxPoint x="69.82" y="215" as="sourcePoint" />
            <mxPoint x="119.82" y="165" as="targetPoint" />
          </mxGeometry>
        </mxCell>
        <mxCell id="Rn8pzBqu3v2TeswD3Hwm-85" value="" style="endArrow=none;html=1;rounded=0;fontFamily=Helvetica;fontSize=12;fontColor=default;entryX=0.75;entryY=0;entryDx=0;entryDy=0;exitX=0.75;exitY=1;exitDx=0;exitDy=0;dashed=1;" parent="Rn8pzBqu3v2TeswD3Hwm-75" source="Rn8pzBqu3v2TeswD3Hwm-80" target="Rn8pzBqu3v2TeswD3Hwm-80" edge="1">
          <mxGeometry width="50" height="50" relative="1" as="geometry">
            <mxPoint x="199.82" y="175" as="sourcePoint" />
            <mxPoint x="249.82" y="125" as="targetPoint" />
          </mxGeometry>
        </mxCell>
        <mxCell id="Rn8pzBqu3v2TeswD3Hwm-86" value="" style="endArrow=none;html=1;rounded=0;fontFamily=Helvetica;fontSize=12;fontColor=default;entryX=0.143;entryY=0;entryDx=0;entryDy=0;entryPerimeter=0;exitX=1;exitY=0;exitDx=0;exitDy=0;dashed=1;" parent="Rn8pzBqu3v2TeswD3Hwm-75" edge="1">
          <mxGeometry width="50" height="50" relative="1" as="geometry">
            <mxPoint x="165.82" y="30" as="sourcePoint" />
            <mxPoint x="135.8157400000003" as="targetPoint" />
          </mxGeometry>
        </mxCell>
        <mxCell id="Rn8pzBqu3v2TeswD3Hwm-87" value="" style="endArrow=none;html=1;rounded=0;fontFamily=Helvetica;fontSize=12;fontColor=default;entryX=0.143;entryY=0;entryDx=0;entryDy=0;entryPerimeter=0;exitX=1;exitY=0;exitDx=0;exitDy=0;dashed=1;" parent="Rn8pzBqu3v2TeswD3Hwm-75" edge="1">
          <mxGeometry width="50" height="50" relative="1" as="geometry">
            <mxPoint x="120.82" y="30" as="sourcePoint" />
            <mxPoint x="90.81574000000029" as="targetPoint" />
          </mxGeometry>
        </mxCell>
        <mxCell id="Rn8pzBqu3v2TeswD3Hwm-88" value="" style="endArrow=none;html=1;rounded=0;fontFamily=Helvetica;fontSize=12;fontColor=default;entryX=0.143;entryY=0;entryDx=0;entryDy=0;entryPerimeter=0;exitX=1;exitY=0;exitDx=0;exitDy=0;dashed=1;" parent="Rn8pzBqu3v2TeswD3Hwm-75" edge="1">
          <mxGeometry width="50" height="50" relative="1" as="geometry">
            <mxPoint x="75.82" y="30" as="sourcePoint" />
            <mxPoint x="45.81574000000029" as="targetPoint" />
          </mxGeometry>
        </mxCell>
        <mxCell id="Rn8pzBqu3v2TeswD3Hwm-131" value="" style="rounded=0;whiteSpace=wrap;html=1;strokeColor=#d6b656;align=center;verticalAlign=middle;fontFamily=Helvetica;fontSize=12;fillColor=#fff2cc;opacity=60;" parent="1" vertex="1">
          <mxGeometry x="290" y="250" width="180" height="35" as="geometry" />
        </mxCell>
        <mxCell id="Rn8pzBqu3v2TeswD3Hwm-132" value="" style="shape=parallelogram;perimeter=parallelogramPerimeter;whiteSpace=wrap;html=1;fixedSize=1;points=[[0,0,0,0,0],[0,0.25,0,0,0],[0,0.5,0,0,0],[0,0.75,0,0,0],[0.12,1,0,0,2],[0.25,0,0,0,0],[0.25,1,0,0,0],[0.5,0,0,0,0],[0.5,1,0,0,0],[0.75,0,0,0,0],[0.75,1,0,0,0],[1,0,0,0,0],[1,0.25,0,0,0],[1,0.5,0,0,0],[1,0.75,0,0,0],[1,1,0,0,0]];direction=south;flipH=0;container=1;movable=1;resizable=1;rotatable=1;deletable=1;editable=1;locked=0;connectable=1;size=30;fillColor=#fff2cc;strokeColor=#d6b656;" parent="1" vertex="1">
          <mxGeometry x="260.18" y="220" width="29.82" height="65" as="geometry">
            <mxRectangle x="280" y="200" width="50" height="40" as="alternateBounds" />
          </mxGeometry>
        </mxCell>
        <mxCell id="Rn8pzBqu3v2TeswD3Hwm-133" value="" style="endArrow=none;html=1;rounded=0;fontFamily=Helvetica;fontSize=12;fontColor=default;entryX=0.25;entryY=0;entryDx=0;entryDy=0;exitX=0.25;exitY=1;exitDx=0;exitDy=0;dashed=1;" parent="1" source="Rn8pzBqu3v2TeswD3Hwm-131" target="Rn8pzBqu3v2TeswD3Hwm-131" edge="1">
          <mxGeometry width="50" height="50" relative="1" as="geometry">
            <mxPoint x="360" y="440" as="sourcePoint" />
            <mxPoint x="410" y="390" as="targetPoint" />
          </mxGeometry>
        </mxCell>
        <mxCell id="Rn8pzBqu3v2TeswD3Hwm-134" value="" style="endArrow=none;html=1;rounded=0;fontFamily=Helvetica;fontSize=12;fontColor=default;entryX=0.5;entryY=0;entryDx=0;entryDy=0;exitX=0.5;exitY=1;exitDx=0;exitDy=0;dashed=1;" parent="1" source="Rn8pzBqu3v2TeswD3Hwm-131" target="Rn8pzBqu3v2TeswD3Hwm-131" edge="1">
          <mxGeometry width="50" height="50" relative="1" as="geometry">
            <mxPoint x="345" y="295" as="sourcePoint" />
            <mxPoint x="345" y="260" as="targetPoint" />
          </mxGeometry>
        </mxCell>
        <mxCell id="Rn8pzBqu3v2TeswD3Hwm-135" value="" style="endArrow=none;html=1;rounded=0;fontFamily=Helvetica;fontSize=12;fontColor=default;entryX=0.75;entryY=0;entryDx=0;entryDy=0;exitX=0.75;exitY=1;exitDx=0;exitDy=0;dashed=1;" parent="1" source="Rn8pzBqu3v2TeswD3Hwm-131" target="Rn8pzBqu3v2TeswD3Hwm-131" edge="1">
          <mxGeometry width="50" height="50" relative="1" as="geometry">
            <mxPoint x="390" y="295" as="sourcePoint" />
            <mxPoint x="390" y="260" as="targetPoint" />
          </mxGeometry>
        </mxCell>
        <mxCell id="Rn8pzBqu3v2TeswD3Hwm-136" value="" style="rounded=0;whiteSpace=wrap;html=1;strokeColor=#6c8ebf;align=center;verticalAlign=middle;fontFamily=Helvetica;fontSize=12;fillColor=#dae8fc;opacity=60;" parent="1" vertex="1">
          <mxGeometry x="290" y="285" width="180" height="35" as="geometry" />
        </mxCell>
        <mxCell id="Rn8pzBqu3v2TeswD3Hwm-137" value="" style="shape=parallelogram;perimeter=parallelogramPerimeter;whiteSpace=wrap;html=1;fixedSize=1;points=[[0,0,0,0,0],[0,0.25,0,0,0],[0,0.5,0,0,0],[0,0.75,0,0,0],[0.12,1,0,0,2],[0.25,0,0,0,0],[0.25,1,0,0,0],[0.5,0,0,0,0],[0.5,1,0,0,0],[0.75,0,0,0,0],[0.75,1,0,0,0],[1,0,0,0,0],[1,0.25,0,0,0],[1,0.5,0,0,0],[1,0.75,0,0,0],[1,1,0,0,0]];direction=south;flipH=0;container=1;movable=1;resizable=1;rotatable=1;deletable=1;editable=1;locked=0;connectable=1;size=30;fillColor=#dae8fc;strokeColor=#6c8ebf;" parent="1" vertex="1">
          <mxGeometry x="260.18" y="255" width="29.82" height="65" as="geometry">
            <mxRectangle x="280" y="200" width="50" height="40" as="alternateBounds" />
          </mxGeometry>
        </mxCell>
        <mxCell id="Rn8pzBqu3v2TeswD3Hwm-142" value="" style="endArrow=none;html=1;rounded=0;fontFamily=Helvetica;fontSize=12;fontColor=default;entryX=0.25;entryY=0;entryDx=0;entryDy=0;exitX=0.25;exitY=1;exitDx=0;exitDy=0;dashed=1;" parent="1" source="Rn8pzBqu3v2TeswD3Hwm-136" target="Rn8pzBqu3v2TeswD3Hwm-136" edge="1">
          <mxGeometry width="50" height="50" relative="1" as="geometry">
            <mxPoint x="290" y="460" as="sourcePoint" />
            <mxPoint x="340" y="410" as="targetPoint" />
          </mxGeometry>
        </mxCell>
        <mxCell id="Rn8pzBqu3v2TeswD3Hwm-143" value="" style="endArrow=none;html=1;rounded=0;fontFamily=Helvetica;fontSize=12;fontColor=default;entryX=0.5;entryY=0;entryDx=0;entryDy=0;exitX=0.5;exitY=1;exitDx=0;exitDy=0;dashed=1;" parent="1" source="Rn8pzBqu3v2TeswD3Hwm-136" target="Rn8pzBqu3v2TeswD3Hwm-136" edge="1">
          <mxGeometry width="50" height="50" relative="1" as="geometry">
            <mxPoint x="280" y="460" as="sourcePoint" />
            <mxPoint x="330" y="410" as="targetPoint" />
          </mxGeometry>
        </mxCell>
        <mxCell id="Rn8pzBqu3v2TeswD3Hwm-144" value="" style="endArrow=none;html=1;rounded=0;fontFamily=Helvetica;fontSize=12;fontColor=default;entryX=0.75;entryY=0;entryDx=0;entryDy=0;exitX=0.75;exitY=1;exitDx=0;exitDy=0;dashed=1;" parent="1" source="Rn8pzBqu3v2TeswD3Hwm-136" target="Rn8pzBqu3v2TeswD3Hwm-136" edge="1">
          <mxGeometry width="50" height="50" relative="1" as="geometry">
            <mxPoint x="490" y="490" as="sourcePoint" />
            <mxPoint x="540" y="440" as="targetPoint" />
          </mxGeometry>
        </mxCell>
        <mxCell id="Rn8pzBqu3v2TeswD3Hwm-46" value="" style="endArrow=none;html=1;rounded=0;fontFamily=Helvetica;fontSize=12;fontColor=default;exitX=0.153;exitY=0;exitDx=0;exitDy=0;exitPerimeter=0;entryX=1;entryY=0;entryDx=0;entryDy=0;dashed=1;" parent="1" edge="1">
          <mxGeometry width="50" height="50" relative="1" as="geometry">
            <mxPoint x="349.89754000000016" y="186" as="sourcePoint" />
            <mxPoint x="382" y="216" as="targetPoint" />
          </mxGeometry>
        </mxCell>
        <mxCell id="Rn8pzBqu3v2TeswD3Hwm-47" value="" style="endArrow=none;html=1;rounded=0;fontFamily=Helvetica;fontSize=12;fontColor=default;exitX=0.153;exitY=0;exitDx=0;exitDy=0;exitPerimeter=0;entryX=1;entryY=0;entryDx=0;entryDy=0;dashed=1;" parent="1" edge="1">
          <mxGeometry width="50" height="50" relative="1" as="geometry">
            <mxPoint x="303.89754000000016" y="185" as="sourcePoint" />
            <mxPoint x="336" y="215" as="targetPoint" />
          </mxGeometry>
        </mxCell>
        <mxCell id="Rn8pzBqu3v2TeswD3Hwm-15" value="" style="shape=parallelogram;perimeter=parallelogramPerimeter;whiteSpace=wrap;html=1;fixedSize=1;points=[[0,0,0,0,0],[0,0.25,0,0,0],[0,0.5,0,0,0],[0,0.75,0,0,0],[0.12,1,0,0,2],[0.25,0,0,0,0],[0.25,1,0,0,0],[0.5,0,0,0,0],[0.5,1,0,0,0],[0.75,0,0,0,0],[0.75,1,0,0,0],[1,0,0,0,0],[1,0.25,0,0,0],[1,0.5,0,0,0],[1,0.75,0,0,0],[1,1,0,0,0]];direction=south;flipH=0;container=1;movable=1;resizable=1;rotatable=1;deletable=1;editable=1;locked=0;connectable=1;size=30;fillColor=#f8cecc;strokeColor=#b85450;" parent="1" vertex="1">
          <mxGeometry x="260.18" y="185" width="29.82" height="65" as="geometry">
            <mxRectangle x="280" y="200" width="50" height="40" as="alternateBounds" />
          </mxGeometry>
        </mxCell>
        <mxCell id="Rn8pzBqu3v2TeswD3Hwm-16" value="" style="shape=parallelogram;perimeter=parallelogramPerimeter;whiteSpace=wrap;html=1;fixedSize=1;points=[[0,0,0,0,0],[0,0.25,0,0,0],[0,0.5,0,0,0],[0,0.75,0,0,0],[0.12,1,0,0,2],[0.25,0,0,0,0],[0.25,1,0,0,0],[0.5,0,0,0,0],[0.5,1,0,0,0],[0.75,0,0,0,0],[0.75,1,0,0,0],[1,0,0,0,0],[1,0.25,0,0,0],[1,0.5,0,0,0],[1,0.75,0,0,0],[1,1,0,0,0]];direction=west;flipH=0;container=1;movable=1;resizable=1;rotatable=1;deletable=1;editable=1;locked=0;connectable=1;size=30;flipV=1;fillColor=#f8cecc;strokeColor=#b85450;" parent="1" vertex="1">
          <mxGeometry x="260.18" y="185" width="209.82" height="29.82" as="geometry">
            <mxRectangle x="280" y="200" width="50" height="40" as="alternateBounds" />
          </mxGeometry>
        </mxCell>
        <mxCell id="Rn8pzBqu3v2TeswD3Hwm-19" value="" style="rounded=0;whiteSpace=wrap;html=1;strokeColor=#b85450;align=center;verticalAlign=middle;fontFamily=Helvetica;fontSize=12;fillColor=#f8cecc;opacity=60;" parent="1" vertex="1">
          <mxGeometry x="290" y="215" width="180" height="35" as="geometry" />
        </mxCell>
        <mxCell id="Rn8pzBqu3v2TeswD3Hwm-35" value="" style="endArrow=none;html=1;rounded=0;fontFamily=Helvetica;fontSize=12;fontColor=default;exitX=0.25;exitY=0;exitDx=0;exitDy=0;" parent="1" source="Rn8pzBqu3v2TeswD3Hwm-19" target="Rn8pzBqu3v2TeswD3Hwm-16" edge="1">
          <mxGeometry width="50" height="50" relative="1" as="geometry">
            <mxPoint x="130" y="480" as="sourcePoint" />
            <mxPoint x="180" y="290" as="targetPoint" />
          </mxGeometry>
        </mxCell>
        <mxCell id="Rn8pzBqu3v2TeswD3Hwm-48" style="edgeStyle=orthogonalEdgeStyle;rounded=0;orthogonalLoop=1;jettySize=auto;html=1;exitX=0.5;exitY=1;exitDx=0;exitDy=0;fontFamily=Helvetica;fontSize=12;fontColor=default;" parent="1" source="Rn8pzBqu3v2TeswD3Hwm-19" target="Rn8pzBqu3v2TeswD3Hwm-19" edge="1">
          <mxGeometry relative="1" as="geometry" />
        </mxCell>
        <mxCell id="Rn8pzBqu3v2TeswD3Hwm-49" value="" style="endArrow=none;html=1;rounded=0;fontFamily=Helvetica;fontSize=12;fontColor=default;entryX=0.25;entryY=0;entryDx=0;entryDy=0;exitX=0.25;exitY=1;exitDx=0;exitDy=0;dashed=1;" parent="1" source="Rn8pzBqu3v2TeswD3Hwm-19" target="Rn8pzBqu3v2TeswD3Hwm-19" edge="1">
          <mxGeometry width="50" height="50" relative="1" as="geometry">
            <mxPoint x="240" y="420" as="sourcePoint" />
            <mxPoint x="290" y="370" as="targetPoint" />
          </mxGeometry>
        </mxCell>
        <mxCell id="Rn8pzBqu3v2TeswD3Hwm-50" value="" style="endArrow=none;html=1;rounded=0;fontFamily=Helvetica;fontSize=12;fontColor=default;entryX=0.5;entryY=0;entryDx=0;entryDy=0;exitX=0.5;exitY=1;exitDx=0;exitDy=0;dashed=1;" parent="1" source="Rn8pzBqu3v2TeswD3Hwm-19" target="Rn8pzBqu3v2TeswD3Hwm-19" edge="1">
          <mxGeometry width="50" height="50" relative="1" as="geometry">
            <mxPoint x="330" y="400" as="sourcePoint" />
            <mxPoint x="380" y="350" as="targetPoint" />
          </mxGeometry>
        </mxCell>
        <mxCell id="Rn8pzBqu3v2TeswD3Hwm-51" value="" style="endArrow=none;html=1;rounded=0;fontFamily=Helvetica;fontSize=12;fontColor=default;entryX=0.75;entryY=0;entryDx=0;entryDy=0;exitX=0.75;exitY=1;exitDx=0;exitDy=0;dashed=1;" parent="1" source="Rn8pzBqu3v2TeswD3Hwm-19" target="Rn8pzBqu3v2TeswD3Hwm-19" edge="1">
          <mxGeometry width="50" height="50" relative="1" as="geometry">
            <mxPoint x="460" y="360" as="sourcePoint" />
            <mxPoint x="510" y="310" as="targetPoint" />
          </mxGeometry>
        </mxCell>
        <mxCell id="Rn8pzBqu3v2TeswD3Hwm-54" value="" style="endArrow=none;html=1;rounded=0;fontFamily=Helvetica;fontSize=12;fontColor=default;entryX=0.143;entryY=0;entryDx=0;entryDy=0;entryPerimeter=0;exitX=1;exitY=0;exitDx=0;exitDy=0;dashed=1;" parent="1" edge="1">
          <mxGeometry width="50" height="50" relative="1" as="geometry">
            <mxPoint x="426" y="215" as="sourcePoint" />
            <mxPoint x="395.9957400000003" y="185" as="targetPoint" />
          </mxGeometry>
        </mxCell>
        <mxCell id="Rn8pzBqu3v2TeswD3Hwm-55" value="" style="endArrow=none;html=1;rounded=0;fontFamily=Helvetica;fontSize=12;fontColor=default;entryX=0.143;entryY=0;entryDx=0;entryDy=0;entryPerimeter=0;exitX=1;exitY=0;exitDx=0;exitDy=0;dashed=1;" parent="1" edge="1">
          <mxGeometry width="50" height="50" relative="1" as="geometry">
            <mxPoint x="381" y="215" as="sourcePoint" />
            <mxPoint x="350.9957400000003" y="185" as="targetPoint" />
          </mxGeometry>
        </mxCell>
        <mxCell id="Rn8pzBqu3v2TeswD3Hwm-56" value="" style="endArrow=none;html=1;rounded=0;fontFamily=Helvetica;fontSize=12;fontColor=default;entryX=0.143;entryY=0;entryDx=0;entryDy=0;entryPerimeter=0;exitX=1;exitY=0;exitDx=0;exitDy=0;dashed=1;" parent="1" edge="1">
          <mxGeometry width="50" height="50" relative="1" as="geometry">
            <mxPoint x="336" y="215" as="sourcePoint" />
            <mxPoint x="305.9957400000003" y="185" as="targetPoint" />
          </mxGeometry>
        </mxCell>
        <mxCell id="IT8IMpOZwN_9MQMlR_QI-19" value="" style="shape=parallelogram;perimeter=parallelogramPerimeter;whiteSpace=wrap;html=1;fixedSize=1;points=[[0,0,0,0,0],[0,0.25,0,0,0],[0,0.5,0,0,0],[0,0.75,0,0,0],[0.12,1,0,0,2],[0.25,0,0,0,0],[0.25,1,0,0,0],[0.5,0,0,0,0],[0.5,1,0,0,0],[0.75,0,0,0,0],[0.75,1,0,0,0],[1,0,0,0,0],[1,0.25,0,0,0],[1,0.5,0,0,0],[1,0.75,0,0,0],[1,1,0,0,0]];direction=west;flipH=0;container=1;movable=1;resizable=1;rotatable=1;deletable=1;editable=1;locked=0;connectable=1;size=30;flipV=1;fillColor=#f8cecc;strokeColor=#b85450;" vertex="1" parent="1">
          <mxGeometry x="470" y="185" width="70" height="29.82" as="geometry">
            <mxRectangle x="280" y="200" width="50" height="40" as="alternateBounds" />
          </mxGeometry>
        </mxCell>
        <mxCell id="IT8IMpOZwN_9MQMlR_QI-18" value="" style="shape=parallelogram;perimeter=parallelogramPerimeter;whiteSpace=wrap;html=1;fixedSize=1;points=[[0,0,0,0,0],[0,0.25,0,0,0],[0,0.5,0,0,0],[0,0.75,0,0,0],[0.12,1,0,0,2],[0.25,0,0,0,0],[0.25,1,0,0,0],[0.5,0,0,0,0],[0.5,1,0,0,0],[0.75,0,0,0,0],[0.75,1,0,0,0],[1,0,0,0,0],[1,0.25,0,0,0],[1,0.5,0,0,0],[1,0.75,0,0,0],[1,1,0,0,0]];direction=south;flipH=0;container=1;movable=1;resizable=1;rotatable=1;deletable=1;editable=1;locked=0;connectable=1;size=30;fillColor=#f8cecc;strokeColor=#b85450;" vertex="1" parent="1">
          <mxGeometry x="470" y="185" width="29.82" height="65" as="geometry">
            <mxRectangle x="280" y="200" width="50" height="40" as="alternateBounds" />
          </mxGeometry>
        </mxCell>
        <mxCell id="IT8IMpOZwN_9MQMlR_QI-20" value="" style="rounded=0;whiteSpace=wrap;html=1;strokeColor=#b85450;align=center;verticalAlign=middle;fontFamily=Helvetica;fontSize=12;fillColor=#f8cecc;opacity=60;" vertex="1" parent="1">
          <mxGeometry x="499.82" y="215" width="40.18" height="35" as="geometry" />
        </mxCell>
        <mxCell id="IT8IMpOZwN_9MQMlR_QI-21" value="" style="endArrow=none;html=1;rounded=0;fontFamily=Helvetica;fontSize=12;fontColor=default;exitX=0.25;exitY=0;exitDx=0;exitDy=0;" edge="1" parent="1" source="IT8IMpOZwN_9MQMlR_QI-20" target="IT8IMpOZwN_9MQMlR_QI-19">
          <mxGeometry width="50" height="50" relative="1" as="geometry">
            <mxPoint x="339.82" y="480" as="sourcePoint" />
            <mxPoint x="389.82" y="290" as="targetPoint" />
          </mxGeometry>
        </mxCell>
        <mxCell id="IT8IMpOZwN_9MQMlR_QI-67" value="" style="group" vertex="1" connectable="0" parent="1">
          <mxGeometry x="718" y="185" width="252" height="65" as="geometry" />
        </mxCell>
        <mxCell id="IT8IMpOZwN_9MQMlR_QI-65" value="" style="rounded=0;whiteSpace=wrap;html=1;strokeColor=#b85450;align=center;verticalAlign=middle;fontFamily=Helvetica;fontSize=12;fillColor=#f8cecc;opacity=60;movable=1;resizable=1;rotatable=1;deletable=1;editable=1;locked=0;connectable=1;" vertex="1" parent="IT8IMpOZwN_9MQMlR_QI-67">
          <mxGeometry x="210" y="29.819999999999993" width="40.18" height="35" as="geometry" />
        </mxCell>
        <mxCell id="IT8IMpOZwN_9MQMlR_QI-50" value="" style="group;movable=1;resizable=1;rotatable=1;deletable=1;editable=1;locked=0;connectable=1;" vertex="1" connectable="0" parent="IT8IMpOZwN_9MQMlR_QI-67">
          <mxGeometry width="252" height="65" as="geometry" />
        </mxCell>
        <mxCell id="IT8IMpOZwN_9MQMlR_QI-51" value="" style="endArrow=none;html=1;rounded=0;fontFamily=Helvetica;fontSize=12;fontColor=default;exitX=0.153;exitY=0;exitDx=0;exitDy=0;exitPerimeter=0;entryX=1;entryY=0;entryDx=0;entryDy=0;dashed=1;movable=1;resizable=1;rotatable=1;deletable=1;editable=1;locked=0;connectable=1;" edge="1" parent="IT8IMpOZwN_9MQMlR_QI-50">
          <mxGeometry width="50" height="50" relative="1" as="geometry">
            <mxPoint x="89.71754000000016" y="1" as="sourcePoint" />
            <mxPoint x="121.82" y="31" as="targetPoint" />
          </mxGeometry>
        </mxCell>
        <mxCell id="IT8IMpOZwN_9MQMlR_QI-52" value="" style="endArrow=none;html=1;rounded=0;fontFamily=Helvetica;fontSize=12;fontColor=default;exitX=0.153;exitY=0;exitDx=0;exitDy=0;exitPerimeter=0;entryX=1;entryY=0;entryDx=0;entryDy=0;dashed=1;movable=1;resizable=1;rotatable=1;deletable=1;editable=1;locked=0;connectable=1;" edge="1" parent="IT8IMpOZwN_9MQMlR_QI-50">
          <mxGeometry width="50" height="50" relative="1" as="geometry">
            <mxPoint x="43.717540000000156" as="sourcePoint" />
            <mxPoint x="75.82" y="30" as="targetPoint" />
          </mxGeometry>
        </mxCell>
        <mxCell id="IT8IMpOZwN_9MQMlR_QI-53" value="" style="shape=parallelogram;perimeter=parallelogramPerimeter;whiteSpace=wrap;html=1;fixedSize=1;points=[[0,0,0,0,0],[0,0.25,0,0,0],[0,0.5,0,0,0],[0,0.75,0,0,0],[0.12,1,0,0,2],[0.25,0,0,0,0],[0.25,1,0,0,0],[0.5,0,0,0,0],[0.5,1,0,0,0],[0.75,0,0,0,0],[0.75,1,0,0,0],[1,0,0,0,0],[1,0.25,0,0,0],[1,0.5,0,0,0],[1,0.75,0,0,0],[1,1,0,0,0]];direction=south;flipH=0;container=1;movable=1;resizable=1;rotatable=1;deletable=1;editable=1;locked=0;connectable=1;size=30;fillColor=#f8cecc;strokeColor=#b85450;" vertex="1" parent="IT8IMpOZwN_9MQMlR_QI-50">
          <mxGeometry width="29.82" height="65" as="geometry">
            <mxRectangle x="280" y="200" width="50" height="40" as="alternateBounds" />
          </mxGeometry>
        </mxCell>
        <mxCell id="IT8IMpOZwN_9MQMlR_QI-54" value="" style="shape=parallelogram;perimeter=parallelogramPerimeter;whiteSpace=wrap;html=1;fixedSize=1;points=[[0,0,0,0,0],[0,0.25,0,0,0],[0,0.5,0,0,0],[0,0.75,0,0,0],[0.12,1,0,0,2],[0.25,0,0,0,0],[0.25,1,0,0,0],[0.5,0,0,0,0],[0.5,1,0,0,0],[0.75,0,0,0,0],[0.75,1,0,0,0],[1,0,0,0,0],[1,0.25,0,0,0],[1,0.5,0,0,0],[1,0.75,0,0,0],[1,1,0,0,0]];direction=west;flipH=0;container=1;movable=1;resizable=1;rotatable=1;deletable=1;editable=1;locked=0;connectable=1;size=30;flipV=1;fillColor=#f8cecc;strokeColor=#b85450;" vertex="1" parent="IT8IMpOZwN_9MQMlR_QI-50">
          <mxGeometry width="209.82" height="29.82" as="geometry">
            <mxRectangle x="280" y="200" width="50" height="40" as="alternateBounds" />
          </mxGeometry>
        </mxCell>
        <mxCell id="IT8IMpOZwN_9MQMlR_QI-55" value="" style="rounded=0;whiteSpace=wrap;html=1;strokeColor=#b85450;align=center;verticalAlign=middle;fontFamily=Helvetica;fontSize=12;fillColor=#f8cecc;opacity=60;movable=1;resizable=1;rotatable=1;deletable=1;editable=1;locked=0;connectable=1;" vertex="1" parent="IT8IMpOZwN_9MQMlR_QI-50">
          <mxGeometry x="29.819999999999993" y="30" width="180" height="35" as="geometry" />
        </mxCell>
        <mxCell id="IT8IMpOZwN_9MQMlR_QI-56" value="" style="endArrow=none;html=1;rounded=0;fontFamily=Helvetica;fontSize=12;fontColor=default;exitX=0.25;exitY=0;exitDx=0;exitDy=0;movable=1;resizable=1;rotatable=1;deletable=1;editable=1;locked=0;connectable=1;" edge="1" parent="IT8IMpOZwN_9MQMlR_QI-50" source="IT8IMpOZwN_9MQMlR_QI-55" target="IT8IMpOZwN_9MQMlR_QI-54">
          <mxGeometry width="50" height="50" relative="1" as="geometry">
            <mxPoint x="-130.18" y="295" as="sourcePoint" />
            <mxPoint x="-80.18" y="105" as="targetPoint" />
          </mxGeometry>
        </mxCell>
        <mxCell id="IT8IMpOZwN_9MQMlR_QI-57" style="edgeStyle=orthogonalEdgeStyle;rounded=0;orthogonalLoop=1;jettySize=auto;html=1;exitX=0.5;exitY=1;exitDx=0;exitDy=0;fontFamily=Helvetica;fontSize=12;fontColor=default;movable=1;resizable=1;rotatable=1;deletable=1;editable=1;locked=0;connectable=1;" edge="1" parent="IT8IMpOZwN_9MQMlR_QI-50" source="IT8IMpOZwN_9MQMlR_QI-55" target="IT8IMpOZwN_9MQMlR_QI-55">
          <mxGeometry relative="1" as="geometry" />
        </mxCell>
        <mxCell id="IT8IMpOZwN_9MQMlR_QI-58" value="" style="endArrow=none;html=1;rounded=0;fontFamily=Helvetica;fontSize=12;fontColor=default;entryX=0.25;entryY=0;entryDx=0;entryDy=0;exitX=0.25;exitY=1;exitDx=0;exitDy=0;dashed=1;movable=1;resizable=1;rotatable=1;deletable=1;editable=1;locked=0;connectable=1;" edge="1" parent="IT8IMpOZwN_9MQMlR_QI-50" source="IT8IMpOZwN_9MQMlR_QI-55" target="IT8IMpOZwN_9MQMlR_QI-55">
          <mxGeometry width="50" height="50" relative="1" as="geometry">
            <mxPoint x="-20.180000000000007" y="235" as="sourcePoint" />
            <mxPoint x="29.819999999999993" y="185" as="targetPoint" />
          </mxGeometry>
        </mxCell>
        <mxCell id="IT8IMpOZwN_9MQMlR_QI-59" value="" style="endArrow=none;html=1;rounded=0;fontFamily=Helvetica;fontSize=12;fontColor=default;entryX=0.5;entryY=0;entryDx=0;entryDy=0;exitX=0.5;exitY=1;exitDx=0;exitDy=0;dashed=1;movable=1;resizable=1;rotatable=1;deletable=1;editable=1;locked=0;connectable=1;" edge="1" parent="IT8IMpOZwN_9MQMlR_QI-50" source="IT8IMpOZwN_9MQMlR_QI-55" target="IT8IMpOZwN_9MQMlR_QI-55">
          <mxGeometry width="50" height="50" relative="1" as="geometry">
            <mxPoint x="69.82" y="215" as="sourcePoint" />
            <mxPoint x="119.82" y="165" as="targetPoint" />
          </mxGeometry>
        </mxCell>
        <mxCell id="IT8IMpOZwN_9MQMlR_QI-60" value="" style="endArrow=none;html=1;rounded=0;fontFamily=Helvetica;fontSize=12;fontColor=default;entryX=0.75;entryY=0;entryDx=0;entryDy=0;exitX=0.75;exitY=1;exitDx=0;exitDy=0;dashed=1;movable=1;resizable=1;rotatable=1;deletable=1;editable=1;locked=0;connectable=1;" edge="1" parent="IT8IMpOZwN_9MQMlR_QI-50" source="IT8IMpOZwN_9MQMlR_QI-55" target="IT8IMpOZwN_9MQMlR_QI-55">
          <mxGeometry width="50" height="50" relative="1" as="geometry">
            <mxPoint x="199.82" y="175" as="sourcePoint" />
            <mxPoint x="249.82" y="125" as="targetPoint" />
          </mxGeometry>
        </mxCell>
        <mxCell id="IT8IMpOZwN_9MQMlR_QI-61" value="" style="endArrow=none;html=1;rounded=0;fontFamily=Helvetica;fontSize=12;fontColor=default;entryX=0.143;entryY=0;entryDx=0;entryDy=0;entryPerimeter=0;exitX=1;exitY=0;exitDx=0;exitDy=0;dashed=1;movable=1;resizable=1;rotatable=1;deletable=1;editable=1;locked=0;connectable=1;" edge="1" parent="IT8IMpOZwN_9MQMlR_QI-50">
          <mxGeometry width="50" height="50" relative="1" as="geometry">
            <mxPoint x="165.82" y="30" as="sourcePoint" />
            <mxPoint x="135.8157400000003" as="targetPoint" />
          </mxGeometry>
        </mxCell>
        <mxCell id="IT8IMpOZwN_9MQMlR_QI-62" value="" style="endArrow=none;html=1;rounded=0;fontFamily=Helvetica;fontSize=12;fontColor=default;entryX=0.143;entryY=0;entryDx=0;entryDy=0;entryPerimeter=0;exitX=1;exitY=0;exitDx=0;exitDy=0;dashed=1;movable=1;resizable=1;rotatable=1;deletable=1;editable=1;locked=0;connectable=1;" edge="1" parent="IT8IMpOZwN_9MQMlR_QI-50">
          <mxGeometry width="50" height="50" relative="1" as="geometry">
            <mxPoint x="120.82" y="30" as="sourcePoint" />
            <mxPoint x="90.81574000000029" as="targetPoint" />
          </mxGeometry>
        </mxCell>
        <mxCell id="IT8IMpOZwN_9MQMlR_QI-63" value="" style="endArrow=none;html=1;rounded=0;fontFamily=Helvetica;fontSize=12;fontColor=default;entryX=0.143;entryY=0;entryDx=0;entryDy=0;entryPerimeter=0;exitX=1;exitY=0;exitDx=0;exitDy=0;dashed=1;movable=1;resizable=1;rotatable=1;deletable=1;editable=1;locked=0;connectable=1;" edge="1" parent="IT8IMpOZwN_9MQMlR_QI-50">
          <mxGeometry width="50" height="50" relative="1" as="geometry">
            <mxPoint x="75.82" y="30" as="sourcePoint" />
            <mxPoint x="45.81574000000029" as="targetPoint" />
          </mxGeometry>
        </mxCell>
        <mxCell id="IT8IMpOZwN_9MQMlR_QI-66" value="" style="shape=parallelogram;perimeter=parallelogramPerimeter;whiteSpace=wrap;html=1;fixedSize=1;points=[[0,0,0,0,0],[0,0.25,0,0,0],[0,0.5,0,0,0],[0,0.75,0,0,0],[0.12,1,0,0,2],[0.25,0,0,0,0],[0.25,1,0,0,0],[0.5,0,0,0,0],[0.5,1,0,0,0],[0.75,0,0,0,0],[0.75,1,0,0,0],[1,0,0,0,0],[1,0.25,0,0,0],[1,0.5,0,0,0],[1,0.75,0,0,0],[1,1,0,0,0]];direction=west;flipH=0;container=1;movable=1;resizable=1;rotatable=1;deletable=1;editable=1;locked=0;connectable=1;size=30;flipV=1;fillColor=#f8cecc;strokeColor=#b85450;" vertex="1" parent="IT8IMpOZwN_9MQMlR_QI-50">
          <mxGeometry x="180" width="70" height="29.82" as="geometry">
            <mxRectangle x="280" y="200" width="50" height="40" as="alternateBounds" />
          </mxGeometry>
        </mxCell>
        <mxCell id="IT8IMpOZwN_9MQMlR_QI-68" value="" style="group" vertex="1" connectable="0" parent="1">
          <mxGeometry x="721" y="254" width="252" height="65" as="geometry" />
        </mxCell>
        <mxCell id="IT8IMpOZwN_9MQMlR_QI-69" value="" style="rounded=0;whiteSpace=wrap;html=1;strokeColor=#d6b656;align=center;verticalAlign=middle;fontFamily=Helvetica;fontSize=12;fillColor=#fff2cc;opacity=60;movable=1;resizable=1;rotatable=1;deletable=1;editable=1;locked=0;connectable=1;" vertex="1" parent="IT8IMpOZwN_9MQMlR_QI-68">
          <mxGeometry x="210" y="29.819999999999993" width="40.18" height="35" as="geometry" />
        </mxCell>
        <mxCell id="IT8IMpOZwN_9MQMlR_QI-70" value="" style="group;movable=1;resizable=1;rotatable=1;deletable=1;editable=1;locked=0;connectable=1;" vertex="1" connectable="0" parent="IT8IMpOZwN_9MQMlR_QI-68">
          <mxGeometry width="252" height="65" as="geometry" />
        </mxCell>
        <mxCell id="IT8IMpOZwN_9MQMlR_QI-71" value="" style="endArrow=none;html=1;rounded=0;fontFamily=Helvetica;fontSize=12;fontColor=default;exitX=0.153;exitY=0;exitDx=0;exitDy=0;exitPerimeter=0;entryX=1;entryY=0;entryDx=0;entryDy=0;dashed=1;movable=1;resizable=1;rotatable=1;deletable=1;editable=1;locked=0;connectable=1;" edge="1" parent="IT8IMpOZwN_9MQMlR_QI-70">
          <mxGeometry width="50" height="50" relative="1" as="geometry">
            <mxPoint x="89.71754000000016" y="1" as="sourcePoint" />
            <mxPoint x="121.82" y="31" as="targetPoint" />
          </mxGeometry>
        </mxCell>
        <mxCell id="IT8IMpOZwN_9MQMlR_QI-72" value="" style="endArrow=none;html=1;rounded=0;fontFamily=Helvetica;fontSize=12;fontColor=default;exitX=0.153;exitY=0;exitDx=0;exitDy=0;exitPerimeter=0;entryX=1;entryY=0;entryDx=0;entryDy=0;dashed=1;movable=1;resizable=1;rotatable=1;deletable=1;editable=1;locked=0;connectable=1;" edge="1" parent="IT8IMpOZwN_9MQMlR_QI-70">
          <mxGeometry width="50" height="50" relative="1" as="geometry">
            <mxPoint x="43.717540000000156" as="sourcePoint" />
            <mxPoint x="75.82" y="30" as="targetPoint" />
          </mxGeometry>
        </mxCell>
        <mxCell id="IT8IMpOZwN_9MQMlR_QI-73" value="" style="shape=parallelogram;perimeter=parallelogramPerimeter;whiteSpace=wrap;html=1;fixedSize=1;points=[[0,0,0,0,0],[0,0.25,0,0,0],[0,0.5,0,0,0],[0,0.75,0,0,0],[0.12,1,0,0,2],[0.25,0,0,0,0],[0.25,1,0,0,0],[0.5,0,0,0,0],[0.5,1,0,0,0],[0.75,0,0,0,0],[0.75,1,0,0,0],[1,0,0,0,0],[1,0.25,0,0,0],[1,0.5,0,0,0],[1,0.75,0,0,0],[1,1,0,0,0]];direction=south;flipH=0;container=1;movable=1;resizable=1;rotatable=1;deletable=1;editable=1;locked=0;connectable=1;size=30;fillColor=#fff2cc;strokeColor=#d6b656;" vertex="1" parent="IT8IMpOZwN_9MQMlR_QI-70">
          <mxGeometry width="29.82" height="65" as="geometry">
            <mxRectangle x="280" y="200" width="50" height="40" as="alternateBounds" />
          </mxGeometry>
        </mxCell>
        <mxCell id="IT8IMpOZwN_9MQMlR_QI-74" value="" style="shape=parallelogram;perimeter=parallelogramPerimeter;whiteSpace=wrap;html=1;fixedSize=1;points=[[0,0,0,0,0],[0,0.25,0,0,0],[0,0.5,0,0,0],[0,0.75,0,0,0],[0.12,1,0,0,2],[0.25,0,0,0,0],[0.25,1,0,0,0],[0.5,0,0,0,0],[0.5,1,0,0,0],[0.75,0,0,0,0],[0.75,1,0,0,0],[1,0,0,0,0],[1,0.25,0,0,0],[1,0.5,0,0,0],[1,0.75,0,0,0],[1,1,0,0,0]];direction=west;flipH=0;container=1;movable=1;resizable=1;rotatable=1;deletable=1;editable=1;locked=0;connectable=1;size=30;flipV=1;fillColor=#fff2cc;strokeColor=#d6b656;" vertex="1" parent="IT8IMpOZwN_9MQMlR_QI-70">
          <mxGeometry width="209.82" height="29.82" as="geometry">
            <mxRectangle x="280" y="200" width="50" height="40" as="alternateBounds" />
          </mxGeometry>
        </mxCell>
        <mxCell id="IT8IMpOZwN_9MQMlR_QI-75" value="" style="rounded=0;whiteSpace=wrap;html=1;strokeColor=#d6b656;align=center;verticalAlign=middle;fontFamily=Helvetica;fontSize=12;fillColor=#fff2cc;opacity=60;movable=1;resizable=1;rotatable=1;deletable=1;editable=1;locked=0;connectable=1;" vertex="1" parent="IT8IMpOZwN_9MQMlR_QI-70">
          <mxGeometry x="29.819999999999993" y="30" width="180" height="35" as="geometry" />
        </mxCell>
        <mxCell id="IT8IMpOZwN_9MQMlR_QI-76" value="" style="endArrow=none;html=1;rounded=0;fontFamily=Helvetica;fontSize=12;fontColor=default;exitX=0.25;exitY=0;exitDx=0;exitDy=0;movable=1;resizable=1;rotatable=1;deletable=1;editable=1;locked=0;connectable=1;" edge="1" parent="IT8IMpOZwN_9MQMlR_QI-70" source="IT8IMpOZwN_9MQMlR_QI-75" target="IT8IMpOZwN_9MQMlR_QI-74">
          <mxGeometry width="50" height="50" relative="1" as="geometry">
            <mxPoint x="-130.18" y="295" as="sourcePoint" />
            <mxPoint x="-80.18" y="105" as="targetPoint" />
          </mxGeometry>
        </mxCell>
        <mxCell id="IT8IMpOZwN_9MQMlR_QI-77" style="edgeStyle=orthogonalEdgeStyle;rounded=0;orthogonalLoop=1;jettySize=auto;html=1;exitX=0.5;exitY=1;exitDx=0;exitDy=0;fontFamily=Helvetica;fontSize=12;fontColor=default;movable=1;resizable=1;rotatable=1;deletable=1;editable=1;locked=0;connectable=1;" edge="1" parent="IT8IMpOZwN_9MQMlR_QI-70" source="IT8IMpOZwN_9MQMlR_QI-75" target="IT8IMpOZwN_9MQMlR_QI-75">
          <mxGeometry relative="1" as="geometry" />
        </mxCell>
        <mxCell id="IT8IMpOZwN_9MQMlR_QI-78" value="" style="endArrow=none;html=1;rounded=0;fontFamily=Helvetica;fontSize=12;fontColor=default;entryX=0.25;entryY=0;entryDx=0;entryDy=0;exitX=0.25;exitY=1;exitDx=0;exitDy=0;dashed=1;movable=1;resizable=1;rotatable=1;deletable=1;editable=1;locked=0;connectable=1;" edge="1" parent="IT8IMpOZwN_9MQMlR_QI-70" source="IT8IMpOZwN_9MQMlR_QI-75" target="IT8IMpOZwN_9MQMlR_QI-75">
          <mxGeometry width="50" height="50" relative="1" as="geometry">
            <mxPoint x="-20.180000000000007" y="235" as="sourcePoint" />
            <mxPoint x="29.819999999999993" y="185" as="targetPoint" />
          </mxGeometry>
        </mxCell>
        <mxCell id="IT8IMpOZwN_9MQMlR_QI-79" value="" style="endArrow=none;html=1;rounded=0;fontFamily=Helvetica;fontSize=12;fontColor=default;entryX=0.5;entryY=0;entryDx=0;entryDy=0;exitX=0.5;exitY=1;exitDx=0;exitDy=0;dashed=1;movable=1;resizable=1;rotatable=1;deletable=1;editable=1;locked=0;connectable=1;" edge="1" parent="IT8IMpOZwN_9MQMlR_QI-70" source="IT8IMpOZwN_9MQMlR_QI-75" target="IT8IMpOZwN_9MQMlR_QI-75">
          <mxGeometry width="50" height="50" relative="1" as="geometry">
            <mxPoint x="69.82" y="215" as="sourcePoint" />
            <mxPoint x="119.82" y="165" as="targetPoint" />
          </mxGeometry>
        </mxCell>
        <mxCell id="IT8IMpOZwN_9MQMlR_QI-80" value="" style="endArrow=none;html=1;rounded=0;fontFamily=Helvetica;fontSize=12;fontColor=default;entryX=0.75;entryY=0;entryDx=0;entryDy=0;exitX=0.75;exitY=1;exitDx=0;exitDy=0;dashed=1;movable=1;resizable=1;rotatable=1;deletable=1;editable=1;locked=0;connectable=1;" edge="1" parent="IT8IMpOZwN_9MQMlR_QI-70" source="IT8IMpOZwN_9MQMlR_QI-75" target="IT8IMpOZwN_9MQMlR_QI-75">
          <mxGeometry width="50" height="50" relative="1" as="geometry">
            <mxPoint x="199.82" y="175" as="sourcePoint" />
            <mxPoint x="249.82" y="125" as="targetPoint" />
          </mxGeometry>
        </mxCell>
        <mxCell id="IT8IMpOZwN_9MQMlR_QI-81" value="" style="endArrow=none;html=1;rounded=0;fontFamily=Helvetica;fontSize=12;fontColor=default;entryX=0.143;entryY=0;entryDx=0;entryDy=0;entryPerimeter=0;exitX=1;exitY=0;exitDx=0;exitDy=0;dashed=1;movable=1;resizable=1;rotatable=1;deletable=1;editable=1;locked=0;connectable=1;" edge="1" parent="IT8IMpOZwN_9MQMlR_QI-70">
          <mxGeometry width="50" height="50" relative="1" as="geometry">
            <mxPoint x="165.82" y="30" as="sourcePoint" />
            <mxPoint x="135.8157400000003" as="targetPoint" />
          </mxGeometry>
        </mxCell>
        <mxCell id="IT8IMpOZwN_9MQMlR_QI-82" value="" style="endArrow=none;html=1;rounded=0;fontFamily=Helvetica;fontSize=12;fontColor=default;entryX=0.143;entryY=0;entryDx=0;entryDy=0;entryPerimeter=0;exitX=1;exitY=0;exitDx=0;exitDy=0;dashed=1;movable=1;resizable=1;rotatable=1;deletable=1;editable=1;locked=0;connectable=1;" edge="1" parent="IT8IMpOZwN_9MQMlR_QI-70">
          <mxGeometry width="50" height="50" relative="1" as="geometry">
            <mxPoint x="120.82" y="30" as="sourcePoint" />
            <mxPoint x="90.81574000000029" as="targetPoint" />
          </mxGeometry>
        </mxCell>
        <mxCell id="IT8IMpOZwN_9MQMlR_QI-83" value="" style="endArrow=none;html=1;rounded=0;fontFamily=Helvetica;fontSize=12;fontColor=default;entryX=0.143;entryY=0;entryDx=0;entryDy=0;entryPerimeter=0;exitX=1;exitY=0;exitDx=0;exitDy=0;dashed=1;movable=1;resizable=1;rotatable=1;deletable=1;editable=1;locked=0;connectable=1;" edge="1" parent="IT8IMpOZwN_9MQMlR_QI-70">
          <mxGeometry width="50" height="50" relative="1" as="geometry">
            <mxPoint x="75.82" y="30" as="sourcePoint" />
            <mxPoint x="45.81574000000029" as="targetPoint" />
          </mxGeometry>
        </mxCell>
        <mxCell id="IT8IMpOZwN_9MQMlR_QI-84" value="" style="shape=parallelogram;perimeter=parallelogramPerimeter;whiteSpace=wrap;html=1;fixedSize=1;points=[[0,0,0,0,0],[0,0.25,0,0,0],[0,0.5,0,0,0],[0,0.75,0,0,0],[0.12,1,0,0,2],[0.25,0,0,0,0],[0.25,1,0,0,0],[0.5,0,0,0,0],[0.5,1,0,0,0],[0.75,0,0,0,0],[0.75,1,0,0,0],[1,0,0,0,0],[1,0.25,0,0,0],[1,0.5,0,0,0],[1,0.75,0,0,0],[1,1,0,0,0]];direction=west;flipH=0;container=1;movable=1;resizable=1;rotatable=1;deletable=1;editable=1;locked=0;connectable=1;size=30;flipV=1;fillColor=#fff2cc;strokeColor=#d6b656;" vertex="1" parent="IT8IMpOZwN_9MQMlR_QI-70">
          <mxGeometry x="180" width="70" height="29.82" as="geometry">
            <mxRectangle x="280" y="200" width="50" height="40" as="alternateBounds" />
          </mxGeometry>
        </mxCell>
        <mxCell id="IT8IMpOZwN_9MQMlR_QI-86" value="" style="group" vertex="1" connectable="0" parent="1">
          <mxGeometry x="720" y="324" width="252" height="65" as="geometry" />
        </mxCell>
        <mxCell id="IT8IMpOZwN_9MQMlR_QI-87" value="" style="rounded=0;whiteSpace=wrap;html=1;strokeColor=#6c8ebf;align=center;verticalAlign=middle;fontFamily=Helvetica;fontSize=12;fillColor=#dae8fc;opacity=60;movable=1;resizable=1;rotatable=1;deletable=1;editable=1;locked=0;connectable=1;" vertex="1" parent="IT8IMpOZwN_9MQMlR_QI-86">
          <mxGeometry x="210" y="29.819999999999993" width="40.18" height="35" as="geometry" />
        </mxCell>
        <mxCell id="IT8IMpOZwN_9MQMlR_QI-88" value="" style="group;movable=1;resizable=1;rotatable=1;deletable=1;editable=1;locked=0;connectable=1;" vertex="1" connectable="0" parent="IT8IMpOZwN_9MQMlR_QI-86">
          <mxGeometry width="252" height="65" as="geometry" />
        </mxCell>
        <mxCell id="IT8IMpOZwN_9MQMlR_QI-89" value="" style="endArrow=none;html=1;rounded=0;fontFamily=Helvetica;fontSize=12;fontColor=default;exitX=0.153;exitY=0;exitDx=0;exitDy=0;exitPerimeter=0;entryX=1;entryY=0;entryDx=0;entryDy=0;dashed=1;movable=1;resizable=1;rotatable=1;deletable=1;editable=1;locked=0;connectable=1;" edge="1" parent="IT8IMpOZwN_9MQMlR_QI-88">
          <mxGeometry width="50" height="50" relative="1" as="geometry">
            <mxPoint x="89.71754000000016" y="1" as="sourcePoint" />
            <mxPoint x="121.82" y="31" as="targetPoint" />
          </mxGeometry>
        </mxCell>
        <mxCell id="IT8IMpOZwN_9MQMlR_QI-90" value="" style="endArrow=none;html=1;rounded=0;fontFamily=Helvetica;fontSize=12;fontColor=default;exitX=0.153;exitY=0;exitDx=0;exitDy=0;exitPerimeter=0;entryX=1;entryY=0;entryDx=0;entryDy=0;dashed=1;movable=1;resizable=1;rotatable=1;deletable=1;editable=1;locked=0;connectable=1;" edge="1" parent="IT8IMpOZwN_9MQMlR_QI-88">
          <mxGeometry width="50" height="50" relative="1" as="geometry">
            <mxPoint x="43.717540000000156" as="sourcePoint" />
            <mxPoint x="75.82" y="30" as="targetPoint" />
          </mxGeometry>
        </mxCell>
        <mxCell id="IT8IMpOZwN_9MQMlR_QI-91" value="" style="shape=parallelogram;perimeter=parallelogramPerimeter;whiteSpace=wrap;html=1;fixedSize=1;points=[[0,0,0,0,0],[0,0.25,0,0,0],[0,0.5,0,0,0],[0,0.75,0,0,0],[0.12,1,0,0,2],[0.25,0,0,0,0],[0.25,1,0,0,0],[0.5,0,0,0,0],[0.5,1,0,0,0],[0.75,0,0,0,0],[0.75,1,0,0,0],[1,0,0,0,0],[1,0.25,0,0,0],[1,0.5,0,0,0],[1,0.75,0,0,0],[1,1,0,0,0]];direction=south;flipH=0;container=1;movable=1;resizable=1;rotatable=1;deletable=1;editable=1;locked=0;connectable=1;size=30;fillColor=#dae8fc;strokeColor=#6c8ebf;" vertex="1" parent="IT8IMpOZwN_9MQMlR_QI-88">
          <mxGeometry width="29.82" height="65" as="geometry">
            <mxRectangle x="280" y="200" width="50" height="40" as="alternateBounds" />
          </mxGeometry>
        </mxCell>
        <mxCell id="IT8IMpOZwN_9MQMlR_QI-92" value="" style="shape=parallelogram;perimeter=parallelogramPerimeter;whiteSpace=wrap;html=1;fixedSize=1;points=[[0,0,0,0,0],[0,0.25,0,0,0],[0,0.5,0,0,0],[0,0.75,0,0,0],[0.12,1,0,0,2],[0.25,0,0,0,0],[0.25,1,0,0,0],[0.5,0,0,0,0],[0.5,1,0,0,0],[0.75,0,0,0,0],[0.75,1,0,0,0],[1,0,0,0,0],[1,0.25,0,0,0],[1,0.5,0,0,0],[1,0.75,0,0,0],[1,1,0,0,0]];direction=west;flipH=0;container=1;movable=1;resizable=1;rotatable=1;deletable=1;editable=1;locked=0;connectable=1;size=30;flipV=1;fillColor=#dae8fc;strokeColor=#6c8ebf;" vertex="1" parent="IT8IMpOZwN_9MQMlR_QI-88">
          <mxGeometry width="209.82" height="29.82" as="geometry">
            <mxRectangle x="280" y="200" width="50" height="40" as="alternateBounds" />
          </mxGeometry>
        </mxCell>
        <mxCell id="IT8IMpOZwN_9MQMlR_QI-93" value="" style="rounded=0;whiteSpace=wrap;html=1;strokeColor=#6c8ebf;align=center;verticalAlign=middle;fontFamily=Helvetica;fontSize=12;fillColor=#dae8fc;opacity=60;movable=1;resizable=1;rotatable=1;deletable=1;editable=1;locked=0;connectable=1;" vertex="1" parent="IT8IMpOZwN_9MQMlR_QI-88">
          <mxGeometry x="29.819999999999993" y="30" width="180" height="35" as="geometry" />
        </mxCell>
        <mxCell id="IT8IMpOZwN_9MQMlR_QI-94" value="" style="endArrow=none;html=1;rounded=0;fontFamily=Helvetica;fontSize=12;fontColor=default;exitX=0.25;exitY=0;exitDx=0;exitDy=0;movable=1;resizable=1;rotatable=1;deletable=1;editable=1;locked=0;connectable=1;fillColor=#dae8fc;strokeColor=#6c8ebf;" edge="1" parent="IT8IMpOZwN_9MQMlR_QI-88" source="IT8IMpOZwN_9MQMlR_QI-93" target="IT8IMpOZwN_9MQMlR_QI-92">
          <mxGeometry width="50" height="50" relative="1" as="geometry">
            <mxPoint x="-130.18" y="295" as="sourcePoint" />
            <mxPoint x="-80.18" y="105" as="targetPoint" />
          </mxGeometry>
        </mxCell>
        <mxCell id="IT8IMpOZwN_9MQMlR_QI-95" style="edgeStyle=orthogonalEdgeStyle;rounded=0;orthogonalLoop=1;jettySize=auto;html=1;exitX=0.5;exitY=1;exitDx=0;exitDy=0;fontFamily=Helvetica;fontSize=12;fontColor=default;movable=1;resizable=1;rotatable=1;deletable=1;editable=1;locked=0;connectable=1;fillColor=#dae8fc;strokeColor=#6c8ebf;" edge="1" parent="IT8IMpOZwN_9MQMlR_QI-88" source="IT8IMpOZwN_9MQMlR_QI-93" target="IT8IMpOZwN_9MQMlR_QI-93">
          <mxGeometry relative="1" as="geometry" />
        </mxCell>
        <mxCell id="IT8IMpOZwN_9MQMlR_QI-96" value="" style="endArrow=none;html=1;rounded=0;fontFamily=Helvetica;fontSize=12;fontColor=default;entryX=0.25;entryY=0;entryDx=0;entryDy=0;exitX=0.25;exitY=1;exitDx=0;exitDy=0;dashed=1;movable=1;resizable=1;rotatable=1;deletable=1;editable=1;locked=0;connectable=1;fillColor=#dae8fc;strokeColor=#6c8ebf;" edge="1" parent="IT8IMpOZwN_9MQMlR_QI-88" source="IT8IMpOZwN_9MQMlR_QI-93" target="IT8IMpOZwN_9MQMlR_QI-93">
          <mxGeometry width="50" height="50" relative="1" as="geometry">
            <mxPoint x="-20.180000000000007" y="235" as="sourcePoint" />
            <mxPoint x="29.819999999999993" y="185" as="targetPoint" />
          </mxGeometry>
        </mxCell>
        <mxCell id="IT8IMpOZwN_9MQMlR_QI-97" value="" style="endArrow=none;html=1;rounded=0;fontFamily=Helvetica;fontSize=12;fontColor=default;entryX=0.5;entryY=0;entryDx=0;entryDy=0;exitX=0.5;exitY=1;exitDx=0;exitDy=0;dashed=1;movable=1;resizable=1;rotatable=1;deletable=1;editable=1;locked=0;connectable=1;fillColor=#dae8fc;strokeColor=#6c8ebf;" edge="1" parent="IT8IMpOZwN_9MQMlR_QI-88" source="IT8IMpOZwN_9MQMlR_QI-93" target="IT8IMpOZwN_9MQMlR_QI-93">
          <mxGeometry width="50" height="50" relative="1" as="geometry">
            <mxPoint x="69.82" y="215" as="sourcePoint" />
            <mxPoint x="119.82" y="165" as="targetPoint" />
          </mxGeometry>
        </mxCell>
        <mxCell id="IT8IMpOZwN_9MQMlR_QI-98" value="" style="endArrow=none;html=1;rounded=0;fontFamily=Helvetica;fontSize=12;fontColor=default;entryX=0.75;entryY=0;entryDx=0;entryDy=0;exitX=0.75;exitY=1;exitDx=0;exitDy=0;dashed=1;movable=1;resizable=1;rotatable=1;deletable=1;editable=1;locked=0;connectable=1;fillColor=#dae8fc;strokeColor=#6c8ebf;" edge="1" parent="IT8IMpOZwN_9MQMlR_QI-88" source="IT8IMpOZwN_9MQMlR_QI-93" target="IT8IMpOZwN_9MQMlR_QI-93">
          <mxGeometry width="50" height="50" relative="1" as="geometry">
            <mxPoint x="199.82" y="175" as="sourcePoint" />
            <mxPoint x="249.82" y="125" as="targetPoint" />
          </mxGeometry>
        </mxCell>
        <mxCell id="IT8IMpOZwN_9MQMlR_QI-99" value="" style="endArrow=none;html=1;rounded=0;fontFamily=Helvetica;fontSize=12;fontColor=default;entryX=0.143;entryY=0;entryDx=0;entryDy=0;entryPerimeter=0;exitX=1;exitY=0;exitDx=0;exitDy=0;dashed=1;movable=1;resizable=1;rotatable=1;deletable=1;editable=1;locked=0;connectable=1;" edge="1" parent="IT8IMpOZwN_9MQMlR_QI-88">
          <mxGeometry width="50" height="50" relative="1" as="geometry">
            <mxPoint x="165.82" y="30" as="sourcePoint" />
            <mxPoint x="135.8157400000003" as="targetPoint" />
          </mxGeometry>
        </mxCell>
        <mxCell id="IT8IMpOZwN_9MQMlR_QI-100" value="" style="endArrow=none;html=1;rounded=0;fontFamily=Helvetica;fontSize=12;fontColor=default;entryX=0.143;entryY=0;entryDx=0;entryDy=0;entryPerimeter=0;exitX=1;exitY=0;exitDx=0;exitDy=0;dashed=1;movable=1;resizable=1;rotatable=1;deletable=1;editable=1;locked=0;connectable=1;" edge="1" parent="IT8IMpOZwN_9MQMlR_QI-88">
          <mxGeometry width="50" height="50" relative="1" as="geometry">
            <mxPoint x="120.82" y="30" as="sourcePoint" />
            <mxPoint x="90.81574000000029" as="targetPoint" />
          </mxGeometry>
        </mxCell>
        <mxCell id="IT8IMpOZwN_9MQMlR_QI-101" value="" style="endArrow=none;html=1;rounded=0;fontFamily=Helvetica;fontSize=12;fontColor=default;entryX=0.143;entryY=0;entryDx=0;entryDy=0;entryPerimeter=0;exitX=1;exitY=0;exitDx=0;exitDy=0;dashed=1;movable=1;resizable=1;rotatable=1;deletable=1;editable=1;locked=0;connectable=1;" edge="1" parent="IT8IMpOZwN_9MQMlR_QI-88">
          <mxGeometry width="50" height="50" relative="1" as="geometry">
            <mxPoint x="75.82" y="30" as="sourcePoint" />
            <mxPoint x="45.81574000000029" as="targetPoint" />
          </mxGeometry>
        </mxCell>
        <mxCell id="IT8IMpOZwN_9MQMlR_QI-102" value="" style="shape=parallelogram;perimeter=parallelogramPerimeter;whiteSpace=wrap;html=1;fixedSize=1;points=[[0,0,0,0,0],[0,0.25,0,0,0],[0,0.5,0,0,0],[0,0.75,0,0,0],[0.12,1,0,0,2],[0.25,0,0,0,0],[0.25,1,0,0,0],[0.5,0,0,0,0],[0.5,1,0,0,0],[0.75,0,0,0,0],[0.75,1,0,0,0],[1,0,0,0,0],[1,0.25,0,0,0],[1,0.5,0,0,0],[1,0.75,0,0,0],[1,1,0,0,0]];direction=west;flipH=0;container=1;movable=1;resizable=1;rotatable=1;deletable=1;editable=1;locked=0;connectable=1;size=30;flipV=1;fillColor=#dae8fc;strokeColor=#6c8ebf;" vertex="1" parent="IT8IMpOZwN_9MQMlR_QI-88">
          <mxGeometry x="180" width="70" height="29.82" as="geometry">
            <mxRectangle x="280" y="200" width="50" height="40" as="alternateBounds" />
          </mxGeometry>
        </mxCell>
        <mxCell id="IT8IMpOZwN_9MQMlR_QI-103" value="IAtten" style="rounded=1;whiteSpace=wrap;html=1;strokeColor=#2D7600;align=center;verticalAlign=middle;fontFamily=Helvetica;fontSize=12;fillColor=#60a917;movable=1;resizable=1;rotatable=1;deletable=1;editable=1;locked=0;connectable=1;fontColor=#ffffff;" vertex="1" parent="1">
          <mxGeometry x="1000" y="215.82" width="40.18" height="35" as="geometry" />
        </mxCell>
        <mxCell id="IT8IMpOZwN_9MQMlR_QI-104" value="IAtten" style="rounded=1;whiteSpace=wrap;html=1;strokeColor=#2D7600;align=center;verticalAlign=middle;fontFamily=Helvetica;fontSize=12;fillColor=#60a917;movable=1;resizable=1;rotatable=1;deletable=1;editable=1;locked=0;connectable=1;fontColor=#ffffff;" vertex="1" parent="1">
          <mxGeometry x="1000" y="284" width="40.18" height="35" as="geometry" />
        </mxCell>
        <mxCell id="IT8IMpOZwN_9MQMlR_QI-105" value="IAtten" style="rounded=1;whiteSpace=wrap;html=1;strokeColor=#2D7600;align=center;verticalAlign=middle;fontFamily=Helvetica;fontSize=12;fillColor=#60a917;movable=1;resizable=1;rotatable=1;deletable=1;editable=1;locked=0;connectable=1;fontColor=#ffffff;" vertex="1" parent="1">
          <mxGeometry x="1000" y="354" width="40.18" height="35" as="geometry" />
        </mxCell>
        <mxCell id="IT8IMpOZwN_9MQMlR_QI-106" value="" style="endArrow=classic;html=1;rounded=0;fontFamily=Helvetica;fontSize=12;fontColor=default;entryX=0;entryY=0.5;entryDx=0;entryDy=0;exitX=1;exitY=0.75;exitDx=0;exitDy=0;" edge="1" parent="1" source="IT8IMpOZwN_9MQMlR_QI-50" target="IT8IMpOZwN_9MQMlR_QI-103">
          <mxGeometry width="50" height="50" relative="1" as="geometry">
            <mxPoint x="980" y="232" as="sourcePoint" />
            <mxPoint x="790" y="520" as="targetPoint" />
          </mxGeometry>
        </mxCell>
        <mxCell id="IT8IMpOZwN_9MQMlR_QI-107" value="" style="endArrow=classic;html=1;rounded=0;fontFamily=Helvetica;fontSize=12;fontColor=default;entryX=0;entryY=0.5;entryDx=0;entryDy=0;exitX=1;exitY=0.75;exitDx=0;exitDy=0;" edge="1" parent="1">
          <mxGeometry width="50" height="50" relative="1" as="geometry">
            <mxPoint x="971" y="302" as="sourcePoint" />
            <mxPoint x="1001" y="301" as="targetPoint" />
          </mxGeometry>
        </mxCell>
        <mxCell id="IT8IMpOZwN_9MQMlR_QI-109" value="" style="endArrow=classic;html=1;rounded=0;fontFamily=Helvetica;fontSize=12;fontColor=default;entryX=0;entryY=0.5;entryDx=0;entryDy=0;exitX=1;exitY=0.75;exitDx=0;exitDy=0;" edge="1" parent="1">
          <mxGeometry width="50" height="50" relative="1" as="geometry">
            <mxPoint x="969" y="371" as="sourcePoint" />
            <mxPoint x="999" y="370" as="targetPoint" />
          </mxGeometry>
        </mxCell>
        <mxCell id="IT8IMpOZwN_9MQMlR_QI-113" value="In &amp;nbsp;Channel Attention Module" style="text;html=1;strokeColor=none;fillColor=none;align=center;verticalAlign=middle;whiteSpace=wrap;rounded=0;fontSize=18;fontFamily=Helvetica;fontColor=default;fontStyle=1" vertex="1" parent="1">
          <mxGeometry x="640" y="100" width="310" height="60" as="geometry" />
        </mxCell>
        <mxCell id="IT8IMpOZwN_9MQMlR_QI-122" value="" style="group" vertex="1" connectable="0" parent="1">
          <mxGeometry x="1378" y="213" width="70" height="135" as="geometry" />
        </mxCell>
        <mxCell id="IT8IMpOZwN_9MQMlR_QI-114" value="" style="rounded=0;whiteSpace=wrap;html=1;strokeColor=#6c8ebf;align=center;verticalAlign=middle;fontFamily=Helvetica;fontSize=12;fillColor=#dae8fc;opacity=60;" vertex="1" parent="IT8IMpOZwN_9MQMlR_QI-122">
          <mxGeometry x="29.819999999999936" y="100" width="40.18" height="35" as="geometry" />
        </mxCell>
        <mxCell id="IT8IMpOZwN_9MQMlR_QI-115" value="" style="shape=parallelogram;perimeter=parallelogramPerimeter;whiteSpace=wrap;html=1;fixedSize=1;points=[[0,0,0,0,0],[0,0.25,0,0,0],[0,0.5,0,0,0],[0,0.75,0,0,0],[0.12,1,0,0,2],[0.25,0,0,0,0],[0.25,1,0,0,0],[0.5,0,0,0,0],[0.5,1,0,0,0],[0.75,0,0,0,0],[0.75,1,0,0,0],[1,0,0,0,0],[1,0.25,0,0,0],[1,0.5,0,0,0],[1,0.75,0,0,0],[1,1,0,0,0]];direction=south;flipH=0;container=1;movable=1;resizable=1;rotatable=1;deletable=1;editable=1;locked=0;connectable=1;size=30;fillColor=#dae8fc;strokeColor=#6c8ebf;" vertex="1" parent="IT8IMpOZwN_9MQMlR_QI-122">
          <mxGeometry y="70" width="29.82" height="65" as="geometry">
            <mxRectangle x="280" y="200" width="50" height="40" as="alternateBounds" />
          </mxGeometry>
        </mxCell>
        <mxCell id="IT8IMpOZwN_9MQMlR_QI-116" value="" style="shape=parallelogram;perimeter=parallelogramPerimeter;whiteSpace=wrap;html=1;fixedSize=1;points=[[0,0,0,0,0],[0,0.25,0,0,0],[0,0.5,0,0,0],[0,0.75,0,0,0],[0.12,1,0,0,2],[0.25,0,0,0,0],[0.25,1,0,0,0],[0.5,0,0,0,0],[0.5,1,0,0,0],[0.75,0,0,0,0],[0.75,1,0,0,0],[1,0,0,0,0],[1,0.25,0,0,0],[1,0.5,0,0,0],[1,0.75,0,0,0],[1,1,0,0,0]];direction=south;flipH=0;container=1;movable=1;resizable=1;rotatable=1;deletable=1;editable=1;locked=0;connectable=1;size=30;fillColor=#fff2cc;strokeColor=#d6b656;" vertex="1" parent="IT8IMpOZwN_9MQMlR_QI-122">
          <mxGeometry y="35" width="29.82" height="65" as="geometry">
            <mxRectangle x="280" y="200" width="50" height="40" as="alternateBounds" />
          </mxGeometry>
        </mxCell>
        <mxCell id="IT8IMpOZwN_9MQMlR_QI-117" value="" style="rounded=0;whiteSpace=wrap;html=1;strokeColor=#d6b656;align=center;verticalAlign=middle;fontFamily=Helvetica;fontSize=12;fillColor=#fff2cc;opacity=60;" vertex="1" parent="IT8IMpOZwN_9MQMlR_QI-122">
          <mxGeometry x="29.819999999999936" y="65" width="40.18" height="35" as="geometry" />
        </mxCell>
        <mxCell id="IT8IMpOZwN_9MQMlR_QI-118" value="" style="shape=parallelogram;perimeter=parallelogramPerimeter;whiteSpace=wrap;html=1;fixedSize=1;points=[[0,0,0,0,0],[0,0.25,0,0,0],[0,0.5,0,0,0],[0,0.75,0,0,0],[0.12,1,0,0,2],[0.25,0,0,0,0],[0.25,1,0,0,0],[0.5,0,0,0,0],[0.5,1,0,0,0],[0.75,0,0,0,0],[0.75,1,0,0,0],[1,0,0,0,0],[1,0.25,0,0,0],[1,0.5,0,0,0],[1,0.75,0,0,0],[1,1,0,0,0]];direction=west;flipH=0;container=1;movable=1;resizable=1;rotatable=1;deletable=1;editable=1;locked=0;connectable=1;size=30;flipV=1;fillColor=#f8cecc;strokeColor=#b85450;" vertex="1" parent="IT8IMpOZwN_9MQMlR_QI-122">
          <mxGeometry width="70" height="29.82" as="geometry">
            <mxRectangle x="280" y="200" width="50" height="40" as="alternateBounds" />
          </mxGeometry>
        </mxCell>
        <mxCell id="IT8IMpOZwN_9MQMlR_QI-119" value="" style="shape=parallelogram;perimeter=parallelogramPerimeter;whiteSpace=wrap;html=1;fixedSize=1;points=[[0,0,0,0,0],[0,0.25,0,0,0],[0,0.5,0,0,0],[0,0.75,0,0,0],[0.12,1,0,0,2],[0.25,0,0,0,0],[0.25,1,0,0,0],[0.5,0,0,0,0],[0.5,1,0,0,0],[0.75,0,0,0,0],[0.75,1,0,0,0],[1,0,0,0,0],[1,0.25,0,0,0],[1,0.5,0,0,0],[1,0.75,0,0,0],[1,1,0,0,0]];direction=south;flipH=0;container=1;movable=1;resizable=1;rotatable=1;deletable=1;editable=1;locked=0;connectable=1;size=30;fillColor=#f8cecc;strokeColor=#b85450;" vertex="1" parent="IT8IMpOZwN_9MQMlR_QI-122">
          <mxGeometry width="29.82" height="65" as="geometry">
            <mxRectangle x="280" y="200" width="50" height="40" as="alternateBounds" />
          </mxGeometry>
        </mxCell>
        <mxCell id="IT8IMpOZwN_9MQMlR_QI-120" value="" style="rounded=0;whiteSpace=wrap;html=1;strokeColor=#b85450;align=center;verticalAlign=middle;fontFamily=Helvetica;fontSize=12;fillColor=#f8cecc;opacity=60;" vertex="1" parent="IT8IMpOZwN_9MQMlR_QI-122">
          <mxGeometry x="29.819999999999936" y="30" width="40.18" height="35" as="geometry" />
        </mxCell>
        <mxCell id="IT8IMpOZwN_9MQMlR_QI-121" value="" style="endArrow=none;html=1;rounded=0;fontFamily=Helvetica;fontSize=12;fontColor=default;exitX=0.25;exitY=0;exitDx=0;exitDy=0;" edge="1" parent="IT8IMpOZwN_9MQMlR_QI-122" source="IT8IMpOZwN_9MQMlR_QI-120" target="IT8IMpOZwN_9MQMlR_QI-118">
          <mxGeometry width="50" height="50" relative="1" as="geometry">
            <mxPoint x="-130.18" y="295" as="sourcePoint" />
            <mxPoint x="-80.18" y="105" as="targetPoint" />
          </mxGeometry>
        </mxCell>
        <mxCell id="IT8IMpOZwN_9MQMlR_QI-123" value="" style="endArrow=classic;html=1;rounded=0;fontFamily=Helvetica;fontSize=12;fontColor=default;exitX=0.5;exitY=1;exitDx=0;exitDy=0;" edge="1" parent="1" source="IT8IMpOZwN_9MQMlR_QI-114">
          <mxGeometry width="50" height="50" relative="1" as="geometry">
            <mxPoint x="1400" y="460" as="sourcePoint" />
            <mxPoint x="1428" y="380" as="targetPoint" />
          </mxGeometry>
        </mxCell>
        <mxCell id="IT8IMpOZwN_9MQMlR_QI-124" value="CAtten" style="rounded=1;whiteSpace=wrap;html=1;strokeColor=#6D1F00;align=center;verticalAlign=middle;fontFamily=Helvetica;fontSize=12;fillColor=#a0522d;movable=1;resizable=1;rotatable=1;deletable=1;editable=1;locked=0;connectable=1;fontColor=#ffffff;" vertex="1" parent="1">
          <mxGeometry x="1407.82" y="380" width="40.18" height="35" as="geometry" />
        </mxCell>
        <mxCell id="IT8IMpOZwN_9MQMlR_QI-126" value="Cross &amp;nbsp;Channel Attention Module" style="text;html=1;strokeColor=none;fillColor=none;align=center;verticalAlign=middle;whiteSpace=wrap;rounded=0;fontSize=18;fontFamily=Helvetica;fontColor=default;fontStyle=1" vertex="1" parent="1">
          <mxGeometry x="1250" y="140" width="310" height="60" as="geometry" />
        </mxCell>
        <mxCell id="IT8IMpOZwN_9MQMlR_QI-127" value="Projection" style="rounded=1;whiteSpace=wrap;html=1;strokeColor=#001DBC;align=center;verticalAlign=middle;fontFamily=Helvetica;fontSize=12;fillColor=#0050ef;movable=1;resizable=1;rotatable=1;deletable=1;editable=1;locked=0;connectable=1;fontColor=#ffffff;" vertex="1" parent="1">
          <mxGeometry x="1396.82" y="490" width="62.18" height="35" as="geometry" />
        </mxCell>
        <mxCell id="IT8IMpOZwN_9MQMlR_QI-128" value="" style="endArrow=classic;html=1;rounded=0;fontFamily=Helvetica;fontSize=12;fontColor=default;entryX=0.5;entryY=0;entryDx=0;entryDy=0;" edge="1" parent="1" target="IT8IMpOZwN_9MQMlR_QI-127">
          <mxGeometry width="50" height="50" relative="1" as="geometry">
            <mxPoint x="1428" y="440" as="sourcePoint" />
            <mxPoint x="1240" y="580" as="targetPoint" />
          </mxGeometry>
        </mxCell>
        <mxCell id="IT8IMpOZwN_9MQMlR_QI-129" value="" style="endArrow=classic;html=1;rounded=0;fontFamily=Helvetica;fontSize=12;fontColor=default;entryX=0.5;entryY=0;entryDx=0;entryDy=0;" edge="1" parent="1">
          <mxGeometry width="50" height="50" relative="1" as="geometry">
            <mxPoint x="1429" y="525" as="sourcePoint" />
            <mxPoint x="1429" y="575" as="targetPoint" />
          </mxGeometry>
        </mxCell>
        <mxCell id="IT8IMpOZwN_9MQMlR_QI-130" value="" style="group" vertex="1" connectable="0" parent="1">
          <mxGeometry x="1389" y="580" width="70" height="138" as="geometry" />
        </mxCell>
        <mxCell id="IT8IMpOZwN_9MQMlR_QI-131" value="" style="rounded=0;whiteSpace=wrap;html=1;strokeColor=#6c8ebf;align=center;verticalAlign=middle;fontFamily=Helvetica;fontSize=12;fillColor=#dae8fc;opacity=60;" vertex="1" parent="IT8IMpOZwN_9MQMlR_QI-130">
          <mxGeometry x="24.819999999999936" y="103.24444444444444" width="40.18" height="35.77777777777777" as="geometry" />
        </mxCell>
        <mxCell id="IT8IMpOZwN_9MQMlR_QI-134" value="" style="rounded=0;whiteSpace=wrap;html=1;strokeColor=#d6b656;align=center;verticalAlign=middle;fontFamily=Helvetica;fontSize=12;fillColor=#fff2cc;opacity=60;" vertex="1" parent="IT8IMpOZwN_9MQMlR_QI-130">
          <mxGeometry x="24.819999999999936" y="50.08888888888889" width="40.18" height="35.77777777777777" as="geometry" />
        </mxCell>
        <mxCell id="IT8IMpOZwN_9MQMlR_QI-137" value="" style="rounded=0;whiteSpace=wrap;html=1;strokeColor=#b85450;align=center;verticalAlign=middle;fontFamily=Helvetica;fontSize=12;fillColor=#f8cecc;opacity=60;" vertex="1" parent="IT8IMpOZwN_9MQMlR_QI-130">
          <mxGeometry x="24.819999999999936" width="40.18" height="35.77777777777777" as="geometry" />
        </mxCell>
        <mxCell id="IT8IMpOZwN_9MQMlR_QI-171" value="" style="endArrow=classic;html=1;rounded=0;fontFamily=Helvetica;fontSize=12;fontColor=default;" edge="1" parent="1">
          <mxGeometry width="50" height="50" relative="1" as="geometry">
            <mxPoint x="1000" y="636" as="sourcePoint" />
            <mxPoint x="1130" y="636" as="targetPoint" />
          </mxGeometry>
        </mxCell>
        <mxCell id="IT8IMpOZwN_9MQMlR_QI-174" value="" style="endArrow=classic;html=1;rounded=0;fontFamily=Helvetica;fontSize=12;fontColor=default;exitX=0;exitY=0.5;exitDx=0;exitDy=0;" edge="1" parent="1">
          <mxGeometry width="50" height="50" relative="1" as="geometry">
            <mxPoint x="1407.8199999999997" y="638.5" as="sourcePoint" />
            <mxPoint x="1230" y="637" as="targetPoint" />
          </mxGeometry>
        </mxCell>
        <mxCell id="IT8IMpOZwN_9MQMlR_QI-175" value="Gate" style="rounded=1;whiteSpace=wrap;html=1;strokeColor=#001DBC;align=center;verticalAlign=middle;fontFamily=Helvetica;fontSize=12;fillColor=#0050ef;movable=1;resizable=1;rotatable=1;deletable=1;editable=1;locked=0;connectable=1;fontColor=#ffffff;" vertex="1" parent="1">
          <mxGeometry x="1150" y="620" width="62.18" height="35" as="geometry" />
        </mxCell>
        <mxCell id="IT8IMpOZwN_9MQMlR_QI-176" value="" style="endArrow=classic;html=1;rounded=0;fontFamily=Helvetica;fontSize=12;fontColor=default;entryX=0;entryY=0.5;entryDx=0;entryDy=0;" edge="1" parent="1" target="IT8IMpOZwN_9MQMlR_QI-125">
          <mxGeometry width="50" height="50" relative="1" as="geometry">
            <mxPoint x="1110" y="285" as="sourcePoint" />
            <mxPoint x="1160" y="240" as="targetPoint" />
          </mxGeometry>
        </mxCell>
        <mxCell id="IT8IMpOZwN_9MQMlR_QI-177" value="Split" style="text;html=1;strokeColor=none;fillColor=none;align=center;verticalAlign=middle;whiteSpace=wrap;rounded=0;fontSize=18;fontFamily=Helvetica;fontColor=default;" vertex="1" parent="1">
          <mxGeometry x="1140" y="245" width="60" height="30" as="geometry" />
        </mxCell>
        <mxCell id="IT8IMpOZwN_9MQMlR_QI-178" value="" style="endArrow=classic;html=1;rounded=0;fontFamily=Helvetica;fontSize=12;fontColor=default;exitX=0.45;exitY=1;exitDx=0;exitDy=0;exitPerimeter=0;" edge="1" parent="1" source="IT8IMpOZwN_9MQMlR_QI-112">
          <mxGeometry width="50" height="50" relative="1" as="geometry">
            <mxPoint x="660" y="750" as="sourcePoint" />
            <mxPoint x="857" y="540" as="targetPoint" />
          </mxGeometry>
        </mxCell>
        <mxCell id="IT8IMpOZwN_9MQMlR_QI-179" value="Split" style="text;html=1;strokeColor=none;fillColor=none;align=center;verticalAlign=top;whiteSpace=wrap;rounded=0;fontSize=18;fontFamily=Helvetica;fontColor=default;direction=west;flipH=0;textDirection=rtl;" vertex="1" parent="1">
          <mxGeometry x="790" y="480" width="60" height="30" as="geometry" />
        </mxCell>
        <mxCell id="IT8IMpOZwN_9MQMlR_QI-183" value="Parallel Multi-Scale Block" style="text;html=1;strokeColor=none;fillColor=none;align=center;verticalAlign=middle;whiteSpace=wrap;rounded=0;fontSize=18;fontFamily=Helvetica;fontColor=default;fontStyle=1" vertex="1" parent="1">
          <mxGeometry x="240" y="70" width="310" height="60" as="geometry" />
        </mxCell>
        <mxCell id="IT8IMpOZwN_9MQMlR_QI-281" value="" style="endArrow=none;html=1;rounded=0;strokeColor=#0B4D6A;" edge="1" parent="1">
          <mxGeometry width="50" height="50" relative="1" as="geometry">
            <mxPoint x="1650" y="410" as="sourcePoint" />
            <mxPoint x="1760" y="370" as="targetPoint" />
          </mxGeometry>
        </mxCell>
        <mxCell id="IT8IMpOZwN_9MQMlR_QI-283" value="" style="endArrow=none;html=1;rounded=0;strokeColor=#0B4D6A;" edge="1" parent="1">
          <mxGeometry width="50" height="50" relative="1" as="geometry">
            <mxPoint x="1690" y="370" as="sourcePoint" />
            <mxPoint x="1760" y="370" as="targetPoint" />
          </mxGeometry>
        </mxCell>
        <mxCell id="IT8IMpOZwN_9MQMlR_QI-284" value="" style="endArrow=none;html=1;rounded=0;strokeColor=#0B4D6A;exitX=0.999;exitY=0.518;exitDx=0;exitDy=0;exitPerimeter=0;" edge="1" parent="1" source="IT8IMpOZwN_9MQMlR_QI-182">
          <mxGeometry width="50" height="50" relative="1" as="geometry">
            <mxPoint x="1740" y="300" as="sourcePoint" />
            <mxPoint x="1760" y="370" as="targetPoint" />
          </mxGeometry>
        </mxCell>
        <mxCell id="IT8IMpOZwN_9MQMlR_QI-285" value="" style="endArrow=classic;html=1;rounded=0;strokeColor=#0B4D6A;" edge="1" parent="1">
          <mxGeometry width="50" height="50" relative="1" as="geometry">
            <mxPoint x="1760" y="370" as="sourcePoint" />
            <mxPoint x="1880" y="370" as="targetPoint" />
          </mxGeometry>
        </mxCell>
        <mxCell id="IT8IMpOZwN_9MQMlR_QI-286" value="Concatenation" style="text;html=1;strokeColor=none;fillColor=none;align=center;verticalAlign=middle;whiteSpace=wrap;rounded=0;fontSize=18;fontFamily=Helvetica;fontColor=default;" vertex="1" parent="1">
          <mxGeometry x="1750" y="325" width="140" height="30" as="geometry" />
        </mxCell>
        <mxCell id="IT8IMpOZwN_9MQMlR_QI-287" value="" style="endArrow=classic;html=1;rounded=0;strokeColor=#0B4D6A;exitX=0.75;exitY=1;exitDx=0;exitDy=0;" edge="1" parent="1">
          <mxGeometry width="50" height="50" relative="1" as="geometry">
            <mxPoint x="2089" y="424" as="sourcePoint" />
            <mxPoint x="2089" y="470" as="targetPoint" />
          </mxGeometry>
        </mxCell>
        <mxCell id="IT8IMpOZwN_9MQMlR_QI-288" value="Head" style="rounded=1;whiteSpace=wrap;html=1;strokeColor=#B09500;align=center;verticalAlign=middle;fontFamily=Helvetica;fontSize=12;fillColor=#e3c800;movable=1;resizable=1;rotatable=1;deletable=1;editable=1;locked=0;connectable=1;fontColor=#000000;" vertex="1" parent="1">
          <mxGeometry x="2060" y="470" width="62.18" height="35" as="geometry" />
        </mxCell>
        <mxCell id="IT8IMpOZwN_9MQMlR_QI-289" value="" style="endArrow=classic;html=1;rounded=0;fontFamily=Helvetica;fontSize=12;fontColor=default;exitX=1;exitY=0.5;exitDx=0;exitDy=0;" edge="1" parent="1" source="IT8IMpOZwN_9MQMlR_QI-46">
          <mxGeometry width="50" height="50" relative="1" as="geometry">
            <mxPoint x="1120" y="295" as="sourcePoint" />
            <mxPoint x="650" y="268" as="targetPoint" />
          </mxGeometry>
        </mxCell>
        <mxCell id="IT8IMpOZwN_9MQMlR_QI-291" value="Split" style="text;html=1;strokeColor=none;fillColor=none;align=center;verticalAlign=middle;whiteSpace=wrap;rounded=0;fontSize=18;fontFamily=Helvetica;fontColor=default;" vertex="1" parent="1">
          <mxGeometry x="570" y="225" width="60" height="30" as="geometry" />
        </mxCell>
        <mxCell id="IT8IMpOZwN_9MQMlR_QI-292" value="Concatenate" style="text;html=1;strokeColor=none;fillColor=none;align=center;verticalAlign=middle;whiteSpace=wrap;rounded=0;fontSize=18;fontFamily=Helvetica;fontColor=default;" vertex="1" parent="1">
          <mxGeometry x="570" y="284" width="60" height="30" as="geometry" />
        </mxCell>
        <mxCell id="IT8IMpOZwN_9MQMlR_QI-293" value="Cross &amp;nbsp;Channel Attention Module" style="text;html=1;strokeColor=none;fillColor=none;align=center;verticalAlign=middle;whiteSpace=wrap;rounded=0;fontSize=15;fontFamily=Helvetica;fontColor=default;fontStyle=1" vertex="1" parent="1">
          <mxGeometry x="1930.0000000000002" y="150" width="310" height="60" as="geometry" />
        </mxCell>
        <mxCell id="IT8IMpOZwN_9MQMlR_QI-294" value="" style="group" vertex="1" connectable="0" parent="1">
          <mxGeometry x="728" y="549" width="252" height="65" as="geometry" />
        </mxCell>
        <mxCell id="IT8IMpOZwN_9MQMlR_QI-296" value="" style="group;movable=1;resizable=1;rotatable=1;deletable=1;editable=1;locked=0;connectable=1;" vertex="1" connectable="0" parent="IT8IMpOZwN_9MQMlR_QI-294">
          <mxGeometry width="252" height="65" as="geometry" />
        </mxCell>
        <mxCell id="IT8IMpOZwN_9MQMlR_QI-297" value="" style="endArrow=none;html=1;rounded=0;fontFamily=Helvetica;fontSize=12;fontColor=default;exitX=0.153;exitY=0;exitDx=0;exitDy=0;exitPerimeter=0;entryX=1;entryY=0;entryDx=0;entryDy=0;dashed=1;movable=1;resizable=1;rotatable=1;deletable=1;editable=1;locked=0;connectable=1;" edge="1" parent="IT8IMpOZwN_9MQMlR_QI-296">
          <mxGeometry width="50" height="50" relative="1" as="geometry">
            <mxPoint x="89.71754000000016" y="1" as="sourcePoint" />
            <mxPoint x="121.82" y="31" as="targetPoint" />
          </mxGeometry>
        </mxCell>
        <mxCell id="IT8IMpOZwN_9MQMlR_QI-298" value="" style="endArrow=none;html=1;rounded=0;fontFamily=Helvetica;fontSize=12;fontColor=default;exitX=0.153;exitY=0;exitDx=0;exitDy=0;exitPerimeter=0;entryX=1;entryY=0;entryDx=0;entryDy=0;dashed=1;movable=1;resizable=1;rotatable=1;deletable=1;editable=1;locked=0;connectable=1;" edge="1" parent="IT8IMpOZwN_9MQMlR_QI-296">
          <mxGeometry width="50" height="50" relative="1" as="geometry">
            <mxPoint x="43.717540000000156" as="sourcePoint" />
            <mxPoint x="75.82" y="30" as="targetPoint" />
          </mxGeometry>
        </mxCell>
        <mxCell id="IT8IMpOZwN_9MQMlR_QI-299" value="" style="shape=parallelogram;perimeter=parallelogramPerimeter;whiteSpace=wrap;html=1;fixedSize=1;points=[[0,0,0,0,0],[0,0.25,0,0,0],[0,0.5,0,0,0],[0,0.75,0,0,0],[0.12,1,0,0,2],[0.25,0,0,0,0],[0.25,1,0,0,0],[0.5,0,0,0,0],[0.5,1,0,0,0],[0.75,0,0,0,0],[0.75,1,0,0,0],[1,0,0,0,0],[1,0.25,0,0,0],[1,0.5,0,0,0],[1,0.75,0,0,0],[1,1,0,0,0]];direction=south;flipH=0;container=1;movable=1;resizable=1;rotatable=1;deletable=1;editable=1;locked=0;connectable=1;size=30;fillColor=#f8cecc;strokeColor=#b85450;" vertex="1" parent="IT8IMpOZwN_9MQMlR_QI-296">
          <mxGeometry width="29.82" height="65" as="geometry">
            <mxRectangle x="280" y="200" width="50" height="40" as="alternateBounds" />
          </mxGeometry>
        </mxCell>
        <mxCell id="IT8IMpOZwN_9MQMlR_QI-300" value="" style="shape=parallelogram;perimeter=parallelogramPerimeter;whiteSpace=wrap;html=1;fixedSize=1;points=[[0,0,0,0,0],[0,0.25,0,0,0],[0,0.5,0,0,0],[0,0.75,0,0,0],[0.12,1,0,0,2],[0.25,0,0,0,0],[0.25,1,0,0,0],[0.5,0,0,0,0],[0.5,1,0,0,0],[0.75,0,0,0,0],[0.75,1,0,0,0],[1,0,0,0,0],[1,0.25,0,0,0],[1,0.5,0,0,0],[1,0.75,0,0,0],[1,1,0,0,0]];direction=west;flipH=0;container=1;movable=1;resizable=1;rotatable=1;deletable=1;editable=1;locked=0;connectable=1;size=30;flipV=1;fillColor=#f8cecc;strokeColor=#b85450;" vertex="1" parent="IT8IMpOZwN_9MQMlR_QI-296">
          <mxGeometry width="209.82" height="29.82" as="geometry">
            <mxRectangle x="280" y="200" width="50" height="40" as="alternateBounds" />
          </mxGeometry>
        </mxCell>
        <mxCell id="IT8IMpOZwN_9MQMlR_QI-301" value="" style="rounded=0;whiteSpace=wrap;html=1;strokeColor=#b85450;align=center;verticalAlign=middle;fontFamily=Helvetica;fontSize=12;fillColor=#f8cecc;opacity=60;movable=1;resizable=1;rotatable=1;deletable=1;editable=1;locked=0;connectable=1;" vertex="1" parent="IT8IMpOZwN_9MQMlR_QI-296">
          <mxGeometry x="29.819999999999993" y="30" width="180" height="35" as="geometry" />
        </mxCell>
        <mxCell id="IT8IMpOZwN_9MQMlR_QI-302" value="" style="endArrow=none;html=1;rounded=0;fontFamily=Helvetica;fontSize=12;fontColor=default;exitX=0.25;exitY=0;exitDx=0;exitDy=0;movable=1;resizable=1;rotatable=1;deletable=1;editable=1;locked=0;connectable=1;" edge="1" parent="IT8IMpOZwN_9MQMlR_QI-296" source="IT8IMpOZwN_9MQMlR_QI-301" target="IT8IMpOZwN_9MQMlR_QI-300">
          <mxGeometry width="50" height="50" relative="1" as="geometry">
            <mxPoint x="-130.18" y="295" as="sourcePoint" />
            <mxPoint x="-80.18" y="105" as="targetPoint" />
          </mxGeometry>
        </mxCell>
        <mxCell id="IT8IMpOZwN_9MQMlR_QI-303" style="edgeStyle=orthogonalEdgeStyle;rounded=0;orthogonalLoop=1;jettySize=auto;html=1;exitX=0.5;exitY=1;exitDx=0;exitDy=0;fontFamily=Helvetica;fontSize=12;fontColor=default;movable=1;resizable=1;rotatable=1;deletable=1;editable=1;locked=0;connectable=1;" edge="1" parent="IT8IMpOZwN_9MQMlR_QI-296" source="IT8IMpOZwN_9MQMlR_QI-301" target="IT8IMpOZwN_9MQMlR_QI-301">
          <mxGeometry relative="1" as="geometry" />
        </mxCell>
        <mxCell id="IT8IMpOZwN_9MQMlR_QI-304" value="" style="endArrow=none;html=1;rounded=0;fontFamily=Helvetica;fontSize=12;fontColor=default;entryX=0.25;entryY=0;entryDx=0;entryDy=0;exitX=0.25;exitY=1;exitDx=0;exitDy=0;dashed=1;movable=1;resizable=1;rotatable=1;deletable=1;editable=1;locked=0;connectable=1;" edge="1" parent="IT8IMpOZwN_9MQMlR_QI-296" source="IT8IMpOZwN_9MQMlR_QI-301" target="IT8IMpOZwN_9MQMlR_QI-301">
          <mxGeometry width="50" height="50" relative="1" as="geometry">
            <mxPoint x="-20.180000000000007" y="235" as="sourcePoint" />
            <mxPoint x="29.819999999999993" y="185" as="targetPoint" />
          </mxGeometry>
        </mxCell>
        <mxCell id="IT8IMpOZwN_9MQMlR_QI-305" value="" style="endArrow=none;html=1;rounded=0;fontFamily=Helvetica;fontSize=12;fontColor=default;entryX=0.5;entryY=0;entryDx=0;entryDy=0;exitX=0.5;exitY=1;exitDx=0;exitDy=0;dashed=1;movable=1;resizable=1;rotatable=1;deletable=1;editable=1;locked=0;connectable=1;" edge="1" parent="IT8IMpOZwN_9MQMlR_QI-296" source="IT8IMpOZwN_9MQMlR_QI-301" target="IT8IMpOZwN_9MQMlR_QI-301">
          <mxGeometry width="50" height="50" relative="1" as="geometry">
            <mxPoint x="69.82" y="215" as="sourcePoint" />
            <mxPoint x="119.82" y="165" as="targetPoint" />
          </mxGeometry>
        </mxCell>
        <mxCell id="IT8IMpOZwN_9MQMlR_QI-306" value="" style="endArrow=none;html=1;rounded=0;fontFamily=Helvetica;fontSize=12;fontColor=default;entryX=0.75;entryY=0;entryDx=0;entryDy=0;exitX=0.75;exitY=1;exitDx=0;exitDy=0;dashed=1;movable=1;resizable=1;rotatable=1;deletable=1;editable=1;locked=0;connectable=1;" edge="1" parent="IT8IMpOZwN_9MQMlR_QI-296" source="IT8IMpOZwN_9MQMlR_QI-301" target="IT8IMpOZwN_9MQMlR_QI-301">
          <mxGeometry width="50" height="50" relative="1" as="geometry">
            <mxPoint x="199.82" y="175" as="sourcePoint" />
            <mxPoint x="249.82" y="125" as="targetPoint" />
          </mxGeometry>
        </mxCell>
        <mxCell id="IT8IMpOZwN_9MQMlR_QI-307" value="" style="endArrow=none;html=1;rounded=0;fontFamily=Helvetica;fontSize=12;fontColor=default;entryX=0.143;entryY=0;entryDx=0;entryDy=0;entryPerimeter=0;exitX=1;exitY=0;exitDx=0;exitDy=0;dashed=1;movable=1;resizable=1;rotatable=1;deletable=1;editable=1;locked=0;connectable=1;" edge="1" parent="IT8IMpOZwN_9MQMlR_QI-296">
          <mxGeometry width="50" height="50" relative="1" as="geometry">
            <mxPoint x="165.82" y="30" as="sourcePoint" />
            <mxPoint x="135.8157400000003" as="targetPoint" />
          </mxGeometry>
        </mxCell>
        <mxCell id="IT8IMpOZwN_9MQMlR_QI-308" value="" style="endArrow=none;html=1;rounded=0;fontFamily=Helvetica;fontSize=12;fontColor=default;entryX=0.143;entryY=0;entryDx=0;entryDy=0;entryPerimeter=0;exitX=1;exitY=0;exitDx=0;exitDy=0;dashed=1;movable=1;resizable=1;rotatable=1;deletable=1;editable=1;locked=0;connectable=1;" edge="1" parent="IT8IMpOZwN_9MQMlR_QI-296">
          <mxGeometry width="50" height="50" relative="1" as="geometry">
            <mxPoint x="120.82" y="30" as="sourcePoint" />
            <mxPoint x="90.81574000000029" as="targetPoint" />
          </mxGeometry>
        </mxCell>
        <mxCell id="IT8IMpOZwN_9MQMlR_QI-309" value="" style="endArrow=none;html=1;rounded=0;fontFamily=Helvetica;fontSize=12;fontColor=default;entryX=0.143;entryY=0;entryDx=0;entryDy=0;entryPerimeter=0;exitX=1;exitY=0;exitDx=0;exitDy=0;dashed=1;movable=1;resizable=1;rotatable=1;deletable=1;editable=1;locked=0;connectable=1;" edge="1" parent="IT8IMpOZwN_9MQMlR_QI-296">
          <mxGeometry width="50" height="50" relative="1" as="geometry">
            <mxPoint x="75.82" y="30" as="sourcePoint" />
            <mxPoint x="45.81574000000029" as="targetPoint" />
          </mxGeometry>
        </mxCell>
        <mxCell id="IT8IMpOZwN_9MQMlR_QI-311" value="" style="group" vertex="1" connectable="0" parent="1">
          <mxGeometry x="731" y="618" width="252" height="65" as="geometry" />
        </mxCell>
        <mxCell id="IT8IMpOZwN_9MQMlR_QI-313" value="" style="group;movable=1;resizable=1;rotatable=1;deletable=1;editable=1;locked=0;connectable=1;" vertex="1" connectable="0" parent="IT8IMpOZwN_9MQMlR_QI-311">
          <mxGeometry width="252" height="65" as="geometry" />
        </mxCell>
        <mxCell id="IT8IMpOZwN_9MQMlR_QI-314" value="" style="endArrow=none;html=1;rounded=0;fontFamily=Helvetica;fontSize=12;fontColor=default;exitX=0.153;exitY=0;exitDx=0;exitDy=0;exitPerimeter=0;entryX=1;entryY=0;entryDx=0;entryDy=0;dashed=1;movable=1;resizable=1;rotatable=1;deletable=1;editable=1;locked=0;connectable=1;" edge="1" parent="IT8IMpOZwN_9MQMlR_QI-313">
          <mxGeometry width="50" height="50" relative="1" as="geometry">
            <mxPoint x="89.71754000000016" y="1" as="sourcePoint" />
            <mxPoint x="121.82" y="31" as="targetPoint" />
          </mxGeometry>
        </mxCell>
        <mxCell id="IT8IMpOZwN_9MQMlR_QI-315" value="" style="endArrow=none;html=1;rounded=0;fontFamily=Helvetica;fontSize=12;fontColor=default;exitX=0.153;exitY=0;exitDx=0;exitDy=0;exitPerimeter=0;entryX=1;entryY=0;entryDx=0;entryDy=0;dashed=1;movable=1;resizable=1;rotatable=1;deletable=1;editable=1;locked=0;connectable=1;" edge="1" parent="IT8IMpOZwN_9MQMlR_QI-313">
          <mxGeometry width="50" height="50" relative="1" as="geometry">
            <mxPoint x="43.717540000000156" as="sourcePoint" />
            <mxPoint x="75.82" y="30" as="targetPoint" />
          </mxGeometry>
        </mxCell>
        <mxCell id="IT8IMpOZwN_9MQMlR_QI-316" value="" style="shape=parallelogram;perimeter=parallelogramPerimeter;whiteSpace=wrap;html=1;fixedSize=1;points=[[0,0,0,0,0],[0,0.25,0,0,0],[0,0.5,0,0,0],[0,0.75,0,0,0],[0.12,1,0,0,2],[0.25,0,0,0,0],[0.25,1,0,0,0],[0.5,0,0,0,0],[0.5,1,0,0,0],[0.75,0,0,0,0],[0.75,1,0,0,0],[1,0,0,0,0],[1,0.25,0,0,0],[1,0.5,0,0,0],[1,0.75,0,0,0],[1,1,0,0,0]];direction=south;flipH=0;container=1;movable=1;resizable=1;rotatable=1;deletable=1;editable=1;locked=0;connectable=1;size=30;fillColor=#fff2cc;strokeColor=#d6b656;" vertex="1" parent="IT8IMpOZwN_9MQMlR_QI-313">
          <mxGeometry width="29.82" height="65" as="geometry">
            <mxRectangle x="280" y="200" width="50" height="40" as="alternateBounds" />
          </mxGeometry>
        </mxCell>
        <mxCell id="IT8IMpOZwN_9MQMlR_QI-317" value="" style="shape=parallelogram;perimeter=parallelogramPerimeter;whiteSpace=wrap;html=1;fixedSize=1;points=[[0,0,0,0,0],[0,0.25,0,0,0],[0,0.5,0,0,0],[0,0.75,0,0,0],[0.12,1,0,0,2],[0.25,0,0,0,0],[0.25,1,0,0,0],[0.5,0,0,0,0],[0.5,1,0,0,0],[0.75,0,0,0,0],[0.75,1,0,0,0],[1,0,0,0,0],[1,0.25,0,0,0],[1,0.5,0,0,0],[1,0.75,0,0,0],[1,1,0,0,0]];direction=west;flipH=0;container=1;movable=1;resizable=1;rotatable=1;deletable=1;editable=1;locked=0;connectable=1;size=30;flipV=1;fillColor=#fff2cc;strokeColor=#d6b656;" vertex="1" parent="IT8IMpOZwN_9MQMlR_QI-313">
          <mxGeometry width="209.82" height="29.82" as="geometry">
            <mxRectangle x="280" y="200" width="50" height="40" as="alternateBounds" />
          </mxGeometry>
        </mxCell>
        <mxCell id="IT8IMpOZwN_9MQMlR_QI-318" value="" style="rounded=0;whiteSpace=wrap;html=1;strokeColor=#d6b656;align=center;verticalAlign=middle;fontFamily=Helvetica;fontSize=12;fillColor=#fff2cc;opacity=60;movable=1;resizable=1;rotatable=1;deletable=1;editable=1;locked=0;connectable=1;" vertex="1" parent="IT8IMpOZwN_9MQMlR_QI-313">
          <mxGeometry x="29.819999999999993" y="30" width="180" height="35" as="geometry" />
        </mxCell>
        <mxCell id="IT8IMpOZwN_9MQMlR_QI-319" value="" style="endArrow=none;html=1;rounded=0;fontFamily=Helvetica;fontSize=12;fontColor=default;exitX=0.25;exitY=0;exitDx=0;exitDy=0;movable=1;resizable=1;rotatable=1;deletable=1;editable=1;locked=0;connectable=1;" edge="1" parent="IT8IMpOZwN_9MQMlR_QI-313" source="IT8IMpOZwN_9MQMlR_QI-318" target="IT8IMpOZwN_9MQMlR_QI-317">
          <mxGeometry width="50" height="50" relative="1" as="geometry">
            <mxPoint x="-130.18" y="295" as="sourcePoint" />
            <mxPoint x="-80.18" y="105" as="targetPoint" />
          </mxGeometry>
        </mxCell>
        <mxCell id="IT8IMpOZwN_9MQMlR_QI-320" style="edgeStyle=orthogonalEdgeStyle;rounded=0;orthogonalLoop=1;jettySize=auto;html=1;exitX=0.5;exitY=1;exitDx=0;exitDy=0;fontFamily=Helvetica;fontSize=12;fontColor=default;movable=1;resizable=1;rotatable=1;deletable=1;editable=1;locked=0;connectable=1;" edge="1" parent="IT8IMpOZwN_9MQMlR_QI-313" source="IT8IMpOZwN_9MQMlR_QI-318" target="IT8IMpOZwN_9MQMlR_QI-318">
          <mxGeometry relative="1" as="geometry" />
        </mxCell>
        <mxCell id="IT8IMpOZwN_9MQMlR_QI-321" value="" style="endArrow=none;html=1;rounded=0;fontFamily=Helvetica;fontSize=12;fontColor=default;entryX=0.25;entryY=0;entryDx=0;entryDy=0;exitX=0.25;exitY=1;exitDx=0;exitDy=0;dashed=1;movable=1;resizable=1;rotatable=1;deletable=1;editable=1;locked=0;connectable=1;" edge="1" parent="IT8IMpOZwN_9MQMlR_QI-313" source="IT8IMpOZwN_9MQMlR_QI-318" target="IT8IMpOZwN_9MQMlR_QI-318">
          <mxGeometry width="50" height="50" relative="1" as="geometry">
            <mxPoint x="-20.180000000000007" y="235" as="sourcePoint" />
            <mxPoint x="29.819999999999993" y="185" as="targetPoint" />
          </mxGeometry>
        </mxCell>
        <mxCell id="IT8IMpOZwN_9MQMlR_QI-322" value="" style="endArrow=none;html=1;rounded=0;fontFamily=Helvetica;fontSize=12;fontColor=default;entryX=0.5;entryY=0;entryDx=0;entryDy=0;exitX=0.5;exitY=1;exitDx=0;exitDy=0;dashed=1;movable=1;resizable=1;rotatable=1;deletable=1;editable=1;locked=0;connectable=1;" edge="1" parent="IT8IMpOZwN_9MQMlR_QI-313" source="IT8IMpOZwN_9MQMlR_QI-318" target="IT8IMpOZwN_9MQMlR_QI-318">
          <mxGeometry width="50" height="50" relative="1" as="geometry">
            <mxPoint x="69.82" y="215" as="sourcePoint" />
            <mxPoint x="119.82" y="165" as="targetPoint" />
          </mxGeometry>
        </mxCell>
        <mxCell id="IT8IMpOZwN_9MQMlR_QI-323" value="" style="endArrow=none;html=1;rounded=0;fontFamily=Helvetica;fontSize=12;fontColor=default;entryX=0.75;entryY=0;entryDx=0;entryDy=0;exitX=0.75;exitY=1;exitDx=0;exitDy=0;dashed=1;movable=1;resizable=1;rotatable=1;deletable=1;editable=1;locked=0;connectable=1;" edge="1" parent="IT8IMpOZwN_9MQMlR_QI-313" source="IT8IMpOZwN_9MQMlR_QI-318" target="IT8IMpOZwN_9MQMlR_QI-318">
          <mxGeometry width="50" height="50" relative="1" as="geometry">
            <mxPoint x="199.82" y="175" as="sourcePoint" />
            <mxPoint x="249.82" y="125" as="targetPoint" />
          </mxGeometry>
        </mxCell>
        <mxCell id="IT8IMpOZwN_9MQMlR_QI-324" value="" style="endArrow=none;html=1;rounded=0;fontFamily=Helvetica;fontSize=12;fontColor=default;entryX=0.143;entryY=0;entryDx=0;entryDy=0;entryPerimeter=0;exitX=1;exitY=0;exitDx=0;exitDy=0;dashed=1;movable=1;resizable=1;rotatable=1;deletable=1;editable=1;locked=0;connectable=1;" edge="1" parent="IT8IMpOZwN_9MQMlR_QI-313">
          <mxGeometry width="50" height="50" relative="1" as="geometry">
            <mxPoint x="165.82" y="30" as="sourcePoint" />
            <mxPoint x="135.8157400000003" as="targetPoint" />
          </mxGeometry>
        </mxCell>
        <mxCell id="IT8IMpOZwN_9MQMlR_QI-325" value="" style="endArrow=none;html=1;rounded=0;fontFamily=Helvetica;fontSize=12;fontColor=default;entryX=0.143;entryY=0;entryDx=0;entryDy=0;entryPerimeter=0;exitX=1;exitY=0;exitDx=0;exitDy=0;dashed=1;movable=1;resizable=1;rotatable=1;deletable=1;editable=1;locked=0;connectable=1;" edge="1" parent="IT8IMpOZwN_9MQMlR_QI-313">
          <mxGeometry width="50" height="50" relative="1" as="geometry">
            <mxPoint x="120.82" y="30" as="sourcePoint" />
            <mxPoint x="90.81574000000029" as="targetPoint" />
          </mxGeometry>
        </mxCell>
        <mxCell id="IT8IMpOZwN_9MQMlR_QI-326" value="" style="endArrow=none;html=1;rounded=0;fontFamily=Helvetica;fontSize=12;fontColor=default;entryX=0.143;entryY=0;entryDx=0;entryDy=0;entryPerimeter=0;exitX=1;exitY=0;exitDx=0;exitDy=0;dashed=1;movable=1;resizable=1;rotatable=1;deletable=1;editable=1;locked=0;connectable=1;" edge="1" parent="IT8IMpOZwN_9MQMlR_QI-313">
          <mxGeometry width="50" height="50" relative="1" as="geometry">
            <mxPoint x="75.82" y="30" as="sourcePoint" />
            <mxPoint x="45.81574000000029" as="targetPoint" />
          </mxGeometry>
        </mxCell>
        <mxCell id="IT8IMpOZwN_9MQMlR_QI-328" value="" style="group" vertex="1" connectable="0" parent="1">
          <mxGeometry x="730" y="688" width="252" height="65" as="geometry" />
        </mxCell>
        <mxCell id="IT8IMpOZwN_9MQMlR_QI-330" value="" style="group;movable=1;resizable=1;rotatable=1;deletable=1;editable=1;locked=0;connectable=1;" vertex="1" connectable="0" parent="IT8IMpOZwN_9MQMlR_QI-328">
          <mxGeometry width="252" height="65" as="geometry" />
        </mxCell>
        <mxCell id="IT8IMpOZwN_9MQMlR_QI-331" value="" style="endArrow=none;html=1;rounded=0;fontFamily=Helvetica;fontSize=12;fontColor=default;exitX=0.153;exitY=0;exitDx=0;exitDy=0;exitPerimeter=0;entryX=1;entryY=0;entryDx=0;entryDy=0;dashed=1;movable=1;resizable=1;rotatable=1;deletable=1;editable=1;locked=0;connectable=1;" edge="1" parent="IT8IMpOZwN_9MQMlR_QI-330">
          <mxGeometry width="50" height="50" relative="1" as="geometry">
            <mxPoint x="89.71754000000016" y="1" as="sourcePoint" />
            <mxPoint x="121.82" y="31" as="targetPoint" />
          </mxGeometry>
        </mxCell>
        <mxCell id="IT8IMpOZwN_9MQMlR_QI-332" value="" style="endArrow=none;html=1;rounded=0;fontFamily=Helvetica;fontSize=12;fontColor=default;exitX=0.153;exitY=0;exitDx=0;exitDy=0;exitPerimeter=0;entryX=1;entryY=0;entryDx=0;entryDy=0;dashed=1;movable=1;resizable=1;rotatable=1;deletable=1;editable=1;locked=0;connectable=1;" edge="1" parent="IT8IMpOZwN_9MQMlR_QI-330">
          <mxGeometry width="50" height="50" relative="1" as="geometry">
            <mxPoint x="43.717540000000156" as="sourcePoint" />
            <mxPoint x="75.82" y="30" as="targetPoint" />
          </mxGeometry>
        </mxCell>
        <mxCell id="IT8IMpOZwN_9MQMlR_QI-333" value="" style="shape=parallelogram;perimeter=parallelogramPerimeter;whiteSpace=wrap;html=1;fixedSize=1;points=[[0,0,0,0,0],[0,0.25,0,0,0],[0,0.5,0,0,0],[0,0.75,0,0,0],[0.12,1,0,0,2],[0.25,0,0,0,0],[0.25,1,0,0,0],[0.5,0,0,0,0],[0.5,1,0,0,0],[0.75,0,0,0,0],[0.75,1,0,0,0],[1,0,0,0,0],[1,0.25,0,0,0],[1,0.5,0,0,0],[1,0.75,0,0,0],[1,1,0,0,0]];direction=south;flipH=0;container=1;movable=1;resizable=1;rotatable=1;deletable=1;editable=1;locked=0;connectable=1;size=30;fillColor=#dae8fc;strokeColor=#6c8ebf;" vertex="1" parent="IT8IMpOZwN_9MQMlR_QI-330">
          <mxGeometry width="29.82" height="65" as="geometry">
            <mxRectangle x="280" y="200" width="50" height="40" as="alternateBounds" />
          </mxGeometry>
        </mxCell>
        <mxCell id="IT8IMpOZwN_9MQMlR_QI-334" value="" style="shape=parallelogram;perimeter=parallelogramPerimeter;whiteSpace=wrap;html=1;fixedSize=1;points=[[0,0,0,0,0],[0,0.25,0,0,0],[0,0.5,0,0,0],[0,0.75,0,0,0],[0.12,1,0,0,2],[0.25,0,0,0,0],[0.25,1,0,0,0],[0.5,0,0,0,0],[0.5,1,0,0,0],[0.75,0,0,0,0],[0.75,1,0,0,0],[1,0,0,0,0],[1,0.25,0,0,0],[1,0.5,0,0,0],[1,0.75,0,0,0],[1,1,0,0,0]];direction=west;flipH=0;container=1;movable=1;resizable=1;rotatable=1;deletable=1;editable=1;locked=0;connectable=1;size=30;flipV=1;fillColor=#dae8fc;strokeColor=#6c8ebf;" vertex="1" parent="IT8IMpOZwN_9MQMlR_QI-330">
          <mxGeometry width="209.82" height="29.82" as="geometry">
            <mxRectangle x="280" y="200" width="50" height="40" as="alternateBounds" />
          </mxGeometry>
        </mxCell>
        <mxCell id="IT8IMpOZwN_9MQMlR_QI-335" value="" style="rounded=0;whiteSpace=wrap;html=1;strokeColor=#6c8ebf;align=center;verticalAlign=middle;fontFamily=Helvetica;fontSize=12;fillColor=#dae8fc;opacity=60;movable=1;resizable=1;rotatable=1;deletable=1;editable=1;locked=0;connectable=1;" vertex="1" parent="IT8IMpOZwN_9MQMlR_QI-330">
          <mxGeometry x="29.819999999999993" y="30" width="180" height="35" as="geometry" />
        </mxCell>
        <mxCell id="IT8IMpOZwN_9MQMlR_QI-336" value="" style="endArrow=none;html=1;rounded=0;fontFamily=Helvetica;fontSize=12;fontColor=default;exitX=0.25;exitY=0;exitDx=0;exitDy=0;movable=1;resizable=1;rotatable=1;deletable=1;editable=1;locked=0;connectable=1;fillColor=#dae8fc;strokeColor=#6c8ebf;" edge="1" parent="IT8IMpOZwN_9MQMlR_QI-330" source="IT8IMpOZwN_9MQMlR_QI-335" target="IT8IMpOZwN_9MQMlR_QI-334">
          <mxGeometry width="50" height="50" relative="1" as="geometry">
            <mxPoint x="-130.18" y="295" as="sourcePoint" />
            <mxPoint x="-80.18" y="105" as="targetPoint" />
          </mxGeometry>
        </mxCell>
        <mxCell id="IT8IMpOZwN_9MQMlR_QI-337" style="edgeStyle=orthogonalEdgeStyle;rounded=0;orthogonalLoop=1;jettySize=auto;html=1;exitX=0.5;exitY=1;exitDx=0;exitDy=0;fontFamily=Helvetica;fontSize=12;fontColor=default;movable=1;resizable=1;rotatable=1;deletable=1;editable=1;locked=0;connectable=1;fillColor=#dae8fc;strokeColor=#6c8ebf;" edge="1" parent="IT8IMpOZwN_9MQMlR_QI-330" source="IT8IMpOZwN_9MQMlR_QI-335" target="IT8IMpOZwN_9MQMlR_QI-335">
          <mxGeometry relative="1" as="geometry" />
        </mxCell>
        <mxCell id="IT8IMpOZwN_9MQMlR_QI-338" value="" style="endArrow=none;html=1;rounded=0;fontFamily=Helvetica;fontSize=12;fontColor=default;entryX=0.25;entryY=0;entryDx=0;entryDy=0;exitX=0.25;exitY=1;exitDx=0;exitDy=0;dashed=1;movable=1;resizable=1;rotatable=1;deletable=1;editable=1;locked=0;connectable=1;fillColor=#dae8fc;strokeColor=#6c8ebf;" edge="1" parent="IT8IMpOZwN_9MQMlR_QI-330" source="IT8IMpOZwN_9MQMlR_QI-335" target="IT8IMpOZwN_9MQMlR_QI-335">
          <mxGeometry width="50" height="50" relative="1" as="geometry">
            <mxPoint x="-20.180000000000007" y="235" as="sourcePoint" />
            <mxPoint x="29.819999999999993" y="185" as="targetPoint" />
          </mxGeometry>
        </mxCell>
        <mxCell id="IT8IMpOZwN_9MQMlR_QI-339" value="" style="endArrow=none;html=1;rounded=0;fontFamily=Helvetica;fontSize=12;fontColor=default;entryX=0.5;entryY=0;entryDx=0;entryDy=0;exitX=0.5;exitY=1;exitDx=0;exitDy=0;dashed=1;movable=1;resizable=1;rotatable=1;deletable=1;editable=1;locked=0;connectable=1;fillColor=#dae8fc;strokeColor=#6c8ebf;" edge="1" parent="IT8IMpOZwN_9MQMlR_QI-330" source="IT8IMpOZwN_9MQMlR_QI-335" target="IT8IMpOZwN_9MQMlR_QI-335">
          <mxGeometry width="50" height="50" relative="1" as="geometry">
            <mxPoint x="69.82" y="215" as="sourcePoint" />
            <mxPoint x="119.82" y="165" as="targetPoint" />
          </mxGeometry>
        </mxCell>
        <mxCell id="IT8IMpOZwN_9MQMlR_QI-340" value="" style="endArrow=none;html=1;rounded=0;fontFamily=Helvetica;fontSize=12;fontColor=default;entryX=0.75;entryY=0;entryDx=0;entryDy=0;exitX=0.75;exitY=1;exitDx=0;exitDy=0;dashed=1;movable=1;resizable=1;rotatable=1;deletable=1;editable=1;locked=0;connectable=1;fillColor=#dae8fc;strokeColor=#6c8ebf;" edge="1" parent="IT8IMpOZwN_9MQMlR_QI-330" source="IT8IMpOZwN_9MQMlR_QI-335" target="IT8IMpOZwN_9MQMlR_QI-335">
          <mxGeometry width="50" height="50" relative="1" as="geometry">
            <mxPoint x="199.82" y="175" as="sourcePoint" />
            <mxPoint x="249.82" y="125" as="targetPoint" />
          </mxGeometry>
        </mxCell>
        <mxCell id="IT8IMpOZwN_9MQMlR_QI-341" value="" style="endArrow=none;html=1;rounded=0;fontFamily=Helvetica;fontSize=12;fontColor=default;entryX=0.143;entryY=0;entryDx=0;entryDy=0;entryPerimeter=0;exitX=1;exitY=0;exitDx=0;exitDy=0;dashed=1;movable=1;resizable=1;rotatable=1;deletable=1;editable=1;locked=0;connectable=1;" edge="1" parent="IT8IMpOZwN_9MQMlR_QI-330">
          <mxGeometry width="50" height="50" relative="1" as="geometry">
            <mxPoint x="165.82" y="30" as="sourcePoint" />
            <mxPoint x="135.8157400000003" as="targetPoint" />
          </mxGeometry>
        </mxCell>
        <mxCell id="IT8IMpOZwN_9MQMlR_QI-342" value="" style="endArrow=none;html=1;rounded=0;fontFamily=Helvetica;fontSize=12;fontColor=default;entryX=0.143;entryY=0;entryDx=0;entryDy=0;entryPerimeter=0;exitX=1;exitY=0;exitDx=0;exitDy=0;dashed=1;movable=1;resizable=1;rotatable=1;deletable=1;editable=1;locked=0;connectable=1;" edge="1" parent="IT8IMpOZwN_9MQMlR_QI-330">
          <mxGeometry width="50" height="50" relative="1" as="geometry">
            <mxPoint x="120.82" y="30" as="sourcePoint" />
            <mxPoint x="90.81574000000029" as="targetPoint" />
          </mxGeometry>
        </mxCell>
        <mxCell id="IT8IMpOZwN_9MQMlR_QI-343" value="" style="endArrow=none;html=1;rounded=0;fontFamily=Helvetica;fontSize=12;fontColor=default;entryX=0.143;entryY=0;entryDx=0;entryDy=0;entryPerimeter=0;exitX=1;exitY=0;exitDx=0;exitDy=0;dashed=1;movable=1;resizable=1;rotatable=1;deletable=1;editable=1;locked=0;connectable=1;" edge="1" parent="IT8IMpOZwN_9MQMlR_QI-330">
          <mxGeometry width="50" height="50" relative="1" as="geometry">
            <mxPoint x="75.82" y="30" as="sourcePoint" />
            <mxPoint x="45.81574000000029" as="targetPoint" />
          </mxGeometry>
        </mxCell>
        <mxCell id="IT8IMpOZwN_9MQMlR_QI-345" value="" style="group" vertex="1" connectable="0" parent="1">
          <mxGeometry x="1903" y="223" width="252" height="65" as="geometry" />
        </mxCell>
        <mxCell id="IT8IMpOZwN_9MQMlR_QI-346" value="" style="group;movable=1;resizable=1;rotatable=1;deletable=1;editable=1;locked=0;connectable=1;" vertex="1" connectable="0" parent="IT8IMpOZwN_9MQMlR_QI-345">
          <mxGeometry width="252" height="65" as="geometry" />
        </mxCell>
        <mxCell id="IT8IMpOZwN_9MQMlR_QI-347" value="" style="endArrow=none;html=1;rounded=0;fontFamily=Helvetica;fontSize=12;fontColor=default;exitX=0.153;exitY=0;exitDx=0;exitDy=0;exitPerimeter=0;entryX=1;entryY=0;entryDx=0;entryDy=0;dashed=1;movable=1;resizable=1;rotatable=1;deletable=1;editable=1;locked=0;connectable=1;" edge="1" parent="IT8IMpOZwN_9MQMlR_QI-346">
          <mxGeometry width="50" height="50" relative="1" as="geometry">
            <mxPoint x="89.71754000000016" y="1" as="sourcePoint" />
            <mxPoint x="121.82" y="31" as="targetPoint" />
          </mxGeometry>
        </mxCell>
        <mxCell id="IT8IMpOZwN_9MQMlR_QI-348" value="" style="endArrow=none;html=1;rounded=0;fontFamily=Helvetica;fontSize=12;fontColor=default;exitX=0.153;exitY=0;exitDx=0;exitDy=0;exitPerimeter=0;entryX=1;entryY=0;entryDx=0;entryDy=0;dashed=1;movable=1;resizable=1;rotatable=1;deletable=1;editable=1;locked=0;connectable=1;" edge="1" parent="IT8IMpOZwN_9MQMlR_QI-346">
          <mxGeometry width="50" height="50" relative="1" as="geometry">
            <mxPoint x="43.717540000000156" as="sourcePoint" />
            <mxPoint x="75.82" y="30" as="targetPoint" />
          </mxGeometry>
        </mxCell>
        <mxCell id="IT8IMpOZwN_9MQMlR_QI-349" value="" style="shape=parallelogram;perimeter=parallelogramPerimeter;whiteSpace=wrap;html=1;fixedSize=1;points=[[0,0,0,0,0],[0,0.25,0,0,0],[0,0.5,0,0,0],[0,0.75,0,0,0],[0.12,1,0,0,2],[0.25,0,0,0,0],[0.25,1,0,0,0],[0.5,0,0,0,0],[0.5,1,0,0,0],[0.75,0,0,0,0],[0.75,1,0,0,0],[1,0,0,0,0],[1,0.25,0,0,0],[1,0.5,0,0,0],[1,0.75,0,0,0],[1,1,0,0,0]];direction=south;flipH=0;container=1;movable=1;resizable=1;rotatable=1;deletable=1;editable=1;locked=0;connectable=1;size=30;fillColor=#f8cecc;strokeColor=#b85450;" vertex="1" parent="IT8IMpOZwN_9MQMlR_QI-346">
          <mxGeometry width="29.82" height="65" as="geometry">
            <mxRectangle x="280" y="200" width="50" height="40" as="alternateBounds" />
          </mxGeometry>
        </mxCell>
        <mxCell id="IT8IMpOZwN_9MQMlR_QI-350" value="" style="shape=parallelogram;perimeter=parallelogramPerimeter;whiteSpace=wrap;html=1;fixedSize=1;points=[[0,0,0,0,0],[0,0.25,0,0,0],[0,0.5,0,0,0],[0,0.75,0,0,0],[0.12,1,0,0,2],[0.25,0,0,0,0],[0.25,1,0,0,0],[0.5,0,0,0,0],[0.5,1,0,0,0],[0.75,0,0,0,0],[0.75,1,0,0,0],[1,0,0,0,0],[1,0.25,0,0,0],[1,0.5,0,0,0],[1,0.75,0,0,0],[1,1,0,0,0]];direction=west;flipH=0;container=1;movable=1;resizable=1;rotatable=1;deletable=1;editable=1;locked=0;connectable=1;size=30;flipV=1;fillColor=#f8cecc;strokeColor=#b85450;" vertex="1" parent="IT8IMpOZwN_9MQMlR_QI-346">
          <mxGeometry width="209.82" height="29.82" as="geometry">
            <mxRectangle x="280" y="200" width="50" height="40" as="alternateBounds" />
          </mxGeometry>
        </mxCell>
        <mxCell id="IT8IMpOZwN_9MQMlR_QI-351" value="" style="rounded=0;whiteSpace=wrap;html=1;strokeColor=#b85450;align=center;verticalAlign=middle;fontFamily=Helvetica;fontSize=12;fillColor=#f8cecc;opacity=60;movable=1;resizable=1;rotatable=1;deletable=1;editable=1;locked=0;connectable=1;" vertex="1" parent="IT8IMpOZwN_9MQMlR_QI-346">
          <mxGeometry x="29.819999999999993" y="30" width="180" height="35" as="geometry" />
        </mxCell>
        <mxCell id="IT8IMpOZwN_9MQMlR_QI-352" value="" style="endArrow=none;html=1;rounded=0;fontFamily=Helvetica;fontSize=12;fontColor=default;exitX=0.25;exitY=0;exitDx=0;exitDy=0;movable=1;resizable=1;rotatable=1;deletable=1;editable=1;locked=0;connectable=1;" edge="1" parent="IT8IMpOZwN_9MQMlR_QI-346" source="IT8IMpOZwN_9MQMlR_QI-351" target="IT8IMpOZwN_9MQMlR_QI-350">
          <mxGeometry width="50" height="50" relative="1" as="geometry">
            <mxPoint x="-130.18" y="295" as="sourcePoint" />
            <mxPoint x="-80.18" y="105" as="targetPoint" />
          </mxGeometry>
        </mxCell>
        <mxCell id="IT8IMpOZwN_9MQMlR_QI-353" style="edgeStyle=orthogonalEdgeStyle;rounded=0;orthogonalLoop=1;jettySize=auto;html=1;exitX=0.5;exitY=1;exitDx=0;exitDy=0;fontFamily=Helvetica;fontSize=12;fontColor=default;movable=1;resizable=1;rotatable=1;deletable=1;editable=1;locked=0;connectable=1;" edge="1" parent="IT8IMpOZwN_9MQMlR_QI-346" source="IT8IMpOZwN_9MQMlR_QI-351" target="IT8IMpOZwN_9MQMlR_QI-351">
          <mxGeometry relative="1" as="geometry" />
        </mxCell>
        <mxCell id="IT8IMpOZwN_9MQMlR_QI-354" value="" style="endArrow=none;html=1;rounded=0;fontFamily=Helvetica;fontSize=12;fontColor=default;entryX=0.25;entryY=0;entryDx=0;entryDy=0;exitX=0.25;exitY=1;exitDx=0;exitDy=0;dashed=1;movable=1;resizable=1;rotatable=1;deletable=1;editable=1;locked=0;connectable=1;" edge="1" parent="IT8IMpOZwN_9MQMlR_QI-346" source="IT8IMpOZwN_9MQMlR_QI-351" target="IT8IMpOZwN_9MQMlR_QI-351">
          <mxGeometry width="50" height="50" relative="1" as="geometry">
            <mxPoint x="-20.180000000000007" y="235" as="sourcePoint" />
            <mxPoint x="29.819999999999993" y="185" as="targetPoint" />
          </mxGeometry>
        </mxCell>
        <mxCell id="IT8IMpOZwN_9MQMlR_QI-355" value="" style="endArrow=none;html=1;rounded=0;fontFamily=Helvetica;fontSize=12;fontColor=default;entryX=0.5;entryY=0;entryDx=0;entryDy=0;exitX=0.5;exitY=1;exitDx=0;exitDy=0;dashed=1;movable=1;resizable=1;rotatable=1;deletable=1;editable=1;locked=0;connectable=1;" edge="1" parent="IT8IMpOZwN_9MQMlR_QI-346" source="IT8IMpOZwN_9MQMlR_QI-351" target="IT8IMpOZwN_9MQMlR_QI-351">
          <mxGeometry width="50" height="50" relative="1" as="geometry">
            <mxPoint x="69.82" y="215" as="sourcePoint" />
            <mxPoint x="119.82" y="165" as="targetPoint" />
          </mxGeometry>
        </mxCell>
        <mxCell id="IT8IMpOZwN_9MQMlR_QI-356" value="" style="endArrow=none;html=1;rounded=0;fontFamily=Helvetica;fontSize=12;fontColor=default;entryX=0.75;entryY=0;entryDx=0;entryDy=0;exitX=0.75;exitY=1;exitDx=0;exitDy=0;dashed=1;movable=1;resizable=1;rotatable=1;deletable=1;editable=1;locked=0;connectable=1;" edge="1" parent="IT8IMpOZwN_9MQMlR_QI-346">
          <mxGeometry width="50" height="50" relative="1" as="geometry">
            <mxPoint x="164.8199999999997" y="65" as="sourcePoint" />
            <mxPoint x="164.8199999999997" y="30" as="targetPoint" />
          </mxGeometry>
        </mxCell>
        <mxCell id="IT8IMpOZwN_9MQMlR_QI-357" value="" style="endArrow=none;html=1;rounded=0;fontFamily=Helvetica;fontSize=12;fontColor=default;entryX=0.143;entryY=0;entryDx=0;entryDy=0;entryPerimeter=0;exitX=1;exitY=0;exitDx=0;exitDy=0;dashed=1;movable=1;resizable=1;rotatable=1;deletable=1;editable=1;locked=0;connectable=1;" edge="1" parent="IT8IMpOZwN_9MQMlR_QI-346">
          <mxGeometry width="50" height="50" relative="1" as="geometry">
            <mxPoint x="165.82" y="30" as="sourcePoint" />
            <mxPoint x="135.8157400000003" as="targetPoint" />
          </mxGeometry>
        </mxCell>
        <mxCell id="IT8IMpOZwN_9MQMlR_QI-358" value="" style="endArrow=none;html=1;rounded=0;fontFamily=Helvetica;fontSize=12;fontColor=default;entryX=0.143;entryY=0;entryDx=0;entryDy=0;entryPerimeter=0;exitX=1;exitY=0;exitDx=0;exitDy=0;dashed=1;movable=1;resizable=1;rotatable=1;deletable=1;editable=1;locked=0;connectable=1;" edge="1" parent="IT8IMpOZwN_9MQMlR_QI-346">
          <mxGeometry width="50" height="50" relative="1" as="geometry">
            <mxPoint x="120.82" y="30" as="sourcePoint" />
            <mxPoint x="90.81574000000029" as="targetPoint" />
          </mxGeometry>
        </mxCell>
        <mxCell id="IT8IMpOZwN_9MQMlR_QI-359" value="" style="endArrow=none;html=1;rounded=0;fontFamily=Helvetica;fontSize=12;fontColor=default;entryX=0.143;entryY=0;entryDx=0;entryDy=0;entryPerimeter=0;exitX=1;exitY=0;exitDx=0;exitDy=0;dashed=1;movable=1;resizable=1;rotatable=1;deletable=1;editable=1;locked=0;connectable=1;" edge="1" parent="IT8IMpOZwN_9MQMlR_QI-346">
          <mxGeometry width="50" height="50" relative="1" as="geometry">
            <mxPoint x="75.82" y="30" as="sourcePoint" />
            <mxPoint x="45.81574000000029" as="targetPoint" />
          </mxGeometry>
        </mxCell>
        <mxCell id="IT8IMpOZwN_9MQMlR_QI-360" value="" style="group" vertex="1" connectable="0" parent="1">
          <mxGeometry x="2083" y="224" width="252" height="65" as="geometry" />
        </mxCell>
        <mxCell id="IT8IMpOZwN_9MQMlR_QI-361" value="" style="group;movable=1;resizable=1;rotatable=1;deletable=1;editable=1;locked=0;connectable=1;" vertex="1" connectable="0" parent="IT8IMpOZwN_9MQMlR_QI-360">
          <mxGeometry width="252" height="65" as="geometry" />
        </mxCell>
        <mxCell id="IT8IMpOZwN_9MQMlR_QI-362" value="" style="endArrow=none;html=1;rounded=0;fontFamily=Helvetica;fontSize=12;fontColor=default;exitX=0.153;exitY=0;exitDx=0;exitDy=0;exitPerimeter=0;entryX=1;entryY=0;entryDx=0;entryDy=0;dashed=1;movable=1;resizable=1;rotatable=1;deletable=1;editable=1;locked=0;connectable=1;" edge="1" parent="IT8IMpOZwN_9MQMlR_QI-361">
          <mxGeometry width="50" height="50" relative="1" as="geometry">
            <mxPoint x="89.71754000000016" as="sourcePoint" />
            <mxPoint x="121.82" y="30" as="targetPoint" />
          </mxGeometry>
        </mxCell>
        <mxCell id="IT8IMpOZwN_9MQMlR_QI-363" value="" style="endArrow=none;html=1;rounded=0;fontFamily=Helvetica;fontSize=12;fontColor=default;exitX=0.153;exitY=0;exitDx=0;exitDy=0;exitPerimeter=0;entryX=1;entryY=0;entryDx=0;entryDy=0;dashed=1;movable=1;resizable=1;rotatable=1;deletable=1;editable=1;locked=0;connectable=1;" edge="1" parent="IT8IMpOZwN_9MQMlR_QI-361">
          <mxGeometry width="50" height="50" relative="1" as="geometry">
            <mxPoint x="43.717540000000156" y="-1" as="sourcePoint" />
            <mxPoint x="75.82" y="29" as="targetPoint" />
          </mxGeometry>
        </mxCell>
        <mxCell id="IT8IMpOZwN_9MQMlR_QI-365" value="" style="shape=parallelogram;perimeter=parallelogramPerimeter;whiteSpace=wrap;html=1;fixedSize=1;points=[[0,0,0,0,0],[0,0.25,0,0,0],[0,0.5,0,0,0],[0,0.75,0,0,0],[0.12,1,0,0,2],[0.25,0,0,0,0],[0.25,1,0,0,0],[0.5,0,0,0,0],[0.5,1,0,0,0],[0.75,0,0,0,0],[0.75,1,0,0,0],[1,0,0,0,0],[1,0.25,0,0,0],[1,0.5,0,0,0],[1,0.75,0,0,0],[1,1,0,0,0]];direction=west;flipH=0;container=1;movable=1;resizable=1;rotatable=1;deletable=1;editable=1;locked=0;connectable=1;size=30;flipV=1;fillColor=#f8cecc;strokeColor=#b85450;" vertex="1" parent="IT8IMpOZwN_9MQMlR_QI-361">
          <mxGeometry width="209.82" height="29.82" as="geometry">
            <mxRectangle x="280" y="200" width="50" height="40" as="alternateBounds" />
          </mxGeometry>
        </mxCell>
        <mxCell id="IT8IMpOZwN_9MQMlR_QI-366" value="" style="rounded=0;whiteSpace=wrap;html=1;strokeColor=#b85450;align=center;verticalAlign=middle;fontFamily=Helvetica;fontSize=12;fillColor=#f8cecc;opacity=60;movable=1;resizable=1;rotatable=1;deletable=1;editable=1;locked=0;connectable=1;" vertex="1" parent="IT8IMpOZwN_9MQMlR_QI-361">
          <mxGeometry x="29.819999999999993" y="29" width="180" height="35" as="geometry" />
        </mxCell>
        <mxCell id="IT8IMpOZwN_9MQMlR_QI-367" value="" style="endArrow=none;html=1;rounded=0;fontFamily=Helvetica;fontSize=12;fontColor=default;exitX=0.25;exitY=0;exitDx=0;exitDy=0;movable=1;resizable=1;rotatable=1;deletable=1;editable=1;locked=0;connectable=1;" edge="1" parent="IT8IMpOZwN_9MQMlR_QI-361" source="IT8IMpOZwN_9MQMlR_QI-366">
          <mxGeometry width="50" height="50" relative="1" as="geometry">
            <mxPoint x="-130.18" y="294" as="sourcePoint" />
            <mxPoint x="75.17892644135145" y="28.820000000000164" as="targetPoint" />
          </mxGeometry>
        </mxCell>
        <mxCell id="IT8IMpOZwN_9MQMlR_QI-368" style="edgeStyle=orthogonalEdgeStyle;rounded=0;orthogonalLoop=1;jettySize=auto;html=1;exitX=0.5;exitY=1;exitDx=0;exitDy=0;fontFamily=Helvetica;fontSize=12;fontColor=default;movable=1;resizable=1;rotatable=1;deletable=1;editable=1;locked=0;connectable=1;" edge="1" parent="IT8IMpOZwN_9MQMlR_QI-361" source="IT8IMpOZwN_9MQMlR_QI-366" target="IT8IMpOZwN_9MQMlR_QI-366">
          <mxGeometry relative="1" as="geometry" />
        </mxCell>
        <mxCell id="IT8IMpOZwN_9MQMlR_QI-369" value="" style="endArrow=none;html=1;rounded=0;fontFamily=Helvetica;fontSize=12;fontColor=default;entryX=0.25;entryY=0;entryDx=0;entryDy=0;exitX=0.25;exitY=1;exitDx=0;exitDy=0;dashed=1;movable=1;resizable=1;rotatable=1;deletable=1;editable=1;locked=0;connectable=1;" edge="1" parent="IT8IMpOZwN_9MQMlR_QI-361" source="IT8IMpOZwN_9MQMlR_QI-366" target="IT8IMpOZwN_9MQMlR_QI-366">
          <mxGeometry width="50" height="50" relative="1" as="geometry">
            <mxPoint x="-20.180000000000007" y="234" as="sourcePoint" />
            <mxPoint x="29.819999999999993" y="184" as="targetPoint" />
          </mxGeometry>
        </mxCell>
        <mxCell id="IT8IMpOZwN_9MQMlR_QI-370" value="" style="endArrow=none;html=1;rounded=0;fontFamily=Helvetica;fontSize=12;fontColor=default;entryX=0.5;entryY=0;entryDx=0;entryDy=0;exitX=0.5;exitY=1;exitDx=0;exitDy=0;dashed=1;movable=1;resizable=1;rotatable=1;deletable=1;editable=1;locked=0;connectable=1;" edge="1" parent="IT8IMpOZwN_9MQMlR_QI-361" source="IT8IMpOZwN_9MQMlR_QI-366" target="IT8IMpOZwN_9MQMlR_QI-366">
          <mxGeometry width="50" height="50" relative="1" as="geometry">
            <mxPoint x="69.82" y="214" as="sourcePoint" />
            <mxPoint x="119.82" y="164" as="targetPoint" />
          </mxGeometry>
        </mxCell>
        <mxCell id="IT8IMpOZwN_9MQMlR_QI-371" value="" style="endArrow=none;html=1;rounded=0;fontFamily=Helvetica;fontSize=12;fontColor=default;entryX=0.75;entryY=0;entryDx=0;entryDy=0;exitX=0.75;exitY=1;exitDx=0;exitDy=0;dashed=1;movable=1;resizable=1;rotatable=1;deletable=1;editable=1;locked=0;connectable=1;" edge="1" parent="IT8IMpOZwN_9MQMlR_QI-361" source="IT8IMpOZwN_9MQMlR_QI-366" target="IT8IMpOZwN_9MQMlR_QI-366">
          <mxGeometry width="50" height="50" relative="1" as="geometry">
            <mxPoint x="199.82" y="174" as="sourcePoint" />
            <mxPoint x="249.82" y="124" as="targetPoint" />
          </mxGeometry>
        </mxCell>
        <mxCell id="IT8IMpOZwN_9MQMlR_QI-372" value="" style="endArrow=none;html=1;rounded=0;fontFamily=Helvetica;fontSize=12;fontColor=default;entryX=0.143;entryY=0;entryDx=0;entryDy=0;entryPerimeter=0;exitX=1;exitY=0;exitDx=0;exitDy=0;dashed=1;movable=1;resizable=1;rotatable=1;deletable=1;editable=1;locked=0;connectable=1;" edge="1" parent="IT8IMpOZwN_9MQMlR_QI-361">
          <mxGeometry width="50" height="50" relative="1" as="geometry">
            <mxPoint x="165.82" y="29" as="sourcePoint" />
            <mxPoint x="135.8157400000003" y="-1" as="targetPoint" />
          </mxGeometry>
        </mxCell>
        <mxCell id="IT8IMpOZwN_9MQMlR_QI-373" value="" style="endArrow=none;html=1;rounded=0;fontFamily=Helvetica;fontSize=12;fontColor=default;entryX=0.143;entryY=0;entryDx=0;entryDy=0;entryPerimeter=0;exitX=1;exitY=0;exitDx=0;exitDy=0;dashed=1;movable=1;resizable=1;rotatable=1;deletable=1;editable=1;locked=0;connectable=1;" edge="1" parent="IT8IMpOZwN_9MQMlR_QI-361">
          <mxGeometry width="50" height="50" relative="1" as="geometry">
            <mxPoint x="120.82" y="29" as="sourcePoint" />
            <mxPoint x="90.81574000000029" y="-1" as="targetPoint" />
          </mxGeometry>
        </mxCell>
        <mxCell id="IT8IMpOZwN_9MQMlR_QI-374" value="" style="endArrow=none;html=1;rounded=0;fontFamily=Helvetica;fontSize=12;fontColor=default;entryX=0.143;entryY=0;entryDx=0;entryDy=0;entryPerimeter=0;exitX=1;exitY=0;exitDx=0;exitDy=0;dashed=1;movable=1;resizable=1;rotatable=1;deletable=1;editable=1;locked=0;connectable=1;" edge="1" parent="IT8IMpOZwN_9MQMlR_QI-361">
          <mxGeometry width="50" height="50" relative="1" as="geometry">
            <mxPoint x="75.82" y="29" as="sourcePoint" />
            <mxPoint x="45.81574000000029" y="-1" as="targetPoint" />
          </mxGeometry>
        </mxCell>
        <mxCell id="IT8IMpOZwN_9MQMlR_QI-375" value="" style="group" vertex="1" connectable="0" parent="1">
          <mxGeometry x="1905" y="291" width="252" height="65" as="geometry" />
        </mxCell>
        <mxCell id="IT8IMpOZwN_9MQMlR_QI-376" value="" style="group;movable=1;resizable=1;rotatable=1;deletable=1;editable=1;locked=0;connectable=1;" vertex="1" connectable="0" parent="IT8IMpOZwN_9MQMlR_QI-375">
          <mxGeometry width="252" height="65" as="geometry" />
        </mxCell>
        <mxCell id="IT8IMpOZwN_9MQMlR_QI-377" value="" style="endArrow=none;html=1;rounded=0;fontFamily=Helvetica;fontSize=12;fontColor=default;exitX=0.153;exitY=0;exitDx=0;exitDy=0;exitPerimeter=0;entryX=1;entryY=0;entryDx=0;entryDy=0;dashed=1;movable=1;resizable=1;rotatable=1;deletable=1;editable=1;locked=0;connectable=1;" edge="1" parent="IT8IMpOZwN_9MQMlR_QI-376">
          <mxGeometry width="50" height="50" relative="1" as="geometry">
            <mxPoint x="89.71754000000016" y="1" as="sourcePoint" />
            <mxPoint x="121.82" y="31" as="targetPoint" />
          </mxGeometry>
        </mxCell>
        <mxCell id="IT8IMpOZwN_9MQMlR_QI-378" value="" style="endArrow=none;html=1;rounded=0;fontFamily=Helvetica;fontSize=12;fontColor=default;exitX=0.153;exitY=0;exitDx=0;exitDy=0;exitPerimeter=0;entryX=1;entryY=0;entryDx=0;entryDy=0;dashed=1;movable=1;resizable=1;rotatable=1;deletable=1;editable=1;locked=0;connectable=1;" edge="1" parent="IT8IMpOZwN_9MQMlR_QI-376">
          <mxGeometry width="50" height="50" relative="1" as="geometry">
            <mxPoint x="43.717540000000156" as="sourcePoint" />
            <mxPoint x="75.82" y="30" as="targetPoint" />
          </mxGeometry>
        </mxCell>
        <mxCell id="IT8IMpOZwN_9MQMlR_QI-379" value="" style="shape=parallelogram;perimeter=parallelogramPerimeter;whiteSpace=wrap;html=1;fixedSize=1;points=[[0,0,0,0,0],[0,0.25,0,0,0],[0,0.5,0,0,0],[0,0.75,0,0,0],[0.12,1,0,0,2],[0.25,0,0,0,0],[0.25,1,0,0,0],[0.5,0,0,0,0],[0.5,1,0,0,0],[0.75,0,0,0,0],[0.75,1,0,0,0],[1,0,0,0,0],[1,0.25,0,0,0],[1,0.5,0,0,0],[1,0.75,0,0,0],[1,1,0,0,0]];direction=south;flipH=0;container=1;movable=1;resizable=1;rotatable=1;deletable=1;editable=1;locked=0;connectable=1;size=30;fillColor=#fff2cc;strokeColor=#d6b656;" vertex="1" parent="IT8IMpOZwN_9MQMlR_QI-376">
          <mxGeometry width="29.82" height="65" as="geometry">
            <mxRectangle x="280" y="200" width="50" height="40" as="alternateBounds" />
          </mxGeometry>
        </mxCell>
        <mxCell id="IT8IMpOZwN_9MQMlR_QI-380" value="" style="shape=parallelogram;perimeter=parallelogramPerimeter;whiteSpace=wrap;html=1;fixedSize=1;points=[[0,0,0,0,0],[0,0.25,0,0,0],[0,0.5,0,0,0],[0,0.75,0,0,0],[0.12,1,0,0,2],[0.25,0,0,0,0],[0.25,1,0,0,0],[0.5,0,0,0,0],[0.5,1,0,0,0],[0.75,0,0,0,0],[0.75,1,0,0,0],[1,0,0,0,0],[1,0.25,0,0,0],[1,0.5,0,0,0],[1,0.75,0,0,0],[1,1,0,0,0]];direction=west;flipH=0;container=1;movable=1;resizable=1;rotatable=1;deletable=1;editable=1;locked=0;connectable=1;size=30;flipV=1;fillColor=#fff2cc;strokeColor=#d6b656;" vertex="1" parent="IT8IMpOZwN_9MQMlR_QI-376">
          <mxGeometry width="209.82" height="29.82" as="geometry">
            <mxRectangle x="280" y="200" width="50" height="40" as="alternateBounds" />
          </mxGeometry>
        </mxCell>
        <mxCell id="IT8IMpOZwN_9MQMlR_QI-381" value="" style="rounded=0;whiteSpace=wrap;html=1;strokeColor=#d6b656;align=center;verticalAlign=middle;fontFamily=Helvetica;fontSize=12;fillColor=#fff2cc;opacity=60;movable=1;resizable=1;rotatable=1;deletable=1;editable=1;locked=0;connectable=1;" vertex="1" parent="IT8IMpOZwN_9MQMlR_QI-376">
          <mxGeometry x="29.819999999999993" y="30" width="180" height="35" as="geometry" />
        </mxCell>
        <mxCell id="IT8IMpOZwN_9MQMlR_QI-382" value="" style="endArrow=none;html=1;rounded=0;fontFamily=Helvetica;fontSize=12;fontColor=default;exitX=0.25;exitY=0;exitDx=0;exitDy=0;movable=1;resizable=1;rotatable=1;deletable=1;editable=1;locked=0;connectable=1;" edge="1" parent="IT8IMpOZwN_9MQMlR_QI-376" source="IT8IMpOZwN_9MQMlR_QI-381" target="IT8IMpOZwN_9MQMlR_QI-380">
          <mxGeometry width="50" height="50" relative="1" as="geometry">
            <mxPoint x="-130.18" y="295" as="sourcePoint" />
            <mxPoint x="-80.18" y="105" as="targetPoint" />
          </mxGeometry>
        </mxCell>
        <mxCell id="IT8IMpOZwN_9MQMlR_QI-383" style="edgeStyle=orthogonalEdgeStyle;rounded=0;orthogonalLoop=1;jettySize=auto;html=1;exitX=0.5;exitY=1;exitDx=0;exitDy=0;fontFamily=Helvetica;fontSize=12;fontColor=default;movable=1;resizable=1;rotatable=1;deletable=1;editable=1;locked=0;connectable=1;" edge="1" parent="IT8IMpOZwN_9MQMlR_QI-376" source="IT8IMpOZwN_9MQMlR_QI-381" target="IT8IMpOZwN_9MQMlR_QI-381">
          <mxGeometry relative="1" as="geometry" />
        </mxCell>
        <mxCell id="IT8IMpOZwN_9MQMlR_QI-384" value="" style="endArrow=none;html=1;rounded=0;fontFamily=Helvetica;fontSize=12;fontColor=default;entryX=0.25;entryY=0;entryDx=0;entryDy=0;exitX=0.25;exitY=1;exitDx=0;exitDy=0;dashed=1;movable=1;resizable=1;rotatable=1;deletable=1;editable=1;locked=0;connectable=1;" edge="1" parent="IT8IMpOZwN_9MQMlR_QI-376" source="IT8IMpOZwN_9MQMlR_QI-381" target="IT8IMpOZwN_9MQMlR_QI-381">
          <mxGeometry width="50" height="50" relative="1" as="geometry">
            <mxPoint x="-20.180000000000007" y="235" as="sourcePoint" />
            <mxPoint x="29.819999999999993" y="185" as="targetPoint" />
          </mxGeometry>
        </mxCell>
        <mxCell id="IT8IMpOZwN_9MQMlR_QI-385" value="" style="endArrow=none;html=1;rounded=0;fontFamily=Helvetica;fontSize=12;fontColor=default;entryX=0.5;entryY=0;entryDx=0;entryDy=0;exitX=0.5;exitY=1;exitDx=0;exitDy=0;dashed=1;movable=1;resizable=1;rotatable=1;deletable=1;editable=1;locked=0;connectable=1;" edge="1" parent="IT8IMpOZwN_9MQMlR_QI-376" source="IT8IMpOZwN_9MQMlR_QI-381" target="IT8IMpOZwN_9MQMlR_QI-381">
          <mxGeometry width="50" height="50" relative="1" as="geometry">
            <mxPoint x="69.82" y="215" as="sourcePoint" />
            <mxPoint x="119.82" y="165" as="targetPoint" />
          </mxGeometry>
        </mxCell>
        <mxCell id="IT8IMpOZwN_9MQMlR_QI-386" value="" style="endArrow=none;html=1;rounded=0;fontFamily=Helvetica;fontSize=12;fontColor=default;entryX=0.75;entryY=0;entryDx=0;entryDy=0;exitX=0.75;exitY=1;exitDx=0;exitDy=0;dashed=1;movable=1;resizable=1;rotatable=1;deletable=1;editable=1;locked=0;connectable=1;" edge="1" parent="IT8IMpOZwN_9MQMlR_QI-376">
          <mxGeometry width="50" height="50" relative="1" as="geometry">
            <mxPoint x="164.8199999999997" y="65" as="sourcePoint" />
            <mxPoint x="164.8199999999997" y="30" as="targetPoint" />
          </mxGeometry>
        </mxCell>
        <mxCell id="IT8IMpOZwN_9MQMlR_QI-387" value="" style="endArrow=none;html=1;rounded=0;fontFamily=Helvetica;fontSize=12;fontColor=default;entryX=0.143;entryY=0;entryDx=0;entryDy=0;entryPerimeter=0;exitX=1;exitY=0;exitDx=0;exitDy=0;dashed=1;movable=1;resizable=1;rotatable=1;deletable=1;editable=1;locked=0;connectable=1;" edge="1" parent="IT8IMpOZwN_9MQMlR_QI-376">
          <mxGeometry width="50" height="50" relative="1" as="geometry">
            <mxPoint x="165.82" y="30" as="sourcePoint" />
            <mxPoint x="135.8157400000003" as="targetPoint" />
          </mxGeometry>
        </mxCell>
        <mxCell id="IT8IMpOZwN_9MQMlR_QI-388" value="" style="endArrow=none;html=1;rounded=0;fontFamily=Helvetica;fontSize=12;fontColor=default;entryX=0.143;entryY=0;entryDx=0;entryDy=0;entryPerimeter=0;exitX=1;exitY=0;exitDx=0;exitDy=0;dashed=1;movable=1;resizable=1;rotatable=1;deletable=1;editable=1;locked=0;connectable=1;" edge="1" parent="IT8IMpOZwN_9MQMlR_QI-376">
          <mxGeometry width="50" height="50" relative="1" as="geometry">
            <mxPoint x="120.82" y="30" as="sourcePoint" />
            <mxPoint x="90.81574000000029" as="targetPoint" />
          </mxGeometry>
        </mxCell>
        <mxCell id="IT8IMpOZwN_9MQMlR_QI-389" value="" style="endArrow=none;html=1;rounded=0;fontFamily=Helvetica;fontSize=12;fontColor=default;entryX=0.143;entryY=0;entryDx=0;entryDy=0;entryPerimeter=0;exitX=1;exitY=0;exitDx=0;exitDy=0;dashed=1;movable=1;resizable=1;rotatable=1;deletable=1;editable=1;locked=0;connectable=1;" edge="1" parent="IT8IMpOZwN_9MQMlR_QI-376">
          <mxGeometry width="50" height="50" relative="1" as="geometry">
            <mxPoint x="75.82" y="30" as="sourcePoint" />
            <mxPoint x="45.81574000000029" as="targetPoint" />
          </mxGeometry>
        </mxCell>
        <mxCell id="IT8IMpOZwN_9MQMlR_QI-390" value="" style="group" vertex="1" connectable="0" parent="1">
          <mxGeometry x="2085" y="292" width="252" height="65" as="geometry" />
        </mxCell>
        <mxCell id="IT8IMpOZwN_9MQMlR_QI-391" value="" style="group;movable=1;resizable=1;rotatable=1;deletable=1;editable=1;locked=0;connectable=1;" vertex="1" connectable="0" parent="IT8IMpOZwN_9MQMlR_QI-390">
          <mxGeometry width="252" height="65" as="geometry" />
        </mxCell>
        <mxCell id="IT8IMpOZwN_9MQMlR_QI-392" value="" style="endArrow=none;html=1;rounded=0;fontFamily=Helvetica;fontSize=12;fontColor=default;exitX=0.153;exitY=0;exitDx=0;exitDy=0;exitPerimeter=0;entryX=1;entryY=0;entryDx=0;entryDy=0;dashed=1;movable=1;resizable=1;rotatable=1;deletable=1;editable=1;locked=0;connectable=1;" edge="1" parent="IT8IMpOZwN_9MQMlR_QI-391">
          <mxGeometry width="50" height="50" relative="1" as="geometry">
            <mxPoint x="89.71754000000016" as="sourcePoint" />
            <mxPoint x="121.82" y="30" as="targetPoint" />
          </mxGeometry>
        </mxCell>
        <mxCell id="IT8IMpOZwN_9MQMlR_QI-393" value="" style="endArrow=none;html=1;rounded=0;fontFamily=Helvetica;fontSize=12;fontColor=default;exitX=0.153;exitY=0;exitDx=0;exitDy=0;exitPerimeter=0;entryX=1;entryY=0;entryDx=0;entryDy=0;dashed=1;movable=1;resizable=1;rotatable=1;deletable=1;editable=1;locked=0;connectable=1;" edge="1" parent="IT8IMpOZwN_9MQMlR_QI-391">
          <mxGeometry width="50" height="50" relative="1" as="geometry">
            <mxPoint x="43.717540000000156" y="-1" as="sourcePoint" />
            <mxPoint x="75.82" y="29" as="targetPoint" />
          </mxGeometry>
        </mxCell>
        <mxCell id="IT8IMpOZwN_9MQMlR_QI-394" value="" style="shape=parallelogram;perimeter=parallelogramPerimeter;whiteSpace=wrap;html=1;fixedSize=1;points=[[0,0,0,0,0],[0,0.25,0,0,0],[0,0.5,0,0,0],[0,0.75,0,0,0],[0.12,1,0,0,2],[0.25,0,0,0,0],[0.25,1,0,0,0],[0.5,0,0,0,0],[0.5,1,0,0,0],[0.75,0,0,0,0],[0.75,1,0,0,0],[1,0,0,0,0],[1,0.25,0,0,0],[1,0.5,0,0,0],[1,0.75,0,0,0],[1,1,0,0,0]];direction=west;flipH=0;container=1;movable=1;resizable=1;rotatable=1;deletable=1;editable=1;locked=0;connectable=1;size=30;flipV=1;fillColor=#fff2cc;strokeColor=#d6b656;" vertex="1" parent="IT8IMpOZwN_9MQMlR_QI-391">
          <mxGeometry width="209.82" height="29.82" as="geometry">
            <mxRectangle x="280" y="200" width="50" height="40" as="alternateBounds" />
          </mxGeometry>
        </mxCell>
        <mxCell id="IT8IMpOZwN_9MQMlR_QI-395" value="" style="rounded=0;whiteSpace=wrap;html=1;strokeColor=#d6b656;align=center;verticalAlign=middle;fontFamily=Helvetica;fontSize=12;fillColor=#fff2cc;opacity=60;movable=1;resizable=1;rotatable=1;deletable=1;editable=1;locked=0;connectable=1;" vertex="1" parent="IT8IMpOZwN_9MQMlR_QI-391">
          <mxGeometry x="29.819999999999993" y="29" width="180" height="35" as="geometry" />
        </mxCell>
        <mxCell id="IT8IMpOZwN_9MQMlR_QI-396" value="" style="endArrow=none;html=1;rounded=0;fontFamily=Helvetica;fontSize=12;fontColor=default;exitX=0.25;exitY=0;exitDx=0;exitDy=0;movable=1;resizable=1;rotatable=1;deletable=1;editable=1;locked=0;connectable=1;" edge="1" parent="IT8IMpOZwN_9MQMlR_QI-391" source="IT8IMpOZwN_9MQMlR_QI-395">
          <mxGeometry width="50" height="50" relative="1" as="geometry">
            <mxPoint x="-130.18" y="294" as="sourcePoint" />
            <mxPoint x="75.17892644135145" y="28.820000000000164" as="targetPoint" />
          </mxGeometry>
        </mxCell>
        <mxCell id="IT8IMpOZwN_9MQMlR_QI-397" style="edgeStyle=orthogonalEdgeStyle;rounded=0;orthogonalLoop=1;jettySize=auto;html=1;exitX=0.5;exitY=1;exitDx=0;exitDy=0;fontFamily=Helvetica;fontSize=12;fontColor=default;movable=1;resizable=1;rotatable=1;deletable=1;editable=1;locked=0;connectable=1;" edge="1" parent="IT8IMpOZwN_9MQMlR_QI-391" source="IT8IMpOZwN_9MQMlR_QI-395" target="IT8IMpOZwN_9MQMlR_QI-395">
          <mxGeometry relative="1" as="geometry" />
        </mxCell>
        <mxCell id="IT8IMpOZwN_9MQMlR_QI-398" value="" style="endArrow=none;html=1;rounded=0;fontFamily=Helvetica;fontSize=12;fontColor=default;entryX=0.25;entryY=0;entryDx=0;entryDy=0;exitX=0.25;exitY=1;exitDx=0;exitDy=0;dashed=1;movable=1;resizable=1;rotatable=1;deletable=1;editable=1;locked=0;connectable=1;" edge="1" parent="IT8IMpOZwN_9MQMlR_QI-391" source="IT8IMpOZwN_9MQMlR_QI-395" target="IT8IMpOZwN_9MQMlR_QI-395">
          <mxGeometry width="50" height="50" relative="1" as="geometry">
            <mxPoint x="-20.180000000000007" y="234" as="sourcePoint" />
            <mxPoint x="29.819999999999993" y="184" as="targetPoint" />
          </mxGeometry>
        </mxCell>
        <mxCell id="IT8IMpOZwN_9MQMlR_QI-399" value="" style="endArrow=none;html=1;rounded=0;fontFamily=Helvetica;fontSize=12;fontColor=default;entryX=0.5;entryY=0;entryDx=0;entryDy=0;exitX=0.5;exitY=1;exitDx=0;exitDy=0;dashed=1;movable=1;resizable=1;rotatable=1;deletable=1;editable=1;locked=0;connectable=1;" edge="1" parent="IT8IMpOZwN_9MQMlR_QI-391" source="IT8IMpOZwN_9MQMlR_QI-395" target="IT8IMpOZwN_9MQMlR_QI-395">
          <mxGeometry width="50" height="50" relative="1" as="geometry">
            <mxPoint x="69.82" y="214" as="sourcePoint" />
            <mxPoint x="119.82" y="164" as="targetPoint" />
          </mxGeometry>
        </mxCell>
        <mxCell id="IT8IMpOZwN_9MQMlR_QI-400" value="" style="endArrow=none;html=1;rounded=0;fontFamily=Helvetica;fontSize=12;fontColor=default;entryX=0.75;entryY=0;entryDx=0;entryDy=0;exitX=0.75;exitY=1;exitDx=0;exitDy=0;dashed=1;movable=1;resizable=1;rotatable=1;deletable=1;editable=1;locked=0;connectable=1;" edge="1" parent="IT8IMpOZwN_9MQMlR_QI-391" source="IT8IMpOZwN_9MQMlR_QI-395" target="IT8IMpOZwN_9MQMlR_QI-395">
          <mxGeometry width="50" height="50" relative="1" as="geometry">
            <mxPoint x="199.82" y="174" as="sourcePoint" />
            <mxPoint x="249.82" y="124" as="targetPoint" />
          </mxGeometry>
        </mxCell>
        <mxCell id="IT8IMpOZwN_9MQMlR_QI-401" value="" style="endArrow=none;html=1;rounded=0;fontFamily=Helvetica;fontSize=12;fontColor=default;entryX=0.143;entryY=0;entryDx=0;entryDy=0;entryPerimeter=0;exitX=1;exitY=0;exitDx=0;exitDy=0;dashed=1;movable=1;resizable=1;rotatable=1;deletable=1;editable=1;locked=0;connectable=1;" edge="1" parent="IT8IMpOZwN_9MQMlR_QI-391">
          <mxGeometry width="50" height="50" relative="1" as="geometry">
            <mxPoint x="165.82" y="29" as="sourcePoint" />
            <mxPoint x="135.8157400000003" y="-1" as="targetPoint" />
          </mxGeometry>
        </mxCell>
        <mxCell id="IT8IMpOZwN_9MQMlR_QI-402" value="" style="endArrow=none;html=1;rounded=0;fontFamily=Helvetica;fontSize=12;fontColor=default;entryX=0.143;entryY=0;entryDx=0;entryDy=0;entryPerimeter=0;exitX=1;exitY=0;exitDx=0;exitDy=0;dashed=1;movable=1;resizable=1;rotatable=1;deletable=1;editable=1;locked=0;connectable=1;" edge="1" parent="IT8IMpOZwN_9MQMlR_QI-391">
          <mxGeometry width="50" height="50" relative="1" as="geometry">
            <mxPoint x="120.82" y="29" as="sourcePoint" />
            <mxPoint x="90.81574000000029" y="-1" as="targetPoint" />
          </mxGeometry>
        </mxCell>
        <mxCell id="IT8IMpOZwN_9MQMlR_QI-403" value="" style="endArrow=none;html=1;rounded=0;fontFamily=Helvetica;fontSize=12;fontColor=default;entryX=0.143;entryY=0;entryDx=0;entryDy=0;entryPerimeter=0;exitX=1;exitY=0;exitDx=0;exitDy=0;dashed=1;movable=1;resizable=1;rotatable=1;deletable=1;editable=1;locked=0;connectable=1;" edge="1" parent="IT8IMpOZwN_9MQMlR_QI-391">
          <mxGeometry width="50" height="50" relative="1" as="geometry">
            <mxPoint x="75.82" y="29" as="sourcePoint" />
            <mxPoint x="45.81574000000029" y="-1" as="targetPoint" />
          </mxGeometry>
        </mxCell>
        <mxCell id="IT8IMpOZwN_9MQMlR_QI-407" style="edgeStyle=orthogonalEdgeStyle;rounded=0;orthogonalLoop=1;jettySize=auto;html=1;exitX=0.5;exitY=1;exitDx=0;exitDy=0;fontFamily=Helvetica;fontSize=12;fontColor=default;movable=1;resizable=1;rotatable=1;deletable=1;editable=1;locked=0;connectable=1;" edge="1" parent="1">
          <mxGeometry relative="1" as="geometry">
            <mxPoint x="2027" y="357" as="sourcePoint" />
            <mxPoint x="2027" y="357" as="targetPoint" />
          </mxGeometry>
        </mxCell>
        <mxCell id="IT8IMpOZwN_9MQMlR_QI-408" style="edgeStyle=orthogonalEdgeStyle;rounded=0;orthogonalLoop=1;jettySize=auto;html=1;exitX=0.5;exitY=1;exitDx=0;exitDy=0;fontFamily=Helvetica;fontSize=12;fontColor=default;movable=1;resizable=1;rotatable=1;deletable=1;editable=1;locked=0;connectable=1;" edge="1" parent="1">
          <mxGeometry relative="1" as="geometry">
            <mxPoint x="2207" y="357" as="sourcePoint" />
            <mxPoint x="2207" y="357" as="targetPoint" />
          </mxGeometry>
        </mxCell>
        <mxCell id="IT8IMpOZwN_9MQMlR_QI-409" value="" style="group" vertex="1" connectable="0" parent="1">
          <mxGeometry x="1909" y="360" width="252" height="65" as="geometry" />
        </mxCell>
        <mxCell id="IT8IMpOZwN_9MQMlR_QI-410" value="" style="group;movable=1;resizable=1;rotatable=1;deletable=1;editable=1;locked=0;connectable=1;" vertex="1" connectable="0" parent="IT8IMpOZwN_9MQMlR_QI-409">
          <mxGeometry width="252" height="65" as="geometry" />
        </mxCell>
        <mxCell id="IT8IMpOZwN_9MQMlR_QI-411" value="" style="endArrow=none;html=1;rounded=0;fontFamily=Helvetica;fontSize=12;fontColor=default;exitX=0.153;exitY=0;exitDx=0;exitDy=0;exitPerimeter=0;entryX=1;entryY=0;entryDx=0;entryDy=0;dashed=1;movable=1;resizable=1;rotatable=1;deletable=1;editable=1;locked=0;connectable=1;" edge="1" parent="IT8IMpOZwN_9MQMlR_QI-410">
          <mxGeometry width="50" height="50" relative="1" as="geometry">
            <mxPoint x="89.71754000000016" y="1" as="sourcePoint" />
            <mxPoint x="121.82" y="31" as="targetPoint" />
          </mxGeometry>
        </mxCell>
        <mxCell id="IT8IMpOZwN_9MQMlR_QI-412" value="" style="endArrow=none;html=1;rounded=0;fontFamily=Helvetica;fontSize=12;fontColor=default;exitX=0.153;exitY=0;exitDx=0;exitDy=0;exitPerimeter=0;entryX=1;entryY=0;entryDx=0;entryDy=0;dashed=1;movable=1;resizable=1;rotatable=1;deletable=1;editable=1;locked=0;connectable=1;" edge="1" parent="IT8IMpOZwN_9MQMlR_QI-410">
          <mxGeometry width="50" height="50" relative="1" as="geometry">
            <mxPoint x="43.717540000000156" as="sourcePoint" />
            <mxPoint x="75.82" y="30" as="targetPoint" />
          </mxGeometry>
        </mxCell>
        <mxCell id="IT8IMpOZwN_9MQMlR_QI-413" value="" style="shape=parallelogram;perimeter=parallelogramPerimeter;whiteSpace=wrap;html=1;fixedSize=1;points=[[0,0,0,0,0],[0,0.25,0,0,0],[0,0.5,0,0,0],[0,0.75,0,0,0],[0.12,1,0,0,2],[0.25,0,0,0,0],[0.25,1,0,0,0],[0.5,0,0,0,0],[0.5,1,0,0,0],[0.75,0,0,0,0],[0.75,1,0,0,0],[1,0,0,0,0],[1,0.25,0,0,0],[1,0.5,0,0,0],[1,0.75,0,0,0],[1,1,0,0,0]];direction=south;flipH=0;container=1;movable=1;resizable=1;rotatable=1;deletable=1;editable=1;locked=0;connectable=1;size=30;fillColor=#dae8fc;strokeColor=#6c8ebf;" vertex="1" parent="IT8IMpOZwN_9MQMlR_QI-410">
          <mxGeometry width="29.82" height="65" as="geometry">
            <mxRectangle x="280" y="200" width="50" height="40" as="alternateBounds" />
          </mxGeometry>
        </mxCell>
        <mxCell id="IT8IMpOZwN_9MQMlR_QI-414" value="" style="shape=parallelogram;perimeter=parallelogramPerimeter;whiteSpace=wrap;html=1;fixedSize=1;points=[[0,0,0,0,0],[0,0.25,0,0,0],[0,0.5,0,0,0],[0,0.75,0,0,0],[0.12,1,0,0,2],[0.25,0,0,0,0],[0.25,1,0,0,0],[0.5,0,0,0,0],[0.5,1,0,0,0],[0.75,0,0,0,0],[0.75,1,0,0,0],[1,0,0,0,0],[1,0.25,0,0,0],[1,0.5,0,0,0],[1,0.75,0,0,0],[1,1,0,0,0]];direction=west;flipH=0;container=1;movable=1;resizable=1;rotatable=1;deletable=1;editable=1;locked=0;connectable=1;size=30;flipV=1;fillColor=#dae8fc;strokeColor=#6c8ebf;" vertex="1" parent="IT8IMpOZwN_9MQMlR_QI-410">
          <mxGeometry width="209.82" height="29.82" as="geometry">
            <mxRectangle x="280" y="200" width="50" height="40" as="alternateBounds" />
          </mxGeometry>
        </mxCell>
        <mxCell id="IT8IMpOZwN_9MQMlR_QI-415" value="" style="rounded=0;whiteSpace=wrap;html=1;strokeColor=#6c8ebf;align=center;verticalAlign=middle;fontFamily=Helvetica;fontSize=12;fillColor=#dae8fc;opacity=60;movable=1;resizable=1;rotatable=1;deletable=1;editable=1;locked=0;connectable=1;" vertex="1" parent="IT8IMpOZwN_9MQMlR_QI-410">
          <mxGeometry x="29.819999999999993" y="30" width="180" height="35" as="geometry" />
        </mxCell>
        <mxCell id="IT8IMpOZwN_9MQMlR_QI-416" value="" style="endArrow=none;html=1;rounded=0;fontFamily=Helvetica;fontSize=12;fontColor=default;exitX=0.25;exitY=0;exitDx=0;exitDy=0;movable=1;resizable=1;rotatable=1;deletable=1;editable=1;locked=0;connectable=1;" edge="1" parent="IT8IMpOZwN_9MQMlR_QI-410" source="IT8IMpOZwN_9MQMlR_QI-415" target="IT8IMpOZwN_9MQMlR_QI-414">
          <mxGeometry width="50" height="50" relative="1" as="geometry">
            <mxPoint x="-130.18" y="295" as="sourcePoint" />
            <mxPoint x="-80.18" y="105" as="targetPoint" />
          </mxGeometry>
        </mxCell>
        <mxCell id="IT8IMpOZwN_9MQMlR_QI-417" style="edgeStyle=orthogonalEdgeStyle;rounded=0;orthogonalLoop=1;jettySize=auto;html=1;exitX=0.5;exitY=1;exitDx=0;exitDy=0;fontFamily=Helvetica;fontSize=12;fontColor=default;movable=1;resizable=1;rotatable=1;deletable=1;editable=1;locked=0;connectable=1;" edge="1" parent="IT8IMpOZwN_9MQMlR_QI-410" source="IT8IMpOZwN_9MQMlR_QI-415" target="IT8IMpOZwN_9MQMlR_QI-415">
          <mxGeometry relative="1" as="geometry" />
        </mxCell>
        <mxCell id="IT8IMpOZwN_9MQMlR_QI-418" value="" style="endArrow=none;html=1;rounded=0;fontFamily=Helvetica;fontSize=12;fontColor=default;entryX=0.25;entryY=0;entryDx=0;entryDy=0;exitX=0.25;exitY=1;exitDx=0;exitDy=0;dashed=1;movable=1;resizable=1;rotatable=1;deletable=1;editable=1;locked=0;connectable=1;" edge="1" parent="IT8IMpOZwN_9MQMlR_QI-410" source="IT8IMpOZwN_9MQMlR_QI-415" target="IT8IMpOZwN_9MQMlR_QI-415">
          <mxGeometry width="50" height="50" relative="1" as="geometry">
            <mxPoint x="-20.180000000000007" y="235" as="sourcePoint" />
            <mxPoint x="29.819999999999993" y="185" as="targetPoint" />
          </mxGeometry>
        </mxCell>
        <mxCell id="IT8IMpOZwN_9MQMlR_QI-419" value="" style="endArrow=none;html=1;rounded=0;fontFamily=Helvetica;fontSize=12;fontColor=default;entryX=0.5;entryY=0;entryDx=0;entryDy=0;exitX=0.5;exitY=1;exitDx=0;exitDy=0;dashed=1;movable=1;resizable=1;rotatable=1;deletable=1;editable=1;locked=0;connectable=1;" edge="1" parent="IT8IMpOZwN_9MQMlR_QI-410" source="IT8IMpOZwN_9MQMlR_QI-415" target="IT8IMpOZwN_9MQMlR_QI-415">
          <mxGeometry width="50" height="50" relative="1" as="geometry">
            <mxPoint x="69.82" y="215" as="sourcePoint" />
            <mxPoint x="119.82" y="165" as="targetPoint" />
          </mxGeometry>
        </mxCell>
        <mxCell id="IT8IMpOZwN_9MQMlR_QI-420" value="" style="endArrow=none;html=1;rounded=0;fontFamily=Helvetica;fontSize=12;fontColor=default;entryX=0.75;entryY=0;entryDx=0;entryDy=0;exitX=0.75;exitY=1;exitDx=0;exitDy=0;dashed=1;movable=1;resizable=1;rotatable=1;deletable=1;editable=1;locked=0;connectable=1;" edge="1" parent="IT8IMpOZwN_9MQMlR_QI-410">
          <mxGeometry width="50" height="50" relative="1" as="geometry">
            <mxPoint x="164.8199999999997" y="65" as="sourcePoint" />
            <mxPoint x="164.8199999999997" y="30" as="targetPoint" />
          </mxGeometry>
        </mxCell>
        <mxCell id="IT8IMpOZwN_9MQMlR_QI-421" value="" style="endArrow=none;html=1;rounded=0;fontFamily=Helvetica;fontSize=12;fontColor=default;entryX=0.143;entryY=0;entryDx=0;entryDy=0;entryPerimeter=0;exitX=1;exitY=0;exitDx=0;exitDy=0;dashed=1;movable=1;resizable=1;rotatable=1;deletable=1;editable=1;locked=0;connectable=1;" edge="1" parent="IT8IMpOZwN_9MQMlR_QI-410">
          <mxGeometry width="50" height="50" relative="1" as="geometry">
            <mxPoint x="165.82" y="30" as="sourcePoint" />
            <mxPoint x="135.8157400000003" as="targetPoint" />
          </mxGeometry>
        </mxCell>
        <mxCell id="IT8IMpOZwN_9MQMlR_QI-422" value="" style="endArrow=none;html=1;rounded=0;fontFamily=Helvetica;fontSize=12;fontColor=default;entryX=0.143;entryY=0;entryDx=0;entryDy=0;entryPerimeter=0;exitX=1;exitY=0;exitDx=0;exitDy=0;dashed=1;movable=1;resizable=1;rotatable=1;deletable=1;editable=1;locked=0;connectable=1;" edge="1" parent="IT8IMpOZwN_9MQMlR_QI-410">
          <mxGeometry width="50" height="50" relative="1" as="geometry">
            <mxPoint x="120.82" y="30" as="sourcePoint" />
            <mxPoint x="90.81574000000029" as="targetPoint" />
          </mxGeometry>
        </mxCell>
        <mxCell id="IT8IMpOZwN_9MQMlR_QI-423" value="" style="endArrow=none;html=1;rounded=0;fontFamily=Helvetica;fontSize=12;fontColor=default;entryX=0.143;entryY=0;entryDx=0;entryDy=0;entryPerimeter=0;exitX=1;exitY=0;exitDx=0;exitDy=0;dashed=1;movable=1;resizable=1;rotatable=1;deletable=1;editable=1;locked=0;connectable=1;" edge="1" parent="IT8IMpOZwN_9MQMlR_QI-410">
          <mxGeometry width="50" height="50" relative="1" as="geometry">
            <mxPoint x="75.82" y="30" as="sourcePoint" />
            <mxPoint x="45.81574000000029" as="targetPoint" />
          </mxGeometry>
        </mxCell>
        <mxCell id="IT8IMpOZwN_9MQMlR_QI-424" value="" style="group" vertex="1" connectable="0" parent="1">
          <mxGeometry x="2089" y="361" width="252" height="65" as="geometry" />
        </mxCell>
        <mxCell id="IT8IMpOZwN_9MQMlR_QI-425" value="" style="group;movable=1;resizable=1;rotatable=1;deletable=1;editable=1;locked=0;connectable=1;" vertex="1" connectable="0" parent="IT8IMpOZwN_9MQMlR_QI-424">
          <mxGeometry width="252" height="65" as="geometry" />
        </mxCell>
        <mxCell id="IT8IMpOZwN_9MQMlR_QI-426" value="" style="endArrow=none;html=1;rounded=0;fontFamily=Helvetica;fontSize=12;fontColor=default;exitX=0.153;exitY=0;exitDx=0;exitDy=0;exitPerimeter=0;entryX=1;entryY=0;entryDx=0;entryDy=0;dashed=1;movable=1;resizable=1;rotatable=1;deletable=1;editable=1;locked=0;connectable=1;" edge="1" parent="IT8IMpOZwN_9MQMlR_QI-425">
          <mxGeometry width="50" height="50" relative="1" as="geometry">
            <mxPoint x="89.71754000000016" as="sourcePoint" />
            <mxPoint x="121.82" y="30" as="targetPoint" />
          </mxGeometry>
        </mxCell>
        <mxCell id="IT8IMpOZwN_9MQMlR_QI-427" value="" style="endArrow=none;html=1;rounded=0;fontFamily=Helvetica;fontSize=12;fontColor=default;exitX=0.153;exitY=0;exitDx=0;exitDy=0;exitPerimeter=0;entryX=1;entryY=0;entryDx=0;entryDy=0;dashed=1;movable=1;resizable=1;rotatable=1;deletable=1;editable=1;locked=0;connectable=1;" edge="1" parent="IT8IMpOZwN_9MQMlR_QI-425">
          <mxGeometry width="50" height="50" relative="1" as="geometry">
            <mxPoint x="43.717540000000156" y="-1" as="sourcePoint" />
            <mxPoint x="75.82" y="29" as="targetPoint" />
          </mxGeometry>
        </mxCell>
        <mxCell id="IT8IMpOZwN_9MQMlR_QI-428" value="" style="shape=parallelogram;perimeter=parallelogramPerimeter;whiteSpace=wrap;html=1;fixedSize=1;points=[[0,0,0,0,0],[0,0.25,0,0,0],[0,0.5,0,0,0],[0,0.75,0,0,0],[0.12,1,0,0,2],[0.25,0,0,0,0],[0.25,1,0,0,0],[0.5,0,0,0,0],[0.5,1,0,0,0],[0.75,0,0,0,0],[0.75,1,0,0,0],[1,0,0,0,0],[1,0.25,0,0,0],[1,0.5,0,0,0],[1,0.75,0,0,0],[1,1,0,0,0]];direction=west;flipH=0;container=1;movable=1;resizable=1;rotatable=1;deletable=1;editable=1;locked=0;connectable=1;size=30;flipV=1;fillColor=#dae8fc;strokeColor=#6c8ebf;" vertex="1" parent="IT8IMpOZwN_9MQMlR_QI-425">
          <mxGeometry width="209.82" height="29.82" as="geometry">
            <mxRectangle x="280" y="200" width="50" height="40" as="alternateBounds" />
          </mxGeometry>
        </mxCell>
        <mxCell id="IT8IMpOZwN_9MQMlR_QI-429" value="" style="rounded=0;whiteSpace=wrap;html=1;strokeColor=#6c8ebf;align=center;verticalAlign=middle;fontFamily=Helvetica;fontSize=12;fillColor=#dae8fc;opacity=60;movable=1;resizable=1;rotatable=1;deletable=1;editable=1;locked=0;connectable=1;" vertex="1" parent="IT8IMpOZwN_9MQMlR_QI-425">
          <mxGeometry x="29.819999999999993" y="29" width="180" height="35" as="geometry" />
        </mxCell>
        <mxCell id="IT8IMpOZwN_9MQMlR_QI-430" value="" style="endArrow=none;html=1;rounded=0;fontFamily=Helvetica;fontSize=12;fontColor=default;exitX=0.25;exitY=0;exitDx=0;exitDy=0;movable=1;resizable=1;rotatable=1;deletable=1;editable=1;locked=0;connectable=1;" edge="1" parent="IT8IMpOZwN_9MQMlR_QI-425" source="IT8IMpOZwN_9MQMlR_QI-429">
          <mxGeometry width="50" height="50" relative="1" as="geometry">
            <mxPoint x="-130.18" y="294" as="sourcePoint" />
            <mxPoint x="75.17892644135145" y="28.820000000000164" as="targetPoint" />
          </mxGeometry>
        </mxCell>
        <mxCell id="IT8IMpOZwN_9MQMlR_QI-431" style="edgeStyle=orthogonalEdgeStyle;rounded=0;orthogonalLoop=1;jettySize=auto;html=1;exitX=0.5;exitY=1;exitDx=0;exitDy=0;fontFamily=Helvetica;fontSize=12;fontColor=default;movable=1;resizable=1;rotatable=1;deletable=1;editable=1;locked=0;connectable=1;" edge="1" parent="IT8IMpOZwN_9MQMlR_QI-425" source="IT8IMpOZwN_9MQMlR_QI-429" target="IT8IMpOZwN_9MQMlR_QI-429">
          <mxGeometry relative="1" as="geometry" />
        </mxCell>
        <mxCell id="IT8IMpOZwN_9MQMlR_QI-432" value="" style="endArrow=none;html=1;rounded=0;fontFamily=Helvetica;fontSize=12;fontColor=default;entryX=0.25;entryY=0;entryDx=0;entryDy=0;exitX=0.25;exitY=1;exitDx=0;exitDy=0;dashed=1;movable=1;resizable=1;rotatable=1;deletable=1;editable=1;locked=0;connectable=1;" edge="1" parent="IT8IMpOZwN_9MQMlR_QI-425" source="IT8IMpOZwN_9MQMlR_QI-429" target="IT8IMpOZwN_9MQMlR_QI-429">
          <mxGeometry width="50" height="50" relative="1" as="geometry">
            <mxPoint x="-20.180000000000007" y="234" as="sourcePoint" />
            <mxPoint x="29.819999999999993" y="184" as="targetPoint" />
          </mxGeometry>
        </mxCell>
        <mxCell id="IT8IMpOZwN_9MQMlR_QI-433" value="" style="endArrow=none;html=1;rounded=0;fontFamily=Helvetica;fontSize=12;fontColor=default;entryX=0.5;entryY=0;entryDx=0;entryDy=0;exitX=0.5;exitY=1;exitDx=0;exitDy=0;dashed=1;movable=1;resizable=1;rotatable=1;deletable=1;editable=1;locked=0;connectable=1;" edge="1" parent="IT8IMpOZwN_9MQMlR_QI-425" source="IT8IMpOZwN_9MQMlR_QI-429" target="IT8IMpOZwN_9MQMlR_QI-429">
          <mxGeometry width="50" height="50" relative="1" as="geometry">
            <mxPoint x="69.82" y="214" as="sourcePoint" />
            <mxPoint x="119.82" y="164" as="targetPoint" />
          </mxGeometry>
        </mxCell>
        <mxCell id="IT8IMpOZwN_9MQMlR_QI-434" value="" style="endArrow=none;html=1;rounded=0;fontFamily=Helvetica;fontSize=12;fontColor=default;entryX=0.75;entryY=0;entryDx=0;entryDy=0;exitX=0.75;exitY=1;exitDx=0;exitDy=0;dashed=1;movable=1;resizable=1;rotatable=1;deletable=1;editable=1;locked=0;connectable=1;" edge="1" parent="IT8IMpOZwN_9MQMlR_QI-425" source="IT8IMpOZwN_9MQMlR_QI-429" target="IT8IMpOZwN_9MQMlR_QI-429">
          <mxGeometry width="50" height="50" relative="1" as="geometry">
            <mxPoint x="199.82" y="174" as="sourcePoint" />
            <mxPoint x="249.82" y="124" as="targetPoint" />
          </mxGeometry>
        </mxCell>
        <mxCell id="IT8IMpOZwN_9MQMlR_QI-435" value="" style="endArrow=none;html=1;rounded=0;fontFamily=Helvetica;fontSize=12;fontColor=default;entryX=0.143;entryY=0;entryDx=0;entryDy=0;entryPerimeter=0;exitX=1;exitY=0;exitDx=0;exitDy=0;dashed=1;movable=1;resizable=1;rotatable=1;deletable=1;editable=1;locked=0;connectable=1;" edge="1" parent="IT8IMpOZwN_9MQMlR_QI-425">
          <mxGeometry width="50" height="50" relative="1" as="geometry">
            <mxPoint x="165.82" y="29" as="sourcePoint" />
            <mxPoint x="135.8157400000003" y="-1" as="targetPoint" />
          </mxGeometry>
        </mxCell>
        <mxCell id="IT8IMpOZwN_9MQMlR_QI-436" value="" style="endArrow=none;html=1;rounded=0;fontFamily=Helvetica;fontSize=12;fontColor=default;entryX=0.143;entryY=0;entryDx=0;entryDy=0;entryPerimeter=0;exitX=1;exitY=0;exitDx=0;exitDy=0;dashed=1;movable=1;resizable=1;rotatable=1;deletable=1;editable=1;locked=0;connectable=1;" edge="1" parent="IT8IMpOZwN_9MQMlR_QI-425">
          <mxGeometry width="50" height="50" relative="1" as="geometry">
            <mxPoint x="120.82" y="29" as="sourcePoint" />
            <mxPoint x="90.81574000000029" y="-1" as="targetPoint" />
          </mxGeometry>
        </mxCell>
        <mxCell id="IT8IMpOZwN_9MQMlR_QI-437" value="" style="endArrow=none;html=1;rounded=0;fontFamily=Helvetica;fontSize=12;fontColor=default;entryX=0.143;entryY=0;entryDx=0;entryDy=0;entryPerimeter=0;exitX=1;exitY=0;exitDx=0;exitDy=0;dashed=1;movable=1;resizable=1;rotatable=1;deletable=1;editable=1;locked=0;connectable=1;" edge="1" parent="IT8IMpOZwN_9MQMlR_QI-425">
          <mxGeometry width="50" height="50" relative="1" as="geometry">
            <mxPoint x="75.82" y="29" as="sourcePoint" />
            <mxPoint x="45.81574000000029" y="-1" as="targetPoint" />
          </mxGeometry>
        </mxCell>
      </root>
    </mxGraphModel>
  </diagram>
</mxfile>
